<?xml version="1.0" encoding="utf-8"?>
<svg viewBox="0 0 512 460.63" xmlns="http://www.w3.org/2000/svg">
  <defs>
    <style>.cls-1{fill:#feb2dc;}</style>
  </defs>
  <path class="cls-1" d="M 482.45 407.4 C 444.72 456.98 377.96 474.29 320.9 449.29 C 296.08 438.58 273.95 420.53 256 396.57 C 238.05 420.59 215.92 438.64 191.1 449.29 C 134.04 474.29 67.28 456.98 29.55 407.4 C 10.22 382.07 0 350.42 0 315.86 C 0 266.14 29.65 211.59 88.13 153.66 C 135.78 106.48 256 0 256 0 C 256 0 376.22 106.48 423.87 153.66 C 482.35 211.56 512 266.14 512 315.86 C 512 350.41 501.78 382.07 482.45 407.4 Z" style="fill: rgb(213, 114, 190); transform-origin: 256px 230.32px;" transform="matrix(-1, 0, 0, -1, 0.000091552734, -0.000030517578)"/>
  <path class="cls-1" d="M 466.146 56.562 C 427.092 13.14 370.904 2.107 317.03 25.462 C 293.593 35.467 273.741 58.444 256.791 80.826 C 239.847 58.387 217.886 35.452 194.47 25.462 C 136.597 0.77 82.788 13.442 41.936 59.427 C 21.76 82.139 16.25 118.708 16.599 150.104 C 17.113 196.546 42.029 247.507 97.246 301.622 C 142.236 345.696 255.746 445.161 255.746 445.161 C 255.746 445.161 369.26 345.696 414.251 301.622 C 469.469 247.534 497.369 196.549 497.464 150.104 C 497.53 117.83 487.426 80.222 466.146 56.562 Z" fill="#ffffff" style="transform-origin: 255.748px 228.978px;"/>
</svg>