<?xml version="1.0" encoding="utf-8"?>
<svg viewBox="0 0 512 460.63" xmlns="http://www.w3.org/2000/svg">
  <defs>
    <style>.cls-1{fill:#feb2dc;}</style>
  </defs>
  <path class="cls-1" d="M 472.93 60.684 C 436.797 13.202 372.863 -3.375 318.219 20.566 C 294.451 30.824 273.256 48.109 256.068 71.054 C 238.878 48.052 217.684 30.767 193.916 20.566 C 139.272 -3.375 75.338 13.202 39.205 60.684 C 20.694 84.94 10.906 115.249 10.906 148.347 C 10.906 195.961 39.302 248.203 95.305 303.68 C 140.938 348.862 256.068 450.833 256.068 450.833 C 256.068 450.833 371.197 348.862 416.831 303.68 C 472.834 248.231 501.229 195.961 501.229 148.347 C 501.229 115.259 491.442 84.94 472.93 60.684 Z" fill="#ffffff" style="stroke: rgb(213, 114, 190); stroke-miterlimit: 30; stroke-linejoin: round; stroke-width: 20px;"/>
</svg>