<?xml version="1.0" encoding="utf-8"?>
<svg viewBox="152.378 13.873 199.063 438.53" width="199.063" height="438.53" xmlns="http://www.w3.org/2000/svg">
  <defs>
    <radialGradient cx="0" cy="0" gradientTransform="matrix(0.0157, -0.0009, -0.0009, -0.0157, 12.42843, 7.306369)" gradientUnits="userSpaceOnUse" id="gradient0" r="819.2" spreadMethod="pad">
      <stop offset="0" stop-color="#eb84b1"/>
      <stop offset="0.1451" stop-color="#ec8cb6"/>
      <stop offset="0.3686" stop-color="#f0a2c4"/>
      <stop offset="0.6471" stop-color="#f6c7db"/>
      <stop offset="0.9608" stop-color="#fef8fb"/>
      <stop offset="1" stop-color="#ffffff"/>
    </radialGradient>
    <radialGradient cx="0" cy="0" gradientTransform="matrix(0.0157, -0.0009, -0.0009, -0.0157, 68.094505, 22.724493)" gradientUnits="userSpaceOnUse" id="gradient-1" r="819.2" spreadMethod="pad">
      <stop offset="0" stop-color="#eb84b1"/>
      <stop offset="0.1451" stop-color="#ec8cb6"/>
      <stop offset="0.3686" stop-color="#f0a2c4"/>
      <stop offset="0.6471" stop-color="#f6c7db"/>
      <stop offset="0.9608" stop-color="#fef8fb"/>
      <stop offset="1" stop-color="#ffffff"/>
    </radialGradient>
  </defs>
  <g transform="matrix(1, 0, 0, 1, 105.37522888183594, 7.064107894897461)">
    <path d="M67.35 280.0 Q62.2 299.85 63.1 309.95 64.75 329.5 84.8 328.45 L96.4 271.75 Q95.45 270.3 93.85 268.8 90.55 265.8 86.7 265.65 80.25 265.4 76.0 267.6 69.7 270.95 67.35 280.0" fill="#e5dacf" fill-rule="evenodd" stroke="none"/>
    <path d="M163.75 313.75 L170.95 297.6 Q161.1 284.3 145.05 289.0 137.0 291.35 130.95 296.4 L134.6 302.2 Q138.4 308.6 139.1 311.2 140.25 315.4 142.8 330.25 138.55 331.5 135.1 338.35 132.4 343.7 130.55 351.65 128.5 360.45 123.3 375.25 123.15 377.1 123.85 376.25 124.2 375.75 127.3 375.6 L130.45 375.35 154.9 333.25 163.75 313.75" fill="#d98682" fill-rule="evenodd" stroke="none"/>
    <path d="M152.45 199.6 Q151.8 200.55 165.75 199.25 L164.75 195.2 158.8 197.05 Q152.85 199.0 152.45 199.6" fill="#da8295" fill-rule="evenodd" stroke="none"/>
    <path d="M102.95 296.3 L103.55 298.7 Q109.2 302.35 126.6 316.7 L142.8 330.25 Q144.3 333.1 147.7 333.8 151.45 334.5 153.2 331.05 154.8 327.95 154.8 321.75 L154.5 316.15 Q148.45 315.9 141.8 310.65 L136.4 305.45 139.1 311.2 Q138.05 309.8 133.75 307.05 129.55 304.35 124.95 302.15 121.25 300.35 116.7 296.25 L112.9 292.6 108.4 290.05 107.4 294.6 102.95 296.3" fill="#f4c8b0" fill-rule="evenodd" stroke="none"/>
    <path d="M80.55 283.7 Q79.3 287.0 79.15 289.9 81.9 293.85 87.85 295.95 L93.2 297.2 94.1 298.85 Q95.6 300.65 98.85 301.5 102.0 302.35 102.8 299.4 L102.95 296.3 Q107.4 296.05 108.35 293.05 L108.4 290.05 Q107.5 289.7 107.55 288.05 L107.75 286.5 102.1 280.8 Q99.85 278.1 98.1 276.95 93.5 273.8 88.25 275.5 83.0 277.15 80.55 283.7" fill="#ffffff" fill-rule="evenodd" stroke="none"/>
    <path d="M126.0 375.05 Q124.9 375.35 124.3 375.95 L123.1 374.45 125.0 370.6 Q123.1 368.8 120.9 369.2 119.75 369.4 119.05 369.9 116.55 369.05 114.8 371.05 113.9 372.1 113.55 373.3 111.1 373.85 110.85 377.25 L111.1 387.25 Q111.3 392.9 110.4 395.55 109.95 396.9 109.4 397.05 109.65 399.35 111.65 403.15 L113.65 406.5 Q115.45 402.9 121.3 399.6 L126.85 397.05 Q133.3 387.55 134.9 384.15 135.85 382.05 134.95 380.5 L133.85 379.35 Q135.75 376.2 133.7 374.1 L131.3 372.7 130.5 376.25 Q128.2 374.5 126.0 375.05" fill="#ffffff" fill-rule="evenodd" stroke="none"/>
    <path d="M111.6 402.8 Q109.45 398.55 109.0 395.9 L106.8 398.95 Q104.5 403.2 103.75 409.2 L105.7 413.05 Q108.25 417.7 111.3 421.75 121.15 434.55 132.5 436.35 140.35 437.3 145.65 433.1 147.25 431.75 148.45 430.15 L149.3 428.7 Q150.7 424.65 148.7 418.5 144.7 406.2 127.65 396.0 L128.45 396.9 Q129.1 397.7 127.95 397.6 125.55 397.4 122.1 399.0 117.05 401.35 113.65 406.5 L111.6 402.8" fill="#e5617a" fill-rule="evenodd" stroke="none"/>
    <path d="M142.45 409.05 L139.65 405.8 Q132.1 403.2 125.55 408.2 122.3 410.7 120.55 413.7 123.9 417.5 130.45 419.0 137.8 420.65 141.4 416.7 144.65 413.1 142.45 409.05" fill="#ffffff" fill-rule="evenodd" stroke="none"/>
    <path d="M101.6 415.05 L108.9 425.3 Q117.7 436.25 124.95 440.1 135.15 444.55 143.8 440.7 146.55 439.45 148.8 437.55 L150.45 435.9 Q151.2 433.95 150.75 430.0 L150.2 426.4 Q150.2 429.6 147.35 432.65 142.7 437.75 132.5 436.35 122.4 435.05 111.45 421.65 108.05 417.45 104.95 412.55 L102.55 408.5 Q101.2 408.2 101.25 411.6 101.25 413.3 101.6 415.05" fill="#e5dacf" fill-rule="evenodd" stroke="none"/>
    <path d="M73.95 275.7 Q72.75 277.55 69.7 285.7 68.85 288.05 68.1 294.3 67.25 302.15 67.7 308.95 69.1 328.85 81.25 329.15 93.25 329.45 97.3 318.95 98.55 315.7 98.9 311.75 L99.0 308.45 Q101.65 307.25 101.45 304.4 L100.65 301.75 Q98.75 301.5 93.2 297.2 86.15 297.05 81.95 293.45 80.65 292.35 79.8 291.0 L79.15 289.9 Q80.25 283.3 83.0 279.8 85.7 276.35 90.5 275.3 94.45 274.45 98.05 276.8 99.85 277.95 100.85 279.3 97.05 271.95 94.1 270.45 92.05 269.35 84.1 269.15 77.95 269.0 73.95 275.7" fill="#e5617a" fill-rule="evenodd" stroke="none"/>
    <path d="M98.8 310.25 L99.0 308.45 Q88.65 310.1 81.95 305.0 79.9 303.45 78.4 301.35 L77.35 299.6 Q76.7 307.15 79.8 312.4 83.1 317.95 89.65 318.85 95.3 319.7 97.7 314.15 98.45 312.4 98.8 310.25" fill="#ffffff" fill-rule="evenodd" stroke="none"/>
    <path d="M108.8 401.25 L108.1 398.6 Q105.75 399.0 104.55 404.85 103.9 407.75 103.75 410.6 114.1 428.9 125.9 434.4 131.5 437.0 138.15 436.35 139.55 436.2 141.15 434.85 143.05 433.3 143.25 431.4 143.85 426.0 130.8 421.65 118.15 417.4 111.85 407.6 109.9 404.5 108.8 401.25" fill="#b23d6a" fill-rule="evenodd" stroke="none"/>
    <path d="M83.45 291.0 Q81.35 298.5 80.35 304.85 77.2 325.3 86.2 327.4 93.5 329.15 96.9 315.5 97.95 311.25 98.45 305.95 L98.85 301.5 Q96.5 300.05 93.65 297.2 87.95 291.6 85.35 284.85 L83.45 291.0" fill="#b23d6a" fill-rule="evenodd" stroke="none"/>
    <path d="M97.65 308.8 L93.8 309.05 Q87.2 308.65 80.1 303.8 L79.75 306.95 Q79.45 310.5 79.8 312.4 82.45 315.75 86.0 317.5 93.2 321.05 97.85 313.2 L99.0 308.45 97.65 308.8" fill="#cac9d1" fill-rule="evenodd" stroke="none"/>
    <path d="M84.2 288.1 Q83.05 291.6 82.85 293.2 L85.65 295.15 Q89.2 297.1 93.2 297.2 L85.35 284.85 84.2 288.1" fill="#cac9d1" fill-rule="evenodd" stroke="none"/>
    <path d="M210.25 214.8 L208.95 215.5 207.6 216.3 Q199.05 219.5 190.7 221.05 L180.55 222.3 180.5 222.3 179.65 222.35 178.45 220.7 178.45 220.65 177.35 219.05 177.8 218.75 177.5 218.3 177.55 217.9 177.6 217.65 177.6 217.6 177.55 216.95 Q177.4 215.65 176.45 215.25 L175.25 215.1 175.25 215.0 210.3 214.6 210.3 214.75 210.25 214.8" fill="#d98682" fill-rule="evenodd" stroke="none"/>
    <path d="M217.0 193.5 L216.3 193.3 216.55 193.25 Q216.8 193.25 217.0 193.5 M102.15 270.05 L101.35 269.05 Q101.25 267.5 102.55 266.7 103.95 265.8 105.8 266.1 L105.65 266.65 105.6 267.05 105.7 267.25 Q108.75 273.15 112.3 277.65 L115.1 280.75 Q117.8 283.5 120.85 285.55 129.4 291.4 139.45 293.05 L140.65 293.15 145.3 293.6 161.85 292.75 Q172.3 290.75 177.55 288.65 L178.15 288.4 181.95 286.1 Q184.8 283.95 187.4 280.6 190.25 281.3 191.8 283.45 193.9 286.3 191.15 288.1 188.85 289.8 186.4 288.05 L185.45 287.5 185.6 288.85 185.65 290.0 185.65 290.1 185.6 290.75 185.1 292.15 184.1 293.55 182.7 294.55 179.1 294.65 178.2 294.4 177.05 294.0 176.15 293.45 175.2 293.0 Q175.55 294.8 174.85 296.5 174.2 297.8 172.5 298.95 170.85 300.15 168.7 299.5 166.6 298.8 165.55 297.95 L164.1 296.7 163.7 297.15 Q161.95 299.8 159.0 300.75 154.05 301.95 150.5 297.8 L148.7 300.1 Q147.95 301.1 146.8 301.9 145.15 302.9 143.3 302.25 L141.85 301.5 139.55 299.75 Q137.85 298.3 137.25 296.0 136.15 299.0 133.7 299.95 131.3 300.85 129.6 300.4 127.95 299.95 126.6 298.55 124.85 296.6 123.8 294.25 L123.05 294.45 Q118.0 296.35 115.1 291.7 L114.4 290.15 Q114.1 288.65 114.35 287.15 L111.25 287.5 109.05 286.85 Q106.55 285.7 106.25 283.05 106.1 281.4 106.35 279.6 L106.4 279.15 Q104.45 278.7 103.45 278.1 L101.85 276.5 Q101.2 275.4 101.0 273.8 100.8 272.1 102.15 270.05" fill="#ffffff" fill-rule="evenodd" stroke="none"/>
    <path d="M218.35 213.25 L219.4 214.2 Q221.35 215.95 223.0 216.8 226.55 218.8 230.55 218.8 232.35 218.8 234.7 217.95 235.2 217.8 235.75 217.45 L234.15 218.95 234.25 219.15 Q232.65 220.45 230.55 221.0 L224.75 221.2 Q221.8 220.6 219.45 219.1 217.15 217.5 216.1 216.0 L215.0 214.2 214.75 213.8 214.8 213.5 215.0 213.4 215.2 213.3 218.35 213.25 M233.35 212.25 L233.35 211.9 233.45 211.9 233.35 212.25" fill="#e5617a" fill-rule="evenodd" stroke="none"/>
    <path d="M235.75 217.45 Q235.2 217.8 234.7 217.95 232.35 218.8 230.55 218.8 226.55 218.8 223.0 216.8 221.35 215.95 219.4 214.2 L218.35 213.25 237.9 212.9 237.9 213.3 237.8 213.5 237.75 213.65 237.65 213.8 237.6 213.95 Q236.7 216.35 235.75 217.45" fill="#b23d6a" fill-rule="evenodd" stroke="none"/>
    <path d="M126.25 165.85 L126.2 165.6" fill="none" stroke="#000000" stroke-linecap="round" stroke-linejoin="round" stroke-width="1.0"/>
    <path d="M216.3 193.3 L216.55 193.25 Q216.8 193.25 217.0 193.5" fill="none" stroke="#7d9369" stroke-linecap="round" stroke-linejoin="round" stroke-width="0.1"/>
    <path d="M214.75 213.8 L215.0 214.2 216.1 216.0 Q217.15 217.5 219.45 219.1 221.8 220.6 224.75 221.2 L230.55 221.0 Q232.65 220.45 234.25 219.15 L235.3 218.1 235.85 217.4 Q236.85 216.15 237.6 213.95 L237.65 213.8 237.75 213.65 237.8 213.5 237.9 213.3" fill="none" stroke="#771225" stroke-linecap="round" stroke-linejoin="round" stroke-opacity="0.9882353" stroke-width="1.5"/>
    <path d="M155.45 301.9 L155.3 314.55 Q154.8 327.85 152.9 331.05 150.85 333.45 148.3 333.55 145.55 333.65 143.7 331.05 141.8 328.35 126.6 316.0 111.4 303.7 103.3 298.3" fill="none" stroke="#471e02" stroke-linecap="round" stroke-linejoin="round" stroke-width="1.5"/>
    <path d="M133.45 300.45 L135.9 304.65 Q141.05 313.65 143.6 319.4" fill="none" stroke="#471e02" stroke-linecap="round" stroke-linejoin="round" stroke-width="1.5"/>
    <path d="M139.1 311.6 L136.15 308.8 Q132.55 305.75 129.4 304.45 126.2 303.2 119.3 298.1 L113.05 293.2" fill="none" stroke="#471e02" stroke-linecap="round" stroke-linejoin="round" stroke-width="1.5"/>
    <path d="M142.0 329.75 L139.0 332.4 Q135.6 336.05 133.85 340.95 132.95 343.6 129.1 358.0 125.7 370.35 123.7 374.6" fill="none" stroke="#471e02" stroke-linecap="round" stroke-linejoin="round" stroke-width="1.5"/>
    <path d="M126.6 397.75 Q131.8 387.65 134.65 384.2 135.35 382.85 135.3 381.5 135.15 378.9 131.15 379.25 131.35 378.4 131.1 377.5 130.65 375.6 128.3 375.25 125.95 374.9 124.75 376.05 124.15 376.6 124.0 377.3 L123.5 375.45 Q122.6 373.6 120.8 373.8 119.0 373.95 117.8 375.5 117.25 376.25 117.05 376.95 117.05 375.8 116.5 374.8 115.45 372.8 112.75 373.5 110.5 374.1 111.0 382.0 111.65 392.6 110.15 398.05" fill="none" stroke="#a4e2e7" stroke-linecap="round" stroke-linejoin="round" stroke-width="1.5"/>
    <path d="M124.55 370.35 L122.9 369.3 Q121.0 368.5 119.35 370.35 L117.2 370.05 Q114.85 370.2 114.15 372.35" fill="none" stroke="#a4e2e7" stroke-linecap="round" stroke-linejoin="round" stroke-width="1.5"/>
    <path d="M131.45 373.2 L133.8 374.35 Q135.75 376.1 133.75 379.0" fill="none" stroke="#a4e2e7" stroke-linecap="round" stroke-linejoin="round" stroke-width="1.5"/>
    <path d="M127.9 396.25 L135.3 401.3 Q143.4 407.8 147.0 415.15 150.6 422.5 149.85 427.7 149.45 430.3 148.35 431.4 L144.7 433.95 Q140.1 436.55 135.0 436.5 118.7 436.35 103.95 410.3 104.25 407.25 105.15 403.95 107.0 397.35 110.15 395.7" fill="none" stroke="#700d20" stroke-linecap="round" stroke-linejoin="round" stroke-width="1.5"/>
    <path d="M132.25 399.25 L130.85 398.5 Q129.1 397.8 127.05 397.9 120.55 398.15 113.9 406.35" fill="none" stroke="#700d20" stroke-linecap="round" stroke-linejoin="round" stroke-width="1.5"/>
    <path d="M140.4 406.85 L138.75 405.95 Q136.65 405.05 134.4 405.05 127.1 405.0 120.55 414.0" fill="none" stroke="#700d20" stroke-linecap="round" stroke-linejoin="round" stroke-width="1.5"/>
    <path d="M141.0 407.5 L141.7 408.85 Q142.45 410.6 142.65 412.1 143.15 417.15 137.55 419.05 130.45 421.45 121.45 414.8 111.95 407.9 109.4 396.85" fill="none" stroke="#700d20" stroke-linecap="round" stroke-linejoin="round" stroke-width="1.5"/>
    <path d="M150.8 426.4 L151.0 430.35 Q151.0 434.5 150.35 436.0 L148.65 437.5 Q146.4 439.25 143.85 440.4 135.6 444.15 127.05 440.65 118.5 437.1 109.4 425.45 L102.05 414.5 Q101.85 412.65 101.95 411.1 102.1 407.95 103.55 409.25" fill="none" stroke="#700d20" stroke-linecap="round" stroke-linejoin="round" stroke-width="1.5"/>
    <path d="M68.7 292.45 Q70.0 285.35 72.5 279.4 76.2 270.45 80.8 269.5 87.7 268.2 91.55 269.55 97.55 271.65 101.5 280.25 100.85 279.05 99.3 277.75 96.1 275.15 91.05 275.15 85.65 275.15 82.35 280.15 80.05 283.7 78.9 289.2 77.0 298.85 77.6 304.85 78.8 316.85 88.6 318.55 95.3 319.55 97.85 313.35 98.7 311.45 99.0 309.0 L99.1 306.95 99.1 310.25 Q98.9 314.25 97.7 317.6 94.0 328.3 82.45 328.8 70.55 329.3 68.15 313.05 66.7 302.95 68.7 292.45 Z" fill="none" stroke="#700d20" stroke-linecap="round" stroke-linejoin="round" stroke-width="1.5"/>
    <path d="M78.9 289.2 L82.6 293.15 Q87.4 297.1 93.2 297.25" fill="none" stroke="#700d20" stroke-linecap="round" stroke-linejoin="round" stroke-width="1.5"/>
    <path d="M100.7 301.3 L101.05 304.4 Q100.75 307.65 97.75 308.3 93.15 309.35 86.85 307.35 79.5 304.95 77.85 299.7" fill="none" stroke="#700d20" stroke-linecap="round" stroke-linejoin="round" stroke-width="1.5"/>
    <path d="M95.9 271.95 Q95.2 270.65 93.9 269.2 91.25 266.35 88.1 266.05 83.15 265.5 80.2 266.05 74.25 267.15 71.15 271.95 67.35 277.75 65.1 291.2 62.75 305.05 64.35 314.5 65.9 323.4 71.4 326.9 75.85 329.7 82.45 328.8" fill="none" stroke="#700d20" stroke-linecap="round" stroke-linejoin="round" stroke-width="1.5"/>
    <path d="M212.1 49.45 Q207.65 50.1 205.6 53.7 203.7 57.25 195.8 63.95 187.75 66.15 193.6 86.4 196.55 96.45 201.1 106.15 211.2 102.95 210.8 97.35 210.7 95.55 209.55 93.75 L208.4 92.35 Q209.7 91.75 211.25 90.15 214.45 86.95 215.9 81.9 217.4 76.85 215.3 72.85 L212.95 69.9 Q214.05 68.65 215.25 66.3 217.55 61.5 217.65 55.7 217.15 48.75 212.1 49.45" fill="#c7eddd" fill-rule="evenodd" stroke="none"/>
    <path d="M118.1 193.3 L114.95 192.8 Q111.5 192.7 109.4 194.3" fill="none" stroke="#b85514" stroke-linecap="round" stroke-linejoin="round" stroke-width="1.5"/>
    <path d="M87.15 71.6 Q85.35 76.7 85.0 82.25 88.3 103.85 73.4 122.75 70.4 126.55 61.65 135.8 55.2 142.55 53.6 146.1 50.05 153.9 52.1 164.05 53.15 169.1 54.9 172.55 54.4 169.8 55.0 162.05 L55.65 154.85 Q55.95 171.85 61.25 180.1 63.85 184.2 66.45 184.95 63.4 173.7 64.35 164.75 64.65 162.0 65.3 159.75 L65.95 158.15 Q64.65 171.7 68.8 183.25 70.8 189.05 73.15 192.1 L80.35 192.35 Q74.85 178.7 77.45 166.05 78.25 162.05 79.75 158.7 L81.1 156.1 Q77.1 171.55 82.6 185.2 85.3 192.0 88.85 195.75 96.4 198.95 103.15 197.15 105.25 196.6 107.05 195.55 L108.4 194.7 Q110.0 193.1 114.5 192.65 L118.7 192.6 115.3 180.05 Q113.85 151.45 110.9 122.95 104.95 66.0 97.85 63.75 90.8 61.5 87.15 71.6" fill="#debf74" fill-rule="evenodd" stroke="none"/>
    <path d="M199.35 96.6 L195.55 81.1 Q181.9 62.2 174.8 76.0 169.05 87.1 167.8 118.45 166.3 154.35 167.05 197.15 176.85 189.1 182.35 181.0 187.85 172.9 190.15 167.8 L193.45 159.85 Q193.45 177.05 184.7 190.5 180.4 197.25 176.0 200.5 206.55 186.5 204.1 132.4 203.35 115.5 199.35 96.6" fill="#debf74" fill-rule="evenodd" stroke="none"/>
    <path d="M92.1 196.6 L97.35 197.4 Q103.15 197.8 105.85 196.1" fill="none" stroke="#b85514" stroke-linecap="round" stroke-linejoin="round" stroke-width="1.5"/>
    <path d="M201.0 126.85 Q200.5 110.25 197.45 92.05 L194.5 77.25 Q178.15 47.55 141.3 78.6 129.95 88.1 117.25 103.1 110.85 110.55 106.25 116.35 104.95 117.05 103.8 125.4 L102.9 133.6 103.2 147.5 111.35 160.1 138.65 162.9 Q148.15 164.1 161.35 177.9 167.95 184.8 172.65 191.5 178.1 186.2 182.8 173.45 L186.5 161.85 193.45 159.85 Q193.45 177.2 186.15 189.15 183.2 194.05 180.15 196.55 202.75 178.45 201.0 126.85" fill="#c48066" fill-rule="evenodd" stroke="none"/>
    <path d="M160.6 143.3 Q159.85 147.75 158.75 150.55 157.65 153.35 155.75 155.2" fill="none" stroke="#b85514" stroke-linecap="butt" stroke-linejoin="miter-clip" stroke-miterlimit="4.0" stroke-width="1.5"/>
    <path d="M163.8 142.1 Q163.85 144.75 162.1 149.0 160.6 152.55 158.9 155.1" fill="none" stroke="#b85514" stroke-linecap="butt" stroke-linejoin="miter-clip" stroke-miterlimit="4.0" stroke-width="1.5"/>
    <path d="M 132.35 51.7 C 131.95 51.4 129.633 52.967 125.4 56.4 L 118.1 62.4 C 117.433 62.833 116.333 65.6 114.8 70.7 L 112.75 78.2 L 103.55 91.7 C 99.15 90.533 96.283 90.933 94.95 92.9 C 93.983 94.367 93.717 97.183 94.15 101.35 C 94.45 104.35 96.167 106.867 99.3 108.9 C 100.833 109.933 102.333 110.65 103.8 111.05 L 116.65 127.75 C 124.35 133.75 132.367 138.117 140.7 140.85 C 148.7 143.517 156.65 144.55 164.55 143.95 L 171.35 142.95 C 176.55 141.817 179.966 140.175 182.433 138.442 C 185.533 136.242 187.72 133.342 188.787 130.575 C 193.954 117.242 194.471 103.279 191.138 87.646 C 190.471 78.346 186.483 70.817 177.75 64.85 C 175.05 62.983 171.85 61.233 168.15 59.6 L 162.4 57.05 C 161.133 56.283 155.833 55.233 146.5 53.9 L 132.35 51.7" fill="#f4c8b0" fill-rule="evenodd" stroke="none"/>
  </g>
  <g transform="matrix(1, 0, 0, 1, 105.02787780761719, 6.950297832489014)" style="">
    <path d="M109.35 67.35 Q109.7 75.45 114.3 83.45 113.55 93.85 115.0 111.8 115.75 120.8 116.65 127.75 119.05 130.5 128.5 136.45 128.75 150.3 125.7 154.05 124.2 155.95 122.6 155.05 133.0 162.2 139.95 159.3 142.05 158.45 143.65 156.65 L144.75 155.05 Q142.8 154.65 140.45 151.9 138.95 150.15 140.15 145.45 L141.6 141.2 149.9 142.75 Q140.8 140.0 133.95 132.45 127.95 125.7 126.95 119.45 126.25 114.75 127.1 102.6 L128.15 91.35 Q145.15 91.35 191.05 89.75 190.55 79.35 187.2 69.7 L183.95 62.05 Q179.3 59.2 170.3 56.35 152.25 50.75 130.5 50.95 108.75 51.2 109.35 67.35" fill="#d98682" fill-rule="evenodd" stroke="none"/>
    <path d="M164.95 127.6 Q163.5 127.6 161.25 129.1 160.15 129.9 159.35 130.65 L145.3 126.3 Q151.4 128.4 152.5 134.15 153.05 137.05 152.45 139.55 L154.25 139.3 Q155.05 138.05 160.05 132.7 L164.95 127.6" fill="#5e0a0a" fill-rule="evenodd" stroke="none"/>
    <path d="M141.2 88.95 L139.6 88.15 Q132.45 84.7 127.6 89.85 125.15 92.4 124.2 95.65 123.05 98.65 125.05 102.1 126.85 105.2 130.6 107.6 134.45 109.9 138.4 110.4 142.85 110.85 145.95 108.75 150.1 100.8 146.1 94.1 144.8 92.0 142.9 90.25 L141.2 88.95" fill="#ffffff" fill-rule="evenodd" stroke="none" style="">
      <title>eyewhiteL</title>
    </path>
    <g transform="matrix(1, 0, 0, 1, 114.040001, 96.649994)" style="mix-blend-mode: multiply;">
      <title>blush</title>
      <path d="M 25.328 6.556 C 25.528 10.123 24.445 13.223 22.078 15.856 C 19.712 18.523 16.745 19.973 13.178 20.206 C 9.612 20.406 6.512 19.323 3.878 16.956 C 1.212 14.59 -0.222 11.623 -0.422 8.056 C -0.655 4.523 0.412 1.423 2.778 -1.244 C 5.145 -3.91 8.112 -5.344 11.678 -5.544 C 15.212 -5.777 18.312 -4.71 20.978 -2.344 C 23.645 0.023 25.095 2.99 25.328 6.556" fill="url(#gradient0)" fill-rule="evenodd" stroke="none"/>
      <path d="M 80.994 21.975 C 81.194 25.541 80.111 28.641 77.744 31.275 C 75.378 33.941 72.411 35.391 68.844 35.625 C 65.278 35.825 62.178 34.741 59.544 32.375 C 56.878 30.008 55.444 27.041 55.244 23.475 C 55.011 19.941 56.078 16.841 58.444 14.175 C 60.811 11.508 63.778 10.075 67.344 9.875 C 70.878 9.641 73.978 10.708 76.644 13.075 C 79.311 15.441 80.761 18.408 80.994 21.975" fill="url(#gradient-1)" fill-rule="evenodd" stroke="none"/>
    </g>
    <path d="M140.45 102.0 Q142.9 96.85 141.5 92.0 L139.6 88.15 Q132.45 85.2 127.6 90.15 125.15 92.6 124.2 95.65 123.6 104.25 130.5 106.4 L136.1 106.2 Q139.0 105.05 140.45 102.0" fill="#000000" fill-rule="evenodd" stroke="none" style=""/>
    <path d="M173.45 103.2 Q171.25 106.15 170.5 109.9 169.75 113.45 171.85 116.35 173.75 119.0 177.05 120.05 180.4 121.1 183.2 120.0 186.35 118.75 187.5 115.05 189.5 108.65 187.3 104.25 186.6 102.95 185.6 101.9 L184.75 101.2 Q177.8 97.3 173.45 103.2" fill="#ffffff" fill-rule="evenodd" stroke="none" style="">
      <title>eyewhiteR</title>
    </path>
    <path d="M184.35 103.05 L182.75 100.45 Q176.8 97.7 173.25 102.55 171.45 105.0 170.9 107.95 170.2 111.6 171.6 114.05 172.8 116.3 175.25 116.9 177.65 117.5 179.95 116.25 182.4 114.85 183.5 111.9 185.5 106.7 184.35 103.05" fill="#000000" fill-rule="evenodd" stroke="none" style=""/>
    <path d="M152.45 139.55 Q152.8 137.3 152.55 134.7 152.0 129.5 148.65 127.6 145.25 125.7 144.1 123.4 L143.55 121.5 142.0 121.45 Q140.3 121.45 139.1 122.05 135.35 123.85 138.7 130.4 142.05 136.9 147.55 138.9 L151.1 139.6 152.45 139.55" fill="#aa1e1e" fill-rule="evenodd" stroke="none"/>
    <path d="M152.45 139.55 Q152.8 137.3 152.55 134.7 152.0 129.5 148.65 127.6 145.25 125.7 144.1 123.4 L143.55 121.5 142.0 121.45 Q140.3 121.45 139.1 122.05 135.35 123.85 138.7 130.4 142.05 136.9 147.55 138.9 L151.1 139.6 152.45 139.55 Z" fill="none" stroke="#471e02" stroke-linecap="round" stroke-linejoin="round" stroke-width="1.5"/>
    <path d="M161.6 131.15 L164.95 127.6 Q161.65 127.75 155.7 126.0 150.35 124.5 149.15 123.5 148.35 122.9 145.9 122.15 L143.55 121.5 Q145.65 126.7 153.85 129.45 L161.6 131.15" fill="#ffffff" fill-rule="evenodd" stroke="none"/>
    <path d="M114.2 154.9 L112.45 153.35 Q111.1 153.35 109.4 153.9 106.05 154.9 104.0 157.7 102.05 160.5 101.75 165.3 101.65 167.65 101.9 169.45 100.85 169.95 99.9 170.7 98.0 172.2 98.35 173.65 98.8 175.2 100.65 175.85 102.4 176.35 103.15 175.55 103.3 175.4 103.85 177.25 104.55 179.45 105.8 179.95 107.35 180.6 108.55 179.55 L109.5 178.3 110.2 181.2 Q111.25 183.85 112.7 183.2 114.3 182.55 115.3 181.4 L116.0 180.3 116.75 181.35 Q117.95 182.3 119.55 181.75 121.15 181.1 120.95 178.7 L120.45 176.4 Q121.8 175.6 122.15 173.6 123.4 166.3 118.0 159.05 116.35 156.85 114.2 154.9" fill="#fcfdfd" fill-rule="evenodd" stroke="none"/>
    <path d="M114.2 154.9 L112.45 153.35 Q111.1 153.35 109.4 153.9 106.05 154.9 104.0 157.7 102.05 160.5 101.75 165.3 101.65 167.65 101.9 169.45 100.85 169.95 99.9 170.7 98.0 172.2 98.35 173.65 98.8 175.2 100.65 175.85 102.4 176.35 103.15 175.55 103.3 175.4 103.85 177.25 104.55 179.45 105.8 179.95 107.35 180.6 108.55 179.55 L109.5 178.3 110.2 181.2 Q111.25 183.85 112.7 183.2 114.3 182.55 115.3 181.4 L116.0 180.3 116.75 181.35 Q117.95 182.3 119.55 181.75 121.15 181.1 120.95 178.7 L120.45 176.4 Q121.8 175.6 122.15 173.6 123.4 166.3 118.0 159.05 116.35 156.85 114.2 154.9 Z" fill="none" stroke="#95cadd" stroke-linecap="butt" stroke-linejoin="miter-clip" stroke-miterlimit="4.0" stroke-width="1.0"/>
    <path d="M91.9 85.3 L92.5 101.5 Q92.25 119.7 88.1 129.3 86.4 133.15 81.2 140.6 75.85 148.2 73.65 152.85 66.0 169.35 74.2 191.6 L80.35 192.35 Q78.15 188.7 77.15 182.35 75.15 169.6 81.1 156.1 L82.45 154.15 Q84.15 152.0 86.25 150.7 L84.2 157.0 Q82.65 164.85 84.7 172.55 86.8 180.3 89.45 186.2 L91.65 190.6 Q94.5 186.25 97.35 178.7 103.1 163.7 103.25 147.6 L103.6 119.7 103.8 111.05 Q101.7 110.7 99.45 109.15 94.95 106.15 94.5 100.55 94.0 94.55 96.6 92.25 98.9 90.2 100.4 92.05 L98.1 87.15 91.9 85.3" fill="#c48066" fill-rule="evenodd" stroke="none"/>
    <path d="M210.15 62.4 Q207.55 65.9 203.55 69.15 L200.05 71.55 203.35 77.1 Q202.95 78.7 199.7 82.1 L196.55 85.2 200.95 105.6 201.55 105.05 Q209.05 99.45 206.5 96.65 205.7 95.75 204.0 95.25 L202.45 94.95 Q206.0 91.45 209.25 85.8 213.3 79.85 211.2 77.05 210.6 76.2 209.45 75.75 L208.35 75.45 Q214.1 70.15 213.95 63.85 213.95 61.45 212.85 60.9 211.7 60.3 210.15 62.4" fill="#94c0b7" fill-rule="evenodd" stroke="none"/>
    <path d="M195.6 64.1 L199.5 60.8 Q203.85 56.8 206.05 53.4 208.75 49.15 213.0 49.55 217.35 49.95 217.55 54.85 217.75 60.3 215.05 66.2 212.1 72.75 207.3 75.55" fill="none" stroke="#6cb8a5" stroke-linecap="round" stroke-linejoin="round" stroke-width="1.5"/>
    <path d="M212.55 70.55 L214.3 71.25 Q216.1 72.8 216.75 76.8 217.55 81.75 212.95 87.8 208.25 94.0 202.55 95.25" fill="none" stroke="#6cb8a5" stroke-linecap="round" stroke-linejoin="round" stroke-width="1.5"/>
    <path d="M208.8 92.5 L209.6 93.9 Q210.45 95.55 210.4 97.3 210.3 102.75 201.55 106.0" fill="none" stroke="#6cb8a5" stroke-linecap="round" stroke-linejoin="round" stroke-width="1.5"/>
    <path d="M188.35 113.35 Q189.0 110.2 188.45 106.95 187.3 100.45 181.05 99.65 175.55 98.9 172.25 104.25 170.65 106.9 170.05 109.7" fill="none" stroke="#471e02" stroke-linecap="round" stroke-linejoin="round" stroke-width="1.5"/>
    <path d="M148.0 104.2 Q148.6 101.25 147.85 97.75 146.35 90.75 139.75 88.15 132.9 85.45 128.2 89.35 124.75 92.15 124.2 95.95" fill="none" stroke="#471e02" stroke-linecap="round" stroke-linejoin="round" stroke-width="1.5"/>
    <path d="M126.95 106.05 L125.7 105.95 Q124.4 106.05 123.85 107.15" fill="none" stroke="#471e02" stroke-linecap="round" stroke-linejoin="round" stroke-width="1.5"/>
    <path d="M125.55 102.85 L124.25 102.5 Q122.7 102.45 121.4 103.85" fill="none" stroke="#471e02" stroke-linecap="round" stroke-linejoin="round" stroke-width="1.5"/>
    <path d="M123.75 99.65 L122.45 99.0 Q120.9 98.65 119.15 99.65" fill="none" stroke="#471e02" stroke-linecap="round" stroke-linejoin="round" stroke-width="1.5"/>
    <path d="M139.75 88.15 L141.7 92.25 Q143.1 97.4 140.25 102.85 138.6 105.95 135.3 106.75 132.25 107.45 129.3 106.0 126.25 104.4 125.1 101.35 123.8 97.9 125.55 93.65 126.25 91.3 128.35 89.4 132.6 85.6 139.75 88.15 Z" fill="none" stroke="#471e02" stroke-linecap="round" stroke-linejoin="round" stroke-width="1.5"/>
    <path d="M178.65 99.8 L181.95 100.1 183.35 100.55 184.6 103.35 Q185.35 107.1 183.35 112.0 182.2 114.8 179.7 116.05 177.35 117.1 175.0 116.4 172.55 115.6 171.5 113.3 170.35 110.7 171.45 106.95 173.45 100.4 178.65 99.8 Z" fill="none" stroke="#471e02" stroke-linecap="round" stroke-linejoin="round" stroke-width="1.5"/>
    <path d="M182.55 119.85 L183.6 120.9 Q184.6 122.3 184.15 123.7" fill="none" stroke="#471e02" stroke-linecap="round" stroke-linejoin="round" stroke-width="1.5"/>
    <path d="M185.2 118.25 L186.4 119.0 Q187.6 119.85 187.5 120.7" fill="none" stroke="#471e02" stroke-linecap="round" stroke-linejoin="round" stroke-width="1.5"/>
    <path d="M162.45 127.75 Q157.5 127.5 151.45 124.4 143.95 120.6 140.3 121.75 136.4 122.95 138.4 129.1 140.25 134.9 146.0 137.95 151.05 140.5 154.35 139.3 155.5 137.65 157.6 135.4 161.7 130.75 166.2 127.4 L162.45 127.75 Z" fill="none" stroke="#471e02" stroke-linecap="round" stroke-linejoin="round" stroke-width="1.5"/>
    <path d="M143.8 121.7 L144.4 123.35 Q145.25 125.25 146.55 126.05 149.85 128.3 151.15 128.85 155.1 130.75 160.75 131.15" fill="none" stroke="#471e02" stroke-linecap="round" stroke-linejoin="round" stroke-width="1.5"/>
    <path d="M152.65 138.95 Q152.95 136.85 152.6 134.3 151.85 129.2 148.25 127.1" fill="none" stroke="#471e02" stroke-linecap="round" stroke-linejoin="round" stroke-width="1.5"/>
    <path d="M194.8 155.75 Q192.5 164.45 186.7 174.45 181.55 183.2 176.3 188.85" fill="none" stroke="#b85514" stroke-linecap="butt" stroke-linejoin="miter-clip" stroke-miterlimit="4.0" stroke-width="1.5"/>
    <path d="M183.05 145.45 Q182.2 155.65 179.35 165.25 176.5 174.8 172.45 180.9" fill="none" stroke="#b85514" stroke-linecap="butt" stroke-linejoin="miter-clip" stroke-miterlimit="4.0" stroke-width="1.5"/>
    <path d="M184.25 142.2 L178.25 155.15 Q173.5 164.55 169.15 167.05" fill="none" stroke="#b85514" stroke-linecap="butt" stroke-linejoin="miter-clip" stroke-miterlimit="4.0" stroke-width="1.5"/>
    <path d="M195.75 82.5 L199.65 101.6 Q203.7 122.8 204.15 133.2 204.7 142.85 203.7 154.55 199.9 190.0 176.65 199.9 180.5 197.45 184.55 191.3 192.7 178.95 193.7 160.3" fill="none" stroke="#b85514" stroke-linecap="round" stroke-linejoin="round" stroke-width="1.5"/>
    <path d="M191.4 88.1 L192.1 92.6 Q192.85 98.2 193.1 103.55 193.9 120.8 189.35 129.9 186.1 136.4 179.05 140.25 175.5 142.25 172.65 142.85 160.8 146.15 146.05 142.4 130.6 138.55 116.45 128.05" fill="none" stroke="#471e02" stroke-linecap="round" stroke-linejoin="round" stroke-width="1.5"/>
    <path d="M128.75 136.0 L128.3 142.75 Q127.7 149.9 126.75 151.8 125.75 153.7 124.4 154.2 L123.15 154.35" fill="none" stroke="#471e02" stroke-linecap="round" stroke-linejoin="round" stroke-width="1.5"/>
    <path d="M141.5 142.1 L140.55 146.15 Q139.65 150.3 140.0 151.25 140.5 152.8 144.55 154.85" fill="none" stroke="#471e02" stroke-linecap="round" stroke-linejoin="round" stroke-width="1.5"/>
    <path d="M159.65 175.2 L160.4 173.35 Q161.9 170.55 164.95 170.55 166.4 170.55 168.3 171.85 169.85 172.95 170.35 174.15 L170.35 174.2 170.6 174.8 171.45 177.55 172.15 179.4 172.3 179.95 177.2 191.85 Q174.75 192.7 171.15 196.3 169.15 198.35 167.9 199.9 L162.55 188.1 162.4 187.85 162.55 186.05 162.6 184.55 162.55 181.35 162.15 179.55 161.25 177.75 160.7 176.9 160.2 176.0 159.65 175.2" fill="#f4c8b0" fill-rule="evenodd" stroke="none"/>
    <path d="M177.2 191.85 L179.35 196.6 181.05 200.0 182.35 202.5 183.0 203.6 183.2 204.9 183.3 205.6 183.3 205.65 183.4 206.4 171.3 206.9 171.25 206.2 170.95 205.95 168.05 200.3 167.9 199.9 Q169.15 198.35 171.15 196.3 174.75 192.7 177.2 191.85" fill="#d98682" fill-rule="evenodd" stroke="none"/>
    <path d="M159.65 175.2 L160.4 173.35 Q161.9 170.55 164.95 170.55 166.4 170.55 168.3 171.85 169.85 172.95 170.35 174.15 L170.35 174.2 170.6 174.8 171.45 177.55 172.15 179.4 172.3 179.95 177.2 191.85 179.35 196.6 181.05 200.0 182.35 202.5 183.0 203.6 183.75 204.9 184.25 205.65 184.65 206.3 M167.9 199.9 L162.55 188.1 162.4 187.85 M167.9 199.9 L168.05 200.3 170.95 205.95" fill="none" stroke="#471e02" stroke-linecap="round" stroke-linejoin="round" stroke-opacity="0.9882353" stroke-width="1.5"/>
    <path d="M171.0 160.1 L168.5 156.7 Q165.4 153.05 162.15 152.1 L155.5 152.4 152.85 153.9 151.95 155.7 Q151.0 158.05 150.6 160.35 149.5 167.85 154.95 172.9 156.45 174.25 157.75 174.9 L158.95 177.2 Q160.4 179.35 162.1 178.9 163.75 178.45 163.9 176.85 L163.7 175.4 164.9 176.2 168.05 176.35 Q169.6 175.9 170.2 173.8 L170.45 171.75 171.9 172.1 Q173.55 172.2 174.4 170.75 175.05 169.6 174.25 167.5 173.55 165.65 173.8 165.7 174.8 165.85 175.9 164.35 177.0 162.75 176.4 161.2 175.8 159.9 173.35 159.85 L171.0 160.1" fill="#fcfdfd" fill-rule="evenodd" stroke="none"/>
    <path d="M171.0 160.1 L173.35 159.85 Q175.8 159.9 176.4 161.2 177.0 162.75 175.9 164.35 174.8 165.85 173.8 165.7 173.55 165.65 174.25 167.5 175.05 169.6 174.4 170.75 173.55 172.2 171.9 172.1 L170.45 171.75 170.2 173.8 Q169.6 175.9 168.05 176.35 L164.9 176.2 163.7 175.4 163.9 176.85 Q163.75 178.45 162.1 178.9 160.4 179.35 158.95 177.2 L157.75 174.9 Q156.45 174.25 154.95 172.9 149.5 167.85 150.6 160.35 151.0 158.05 151.95 155.7 L152.85 153.9 155.5 152.4 162.15 152.1 Q165.4 153.05 168.5 156.7 L171.0 160.1 Z" fill="none" stroke="#95cadd" stroke-linecap="butt" stroke-linejoin="miter-clip" stroke-miterlimit="4.0" stroke-width="1.0"/>
    <path d="M117.7 152.2 L120.5 151.95 122.05 152.25 123.5 156.6 123.5 156.75 123.5 156.8 123.55 156.85 123.55 156.9 124.1 160.0 124.4 162.2 124.65 164.3 125.2 169.7 125.25 170.8 125.3 178.35 Q125.3 183.2 123.55 192.05 L122.65 196.1 121.2 202.9 119.85 195.35 Q118.7 189.9 117.0 184.15 L116.9 183.85 116.8 183.7 116.8 183.65 116.5 182.85 115.7 180.3 115.6 180.0 115.3 179.25 115.15 178.75 115.1 178.6 Q116.15 174.4 116.8 169.7 L117.45 162.35 117.45 162.2 117.7 155.55 117.7 152.25 117.7 152.2 M124.9 213.1 L127.6 210.55 131.7 206.25 128.2 211.9 127.45 212.85 124.9 213.1 M112.3 277.7 L118.65 265.6 115.1 280.8 112.3 277.7 M139.45 293.0 L142.5 265.6 145.35 293.6 140.1 293.1 139.45 293.0 M178.05 287.95 L176.0 272.2 181.75 285.6 178.05 287.95" fill="#da8295" fill-rule="evenodd" stroke="none"/>
    <path d="M121.2 202.9 L122.65 196.1 123.55 192.05 Q125.3 183.2 125.3 178.35 L125.25 170.8 125.2 169.7 124.65 164.3 124.4 162.2 124.1 160.0 123.55 156.9 123.55 156.85 124.55 159.85 125.2 162.2 125.25 162.35 125.75 164.15 125.8 164.3 126.2 165.6 126.25 165.85 127.2 169.35 127.3 169.7 128.25 173.15 Q137.6 174.0 147.9 169.8 L147.9 169.7 147.6 165.9 147.4 164.6 147.35 164.3 147.0 162.65 147.0 162.5 146.95 162.35 146.95 162.2 146.85 161.8 146.05 158.3 146.05 158.25 145.9 157.55 144.45 151.8 148.85 150.95 Q153.5 150.3 154.2 151.75 155.05 153.1 155.3 159.55 L155.3 159.9 155.3 160.15 155.4 161.65 155.4 162.2 155.4 162.35 155.5 164.3 156.1 169.3 156.25 169.5 156.25 169.55 156.35 169.7 156.4 169.75 159.65 175.2 160.2 176.0 160.7 176.9 161.25 177.75 162.15 179.55 162.55 181.35 162.6 184.55 162.55 186.05 162.4 187.85 162.4 188.1 162.35 188.6 162.3 189.25 162.2 190.1 Q162.0 191.75 162.25 194.4 L162.55 196.15 163.15 199.05 Q163.95 199.15 164.25 199.4 L164.6 199.9 164.75 201.1 164.75 201.25 164.2 203.05 164.85 205.65 165.3 207.1 158.9 207.4 157.95 207.4 158.05 207.75 158.45 208.75 157.75 208.95 157.85 209.25 Q157.25 209.95 156.7 211.45 L156.55 211.85 156.25 212.7 156.1 213.15 Q157.25 215.45 159.0 216.8 161.85 219.1 166.8 219.1 171.5 219.1 173.85 218.1 175.2 217.6 176.45 216.55 L176.45 216.5 176.55 216.45 Q176.65 216.35 176.7 216.35 L177.65 215.55 177.6 216.0 177.45 216.7 176.6 218.65 176.5 218.8 174.8 220.55 173.85 221.2 171.1 222.8 170.35 223.1 171.2 225.45 172.05 227.85 172.5 229.1 174.85 235.9 174.9 236.15 175.2 236.95 176.0 239.2 176.1 239.5 176.7 241.3 177.15 242.6 178.1 245.55 179.85 251.15 180.7 254.35 181.85 258.25 182.9 262.1 183.75 265.75 185.2 271.45 185.9 274.3 187.45 280.65 Q184.8 283.5 181.75 285.6 L176.0 272.2 178.05 287.95 174.65 289.55 172.55 290.35 161.9 292.75 150.1 293.85 145.35 293.6 142.5 265.6 139.45 293.0 138.7 292.9 136.85 292.55 Q128.3 290.65 120.85 285.6 117.8 283.55 115.1 280.8 L118.65 265.6 112.3 277.7 Q110.1 274.85 108.05 271.45 L105.75 267.3 105.65 267.1 105.75 266.95 Q105.65 266.9 105.7 266.65 L105.85 266.1 107.95 262.1 110.15 258.35 111.45 256.0 112.2 254.35 Q114.4 249.85 117.05 242.6 L119.15 236.6 119.5 235.7 119.65 235.2 120.35 232.95 120.45 232.7 Q121.8 228.6 122.4 225.7 L122.5 224.65 122.5 224.55 122.5 223.5 122.65 224.5 123.2 224.45 123.55 224.4 132.2 222.8 Q131.6 220.7 131.7 219.95 L131.65 215.5 Q131.65 213.8 131.8 212.5 L128.25 212.8 127.45 212.85 128.2 211.9 131.7 206.25 127.6 210.55 124.9 213.1 123.55 213.15 121.35 213.2 Q121.15 211.9 121.4 210.3 L121.7 207.05 121.4 204.2 121.3 203.55 121.2 202.9 M142.65 223.35 L142.4 223.45 142.6 223.5 142.75 223.55 142.65 223.35" fill="#ffd1db" fill-rule="evenodd" stroke="none"/>
    <path d="M146.05 158.25 L146.05 158.3 146.85 161.8 146.95 162.2 146.95 162.35 147.0 162.5 147.0 162.65 147.35 164.3 147.4 164.6 147.6 165.9 147.9 169.7 147.9 169.8 Q137.6 174.0 128.25 173.15 L127.3 169.7 127.2 169.35 126.25 165.85 126.2 165.6 125.8 164.3 125.75 164.15 125.25 162.35 125.2 162.2 124.55 159.85 Q137.15 163.8 146.05 158.25 M129.8 164.6 Q130.0 165.35 131.0 165.95 132.05 166.65 132.95 166.65 133.95 166.65 135.0 166.1 136.15 165.4 136.15 164.3 L136.15 164.25 136.2 164.3 Q137.6 166.1 139.95 166.1 141.1 166.1 142.05 165.25 L142.75 164.3 143.15 162.95 142.75 164.3 142.05 165.25 Q141.1 166.1 139.95 166.1 137.6 166.1 136.2 164.3 L136.15 164.25 136.15 164.3 Q136.15 165.4 135.0 166.1 133.95 166.65 132.95 166.65 132.05 166.65 131.0 165.95 130.0 165.35 129.8 164.6" fill="#ffffff" fill-rule="evenodd" stroke="none"/>
    <path d="M121.2 202.9 L121.3 203.55 121.15 204.15 121.1 204.2 Q120.85 204.95 121.2 202.9 M138.7 292.9 L139.45 293.0 139.45 293.05 138.7 292.9 M145.35 293.6 L150.1 293.85 145.35 293.65 145.35 293.6 M172.55 290.35 L174.65 289.55 178.05 287.95 178.15 288.45 177.6 288.7 172.55 290.35 M181.75 285.6 Q184.8 283.5 187.45 280.65 184.85 283.95 182.0 286.15 L181.75 285.6 M167.15 213.1 L166.2 213.4 166.2 212.8 167.1 212.8 167.2 213.1 167.15 213.1" fill="#bfdbaa" fill-rule="evenodd" stroke="none"/>
    <path d="M158.05 207.75 L157.95 207.4 158.9 207.4 158.05 207.75" fill="#623333" fill-rule="evenodd" stroke="none"/>
    <path d="M173.3 206.8 L173.35 206.85 172.85 206.8 173.3 206.8" fill="#f4c8b0" fill-rule="evenodd" stroke="none"/>
    <path d="M182.0 286.15 L178.15 288.45 178.05 287.95 181.75 285.6 182.0 286.15 M145.35 293.65 L140.7 293.2 139.45 293.05 139.45 293.0 140.1 293.1 145.35 293.6 145.35 293.65" fill="#7d9369" fill-rule="evenodd" stroke="none"/>
    <path d="M122.05 152.25 L120.5 151.95 117.7 152.2 M115.6 180.0 L115.7 180.3 116.5 182.85 116.8 183.65 116.8 183.7 116.9 183.85 117.0 184.15 Q118.7 189.9 119.85 195.35 L121.2 202.9 121.3 203.55 121.4 204.2 121.7 207.05 121.4 210.3 Q121.15 211.9 121.35 213.2 M122.4 225.7 Q121.8 228.6 120.45 232.7 L120.35 232.95 119.65 235.2 119.5 235.7 119.15 236.6 117.05 242.6 Q114.4 249.85 112.2 254.35 L111.45 256.0 110.15 258.35 107.95 262.1 105.85 266.1 Q104.0 265.8 102.55 266.7 101.3 267.55 101.4 269.05 L102.15 270.1 101.4 271.45 Q100.9 272.75 101.05 273.8 101.25 275.45 101.85 276.5 102.55 277.5 103.5 278.15 104.45 278.7 106.45 279.15 L106.4 279.6 Q106.15 281.4 106.3 283.1 106.6 285.75 109.1 286.85 110.2 287.4 111.3 287.5 L114.4 287.15 Q114.15 288.7 114.45 290.15 L115.1 291.75 Q118.0 296.4 123.05 294.45 L123.8 294.3 Q124.9 296.65 126.65 298.6 127.95 299.95 129.65 300.4 131.3 300.85 133.7 299.95 136.15 299.05 137.3 296.05 137.9 298.3 139.55 299.75 L140.8 300.8 141.85 301.55 143.35 302.25 Q145.2 302.9 146.8 301.95 L148.2 300.8 148.75 300.1 150.55 297.8 Q152.55 300.15 155.0 300.8 156.75 301.25 158.8 300.8 L159.05 300.75 Q161.95 299.8 163.75 297.15 L164.15 296.75 165.55 297.95 Q166.65 298.85 168.7 299.55 170.85 300.15 172.5 299.0 174.25 297.8 174.9 296.55 175.55 294.8 175.2 293.0 L176.15 293.5 177.1 294.05 178.2 294.4 179.1 294.65 182.75 294.55 184.1 293.6 185.15 292.15 185.65 290.8 185.65 290.1 185.65 290.0 185.65 288.9 185.5 287.5 186.4 288.1 Q188.85 289.8 191.15 288.15 193.9 286.35 191.8 283.5 190.3 281.3 187.45 280.65 L185.9 274.3 185.2 271.45 183.75 265.75 182.9 262.1 181.85 258.25 180.7 254.35 179.85 251.15 178.1 245.55 177.15 242.6 176.7 241.3 176.1 239.5 176.0 239.2 175.2 236.95 175.1 236.6 174.9 236.15 M105.65 267.1 L105.75 267.3 108.05 271.45 Q110.1 274.85 112.3 277.7 L115.1 280.8 Q117.8 283.55 120.85 285.6 128.3 290.65 136.85 292.55 L138.7 292.9 M145.35 293.6 L150.1 293.85 158.9 293.4 Q166.3 292.6 172.55 290.35 L174.65 289.55 178.05 287.95 181.75 285.6 Q184.8 283.5 187.45 280.65 M174.85 235.9 L172.5 229.1 172.05 227.85 171.2 225.45 170.35 223.1 M155.4 161.65 L155.3 160.15 155.3 159.9 155.3 159.55 Q155.05 153.1 154.2 151.75 153.5 150.3 148.85 150.95 L144.45 151.8 145.9 157.55 146.05 158.25 M145.35 293.6 L140.1 293.1 139.45 293.0" fill="none" stroke="#a05263" stroke-linecap="round" stroke-linejoin="round" stroke-width="1.5"/>
    <path d="M123.5 156.8 L123.5 156.75 123.5 156.6 M105.85 266.1 L105.7 266.65 Q105.65 266.9 105.75 266.95 L105.65 267.1 Q105.55 266.9 105.7 266.65 M138.7 292.9 L139.45 293.0 M165.3 207.1 L164.85 205.65 164.2 203.05" fill="none" stroke="#7d9369" stroke-linecap="round" stroke-linejoin="round" stroke-width="1.5"/>
    <path d="M146.05 158.25 Q137.15 163.8 124.55 159.85 M143.15 162.95 L142.75 164.3 142.05 165.25 Q141.1 166.1 139.95 166.1 137.6 166.1 136.2 164.3 L136.15 164.25 136.15 164.3 Q136.15 165.4 135.0 166.1 133.95 166.65 132.95 166.65 132.05 166.65 131.0 165.95 130.0 165.35 129.8 164.6" fill="none" stroke="#95cadd" stroke-linecap="round" stroke-linejoin="round" stroke-width="1.5"/>
    <path d="M158.9 207.4 L158.05 207.75 M156.55 211.85 L157.35 212.2" fill="none" stroke="#771225" stroke-linecap="round" stroke-linejoin="round" stroke-opacity="0.9882353" stroke-width="0.1"/>
    <path d="M177.65 215.55 L177.7 215.35" fill="none" stroke="#771225" stroke-linecap="round" stroke-linejoin="round" stroke-opacity="0.9882353" stroke-width="1.5"/>
    <path d="M172.2 237.9 L173.15 237.75 173.35 238.75 M169.3 238.3 L170.25 238.2 M166.35 238.7 L167.3 238.6 M173.8 240.65 L174.0 241.6 M166.3 252.4 L166.0 251.45 M174.45 243.5 L174.65 244.45 M175.0 246.45 L175.15 247.4 M175.35 249.4 L175.45 250.35 M175.6 252.25 L175.6 253.3 M175.55 254.35 L175.4 255.25 M174.85 257.05 L174.3 257.8 M172.65 258.85 L171.65 259.05 M171.4 259.05 L170.45 258.85 M168.9 257.65 L168.3 256.9 M167.35 255.15 L167.0 254.35 M163.6 240.25 L163.4 239.25 164.4 239.0 M165.4 249.45 L165.3 249.1 165.1 248.1 M164.2 243.2 L164.0 242.2 M164.7 246.15 L164.55 245.15" fill="none" stroke="#a05263" stroke-linecap="round" stroke-linejoin="round" stroke-width="1.5"/>
    <path d="M140.8 174.15 Q136.45 174.0 131.9 176.95 126.65 180.25 130.85 184.0 135.1 187.75 141.1 174.75" fill="none" stroke="#e84fa1" stroke-linecap="round" stroke-linejoin="round" stroke-width="2.0"/>
    <path d="M141.1 173.75 Q144.25 172.65 149.5 174.45 155.4 176.5 153.2 180.45 151.05 184.3 146.35 180.3 141.5 175.15 140.25 174.55" fill="none" stroke="#e84fa1" stroke-linecap="round" stroke-linejoin="round" stroke-width="2.0"/>
    <path d="M140.45 173.8 Q141.9 179.95 140.4 188.5 138.95 196.75 135.6 202.35" fill="none" stroke="#e84fa1" stroke-linecap="round" stroke-linejoin="round" stroke-width="2.0"/>
    <path d="M141.0 174.95 Q144.0 178.5 145.85 184.9 147.75 191.1 147.5 196.15" fill="none" stroke="#e84fa1" stroke-linecap="round" stroke-linejoin="round" stroke-width="2.0"/>
    <path d="M130.4 242.65 Q130.45 244.85 133.45 246.25 136.35 247.5 137.1 246.65 137.65 245.9 137.75 243.5 137.8 241.0 137.1 240.8 136.4 240.6 133.35 241.6 L130.4 242.65" fill="#ffffff" fill-rule="evenodd" stroke="none"/>
    <path d="M130.4 242.65 L133.35 241.6 Q136.4 240.6 137.1 240.8 137.8 241.0 137.75 243.5 137.65 245.9 137.1 246.65 136.35 247.5 133.45 246.25 130.45 244.85 130.4 242.65 Z" fill="none" stroke="#a05263" stroke-linecap="round" stroke-linejoin="round" stroke-width="1.5"/>
    <path d="M130.55 242.65 Q125.65 239.0 124.6 239.0 123.85 239.0 123.25 241.45 122.6 243.85 122.95 244.65 123.4 245.6 126.45 245.15 129.7 244.65 130.55 242.65" fill="#ffffff" fill-rule="evenodd" stroke="none"/>
    <path d="M130.55 242.65 Q125.65 239.0 124.6 239.0 123.85 239.0 123.25 241.45 122.6 243.85 122.95 244.65 123.4 245.6 126.45 245.15 129.7 244.65 130.55 242.65 Z" fill="none" stroke="#a05263" stroke-linecap="round" stroke-linejoin="round" stroke-width="1.5"/>
    <path d="M129.7 242.7 L127.2 241.7 Q125.25 241.0 125.3 241.9 125.35 242.95 126.25 242.9 L127.6 242.65 129.75 242.85 129.7 242.7" fill="#da8295" fill-rule="evenodd" stroke="none"/>
    <path d="M132.8 243.9 L134.95 244.15 Q135.35 243.7 135.1 243.2 L134.55 242.75 132.8 242.75 131.05 242.9 Q131.4 243.6 132.8 243.9" fill="#da8295" fill-rule="evenodd" stroke="none"/>
    <path d="M146.7 162.95 L145.9 163.5 145.05 163.55 144.1 163.3 143.4 162.95" fill="none" stroke="#95cadd" stroke-linecap="round" stroke-linejoin="round" stroke-width="1.5"/>
    <path d="M129.55 164.35 Q128.7 165.75 127.15 166.05" fill="none" stroke="#95cadd" stroke-linecap="round" stroke-linejoin="round" stroke-width="1.5"/>
    <path d="M169.3 242.5 Q169.8 244.6 172.45 245.15 175.0 245.6 175.35 244.65 175.65 243.8 175.25 241.4 174.7 238.95 174.15 239.0 173.6 238.95 171.4 240.7 L169.3 242.5" fill="#ffffff" fill-rule="evenodd" stroke="none"/>
    <path d="M169.3 242.5 L171.4 240.7 Q173.6 238.95 174.15 239.0 174.7 238.95 175.25 241.4 175.65 243.8 175.35 244.65 175.0 245.6 172.45 245.15 169.8 244.6 169.3 242.5 Z" fill="none" stroke="#a05263" stroke-linecap="round" stroke-linejoin="round" stroke-width="1.5"/>
    <path d="M169.4 242.45 Q164.75 240.2 163.9 240.45 163.3 240.65 163.35 243.15 163.35 245.65 163.85 246.35 164.35 247.15 166.65 245.95 169.15 244.6 169.4 242.45" fill="#ffffff" fill-rule="evenodd" stroke="none"/>
    <path d="M169.4 242.45 Q164.75 240.2 163.9 240.45 163.3 240.65 163.35 243.15 163.35 245.65 163.85 246.35 164.35 247.15 166.65 245.95 169.15 244.6 169.4 242.45 Z" fill="none" stroke="#a05263" stroke-linecap="round" stroke-linejoin="round" stroke-width="1.5"/>
    <path d="M168.75 242.75 L166.5 242.4 Q164.85 242.2 165.1 243.05 165.35 244.1 166.05 243.85 L167.1 243.25 168.75 242.9 168.75 242.75" fill="#da8295" fill-rule="evenodd" stroke="none"/>
    <path d="M169.85 242.6 Q170.2 243.15 171.45 243.1 173.0 243.15 173.15 242.75 173.4 242.25 173.1 241.85 172.85 241.55 172.55 241.55 172.1 241.6 171.2 242.0 L169.85 242.6" fill="#da8295" fill-rule="evenodd" stroke="none"/>
    <path d="M146.05 158.15 L147.25 163.55" fill="none" stroke="#a05263" stroke-linecap="round" stroke-linejoin="round" stroke-width="1.5"/>
    <path d="M124.55 159.85 L125.2 162.2 125.25 162.35 125.75 164.15 125.8 164.3 126.2 165.6 M126.25 165.85 L127.2 169.35 127.3 169.7 128.25 173.15 Q137.6 174.0 147.9 169.8 L147.9 169.7 147.6 165.9 147.4 164.6 147.35 164.3 147.0 162.65 M155.4 162.35 L155.5 164.3 156.1 169.3 156.25 169.5 156.25 169.55 161.15 177.15 Q162.55 179.4 162.6 181.55 L162.6 186.05 162.3 188.6 Q162.0 190.95 162.15 193.2 162.4 196.2 163.15 199.05" fill="none" stroke="#a05263" stroke-linecap="round" stroke-linejoin="round" stroke-width="1.5"/>
    <path d="M139.1 241.05 L139.0 242.0 M137.85 240.85 L138.8 241.05 M132.0 239.75 L133.0 239.95 M129.05 239.25 L130.05 239.45 M126.1 238.75 L127.1 238.95 M136.7 252.7 L136.35 253.55 M138.7 244.0 L138.5 244.95 M138.2 246.95 L138.0 247.9 M137.55 249.85 L137.3 250.8 M134.95 240.25 L135.9 240.45 M135.5 255.35 L134.9 256.2 M134.35 256.85 L133.65 257.5 M132.05 258.5 L131.15 258.85 M129.2 259.1 L128.2 259.05 M122.05 251.7 L122.0 250.7 M122.55 254.7 L122.35 253.65 M123.9 257.15 L123.35 256.35 M123.15 238.25 L124.15 238.45 M122.95 239.7 L123.05 238.75 M122.55 242.6 L122.65 241.65 M122.3 245.55 L122.4 244.55 M122.0 248.5 L122.1 247.5 M126.25 258.65 L125.4 258.3" fill="none" stroke="#a05263" stroke-linecap="round" stroke-linejoin="round" stroke-width="1.5"/>
    <path d="M123.55 156.85 L124.55 159.85 M123.3 156.1 L122.05 152.25" fill="none" stroke="#a05263" stroke-linecap="round" stroke-linejoin="round" stroke-width="1.5"/>
    <path d="M122.25 224.6 L119.85 224.9 Q110.25 226.0 101.8 224.75 102.2 206.2 103.5 194.75 L105.5 175.35 Q106.3 167.45 106.9 171.5 107.65 175.55 110.45 175.7 L117.55 176.75 116.9 177.55 117.25 177.9 117.2 179.05 117.15 180.15 116.85 184.2 113.85 212.7 114.75 212.8 119.85 213.2 121.35 213.2 123.55 213.15 124.9 213.1 127.45 212.85 128.25 212.8 140.15 210.85 140.8 210.7 141.35 210.6 140.9 210.75 Q141.95 211.1 142.85 212.35 143.9 213.9 143.9 215.4 143.9 217.65 143.2 219.55 L136.1 221.5 123.55 224.4 123.2 224.45 122.65 224.5 122.5 223.5 122.25 224.6 M108.45 215.35 Q109.1 214.1 111.95 212.7 L113.85 212.7 111.95 212.7 Q109.1 214.1 108.45 215.35 M117.25 177.9 L117.2 179.05 117.25 177.9" fill="#f4c8b0" fill-rule="evenodd" stroke="none"/>
    <path d="M117.55 176.75 L110.45 175.7 Q107.65 175.55 106.9 171.5 106.3 167.45 105.5 175.35 L103.5 194.75 Q102.2 206.2 101.8 224.75 110.25 226.0 119.85 224.9 L122.25 224.6 122.5 224.55 122.65 224.5 123.2 224.45 123.55 224.4 136.1 221.5 143.2 219.55 M141.35 210.6 L140.8 210.7 M140.15 210.85 L128.25 212.8 127.45 212.85 124.9 213.1 123.55 213.15 121.35 213.2 119.85 213.2 114.75 212.8 113.85 212.7 111.95 212.7 Q109.1 214.1 108.45 215.35 M113.85 212.7 L116.85 184.2 117.15 180.15 117.2 179.05 117.25 177.9 117.2 179.05" fill="none" stroke="#471e02" stroke-linecap="round" stroke-linejoin="round" stroke-opacity="0.9882353" stroke-width="1.5"/>
    <path d="M156.5 210.05 L156.35 210.05 Q155.1 211.9 155.1 213.5 155.1 216.35 157.35 218.05 159.45 219.7 162.85 219.7 L165.8 219.5 168.95 218.9 Q169.4 218.8 170.3 218.1 L169.5 216.7 169.25 211.4 169.75 211.55 169.85 211.55 Q173.15 212.4 174.5 213.3 L175.45 214.1 Q176.55 215.2 177.05 216.8 L177.2 217.4 176.6 218.65 176.5 218.8 174.8 220.55 173.85 221.2 171.1 222.8 170.35 223.1 Q166.15 225.0 161.25 224.95 156.3 224.9 152.75 223.25 150.65 222.2 148.45 220.05 L147.55 218.2 Q146.95 216.65 146.7 215.45 146.0 212.3 146.0 210.15 146.1 208.95 146.5 207.55 L146.75 206.95 Q147.2 205.8 148.1 204.6 150.4 201.45 154.15 200.15 158.05 198.85 160.85 199.05 L164.3 199.55 164.6 199.9 164.75 201.1 164.75 201.25 164.45 202.6 164.2 203.05 163.3 204.35 162.55 205.15 161.4 206.05 161.25 206.1 160.7 206.5 159.5 207.05 158.85 207.4 158.25 207.6 158.15 207.65 158.25 207.6 158.2 207.65 158.15 207.65 158.1 207.75 158.15 207.8 Q157.1 208.2 156.7 208.95 L156.5 209.8 156.7 208.95 Q157.1 208.2 158.15 207.8 L157.95 208.35 Q157.2 208.8 156.5 209.8 L156.5 210.05" fill="#e5617a" fill-rule="evenodd" stroke="none"/>
    <path d="M161.4 206.05 L162.55 205.15 163.3 204.35 164.2 203.05 164.45 202.6 224.2 199.9 224.9 200.0 225.45 200.1 226.65 200.55 Q226.75 201.6 227.4 202.6 228.2 203.9 229.45 203.9 231.25 203.6 232.5 202.95 L232.8 203.05 242.35 206.95 235.35 207.4 224.6 203.25 224.4 203.2 224.4 203.25 161.4 206.05 M224.4 203.2 L224.9 200.0 224.4 203.2" fill="#6d3d38" fill-opacity="0.98039216" fill-rule="evenodd" stroke="none"/>
    <path d="M146.0 210.15 Q146.0 212.3 146.7 215.45 146.95 216.65 147.55 218.2 L148.45 220.05 148.55 220.3 148.9 221.1 148.6 221.05 147.95 222.4 Q147.35 223.0 146.2 223.25 L144.9 223.15 Q144.0 222.95 143.9 222.45 L143.75 221.65 Q143.85 221.0 144.55 220.5 142.8 220.75 142.4 220.05 L142.25 219.75 Q142.0 218.6 143.55 217.0 L142.25 216.6 Q141.7 216.25 141.6 215.7 141.5 215.45 142.0 214.6 142.55 213.8 143.15 213.55 142.6 213.35 142.2 213.0 141.5 212.6 141.35 211.9 141.2 211.15 141.9 210.2 L142.25 209.8 142.4 209.65 142.2 209.3 Q141.85 208.5 141.65 207.55 141.5 207.05 141.9 206.25 142.4 205.55 143.1 205.4 144.3 205.15 146.15 206.45 L146.2 206.5 146.75 206.85 146.7 206.9 146.7 206.95 146.5 207.25 146.45 207.25 146.45 207.4 146.4 207.45 146.4 207.5 146.1 208.6 146.0 210.15" fill="#fcfdfd" fill-rule="evenodd" stroke="none"/>
    <path d="M169.5 216.7 L170.3 218.1 Q169.4 218.8 168.95 218.9 L165.8 219.5 162.85 219.7 Q159.45 219.7 157.35 218.05 155.1 216.35 155.1 213.5 155.1 211.9 156.35 210.05 L156.5 210.05 156.5 209.8 Q157.2 208.8 157.95 208.35 L157.95 208.4 157.75 208.95 158.15 208.85 158.45 208.75 168.95 216.7 169.5 216.7 M156.65 212.5 L156.45 210.85 156.5 210.05 156.45 210.85 156.65 212.5" fill="#b23d6a" fill-rule="evenodd" stroke="none"/>
    <path d="M158.45 208.75 L158.15 208.85 157.75 208.95 157.95 208.4 158.45 208.75" fill="#6d3e39" fill-opacity="0.98039216" fill-rule="evenodd" stroke="none"/>
    <path d="M224.6 203.25 L235.35 207.4 169.8 211.35 169.4 211.1 161.4 206.05 224.4 203.25 224.6 203.25" fill="#4d2824" fill-opacity="0.98039216" fill-rule="evenodd" stroke="none"/>
    <path d="M156.5 209.8 L156.7 208.95 Q157.1 208.2 158.15 207.8 M158.85 207.4 L159.5 207.05 160.7 206.5 161.25 206.1 161.4 206.05 162.55 205.15 163.3 204.35 164.2 203.05 164.45 202.6 164.75 201.25 164.75 201.1 164.6 199.9 164.3 199.55 160.85 199.05 Q158.05 198.85 154.15 200.15 150.4 201.45 148.1 204.6 147.2 205.8 146.75 206.95 L146.5 207.55 Q146.1 208.95 146.0 210.15 146.0 212.3 146.7 215.45 146.95 216.65 147.55 218.2 L148.45 220.05 Q150.65 222.2 152.75 223.25 156.3 224.9 161.25 224.95 166.15 225.0 170.35 223.1 L171.1 222.8 173.85 221.2 174.8 220.55 176.5 218.8 176.6 218.65 177.2 217.4 M146.5 207.25 L146.75 206.95 M146.5 207.25 L146.45 207.25 146.45 207.4 M146.4 207.45 L146.4 207.5 M146.15 206.45 Q145.35 205.15 143.15 205.15 142.25 205.15 141.75 206.05 L141.7 206.15 141.65 206.2 Q141.35 206.9 141.35 207.55 141.35 208.05 141.65 208.65 L142.1 209.65 142.15 209.7 142.1 209.7 142.1 209.65 M148.6 221.05 L147.95 222.4 Q147.35 223.0 146.2 223.25 L144.9 223.15 Q144.0 222.95 143.9 222.45 L143.75 221.65 Q143.85 221.0 144.55 220.5 142.8 220.75 142.4 220.05 L142.25 219.75 Q142.0 218.6 143.55 217.0 L142.25 216.6 Q141.7 216.25 141.6 215.7 141.5 215.45 142.0 214.6 142.55 213.8 143.15 213.55 142.6 213.35 142.2 213.0 141.5 212.6 141.35 211.9 141.2 211.15 141.9 210.2 M156.5 210.05 L156.45 210.85 156.65 212.5" fill="none" stroke="#771225" stroke-linecap="round" stroke-linejoin="round" stroke-opacity="0.9882353" stroke-width="1.5"/>
    <path d="M156.5 210.05 L156.5 209.8 M158.1 207.75 L158.15 207.65 158.25 207.6 M177.2 217.4 L177.05 216.8 M158.15 207.8 L158.2 207.8 158.7 207.55 158.2 207.65 158.15 207.65 M146.45 207.4 L146.4 207.45 M146.4 207.5 L146.1 208.6 146.0 210.15 M148.45 220.05 L148.55 220.3 148.9 221.1" fill="none" stroke="#771225" stroke-linecap="round" stroke-linejoin="round" stroke-opacity="0.9882353" stroke-width="0.1"/>
    <path d="M169.5 216.7 L168.95 216.7 M157.95 208.4 L158.45 208.75 M242.35 206.95 L232.8 203.05 M226.65 200.55 L225.45 200.1 224.9 200.0 224.4 203.2 224.4 203.25 224.6 203.25 235.35 207.4 M169.8 211.35 L169.25 211.4 M224.2 199.9 L224.9 200.0 224.95 199.85 224.2 199.9 164.45 202.6 M225.45 200.1 L224.95 199.85 M232.5 202.95 L226.65 200.55 M169.4 211.1 L169.8 211.35 M224.4 203.25 L161.4 206.05" fill="none" stroke="#471e02" stroke-linecap="round" stroke-linejoin="round" stroke-opacity="0.9882353" stroke-width="1.5"/>
    <path d="M227.75 202.05 Q227.15 201.05 227.05 200.0 L227.1 199.35 Q227.3 197.95 229.0 196.7 230.7 195.35 232.95 195.45 235.2 195.55 236.7 198.0 237.95 199.9 237.95 202.35 L237.65 204.35 232.85 202.4 Q231.6 203.05 229.85 203.3 228.6 203.3 227.75 202.05" fill="#e5617a" fill-rule="evenodd" stroke="none"/>
    <path d="M232.8 203.05 L232.5 202.95 Q231.25 203.6 229.45 203.9 228.2 203.9 227.4 202.6 226.75 201.6 226.65 200.55 L226.7 199.9 Q226.9 198.55 228.65 197.25 230.4 195.95 232.6 196.05 234.8 196.15 236.3 198.6 237.55 200.45 237.55 202.9 L237.4 204.1" fill="none" stroke="#771225" stroke-linecap="round" stroke-linejoin="round" stroke-opacity="0.9882353" stroke-width="1.5"/>
    <path d="M172.0 191.9 L172.15 191.85 174.9 190.45 Q174.85 191.8 177.75 192.85 L178.3 193.15 179.1 193.55 Q180.3 194.2 180.6 195.0 L180.85 196.1 180.7 196.6 180.7 196.85 180.75 196.9 181.35 197.75 181.45 197.95 Q181.8 198.7 181.8 199.5 L181.75 200.5 181.6 200.85 181.6 200.9 181.55 200.9 181.55 200.95 181.55 201.05 181.5 201.05 181.45 201.1 180.95 201.35 181.45 201.1 181.45 201.15 181.15 201.4 181.1 201.45 180.95 201.35 180.75 201.25 180.35 201.35 179.4 201.05 Q179.05 201.05 178.6 201.55 L178.25 201.85 178.15 201.95 178.15 202.0 178.0 202.1 Q177.5 202.6 176.85 202.6 L175.8 202.2 Q175.1 201.85 174.7 201.85 L174.6 201.85 173.9 202.1 173.25 202.4 Q172.45 202.4 171.75 201.7 L170.8 201.05 170.8 200.95 170.6 200.55 Q170.1 199.6 170.1 198.5 L170.1 198.4 Q170.1 197.15 170.8 196.15 L171.3 195.4 172.45 195.0 171.75 194.4 171.65 193.55 Q171.65 192.6 172.0 191.9 M171.45 198.6 L171.05 198.65 170.1 198.5 171.05 198.65 171.45 198.6 M176.15 198.65 Q178.7 198.55 180.7 196.6 178.7 198.55 176.15 198.65 M177.5 201.25 L177.45 201.15 177.3 201.05 177.5 201.25 M177.65 201.4 L177.7 201.45 177.75 201.45 177.65 201.4" fill="#ffffff" fill-rule="evenodd" stroke="none"/>
    <path d="M172.0 191.9 Q171.65 192.6 171.65 193.55 L171.75 194.4 172.45 195.0 171.3 195.4 170.8 196.15 Q170.1 197.15 170.1 198.4 L170.1 198.5 169.3 198.05 168.35 197.4 168.0 197.2 168.35 197.4 169.3 198.05 170.1 198.5 Q170.1 199.6 170.6 200.55 L170.8 200.95 170.8 201.05 170.65 201.2 169.85 201.7 169.85 201.75 169.75 201.85 168.8 201.45 168.7 201.45 168.6 201.45 168.55 201.4 168.2 201.25 168.15 201.25 167.85 200.55 167.7 200.4 167.6 200.1 167.55 199.95 168.2 200.55 169.65 201.65 Q170.0 201.65 170.25 201.35 L170.8 201.05 170.25 201.35 Q170.0 201.65 169.65 201.65 L168.2 200.55 167.55 199.95 167.55 199.55 Q167.55 198.85 167.85 198.2 L168.15 197.6 168.3 197.4 168.35 197.4 168.3 197.4 168.15 197.55 168.0 197.2 Q167.85 196.85 167.85 196.15 167.85 195.2 168.85 194.0 169.4 193.15 170.7 192.55 L172.0 191.9" fill="#d7d5d5" fill-rule="evenodd" stroke="none"/>
    <path d="M171.75 201.7 Q172.45 202.4 173.25 202.4 L173.9 202.1 174.6 201.85 174.7 201.85 Q175.1 201.85 175.8 202.2 L176.85 202.6 Q177.5 202.6 178.0 202.1 L178.15 202.0 178.15 201.95 178.3 203.15 178.35 203.55 178.35 204.35 178.1 205.1 177.75 206.55 177.75 206.65 177.75 206.7 177.75 207.05 177.35 208.4 179.4 204.65 180.35 201.4 180.55 201.4 180.95 201.35 181.1 201.45 181.15 201.4 181.3 201.5 181.6 201.9 181.35 201.5 181.5 201.1 181.55 201.05 181.55 200.95 181.8 200.75 182.15 200.85 181.95 202.05 Q181.45 205.85 180.35 209.2 L180.1 209.1 Q179.85 209.15 179.3 209.75 178.85 210.25 178.45 210.25 177.95 210.25 177.5 209.6 176.95 208.85 176.45 208.85 176.15 208.85 175.6 209.6 L174.8 210.3 174.15 210.15 Q174.05 210.15 173.9 210.3 L173.6 210.55 172.2 210.25 Q171.65 210.25 170.55 209.35 L169.65 208.55 169.15 208.1 167.7 205.95 167.4 203.7 167.2 200.55 167.1 199.55 167.25 199.55 167.55 199.95 167.6 200.1 167.7 200.4 167.85 200.55 168.15 201.25 168.2 201.25 168.55 201.4 168.6 201.45 168.7 201.45 168.8 201.45 169.75 201.85 169.25 201.7 169.65 201.85 169.75 201.85 169.65 208.1 Q169.8 206.1 170.8 203.75 L171.75 201.7 M169.05 201.7 L169.15 201.7 168.9 201.65 169.05 201.7 M177.1 205.45 L177.15 206.1 177.2 206.5 177.3 204.45 177.1 205.45 M177.75 206.65 L177.65 207.25 177.75 206.4 177.75 206.55 177.9 205.6 178.35 203.75 178.1 205.1 178.35 203.75 177.9 205.6 177.75 206.55 177.75 206.4 177.65 207.25 177.75 206.65 M171.25 208.5 L171.45 206.2 171.5 204.0 171.45 206.2 171.25 208.5 M177.35 208.4 L177.65 207.25 177.35 208.4" fill="#e99ed7" fill-rule="evenodd" stroke="none"/>
    <path d="M169.05 201.7 L168.9 201.65 169.15 201.7 169.05 201.7" fill="#dbd5aa" fill-rule="evenodd" stroke="none"/>
    <path d="M170.8 201.05 L171.75 201.7 170.8 203.75 Q169.8 206.1 169.65 208.1 L169.75 201.85 169.85 201.75 169.85 201.7 170.65 201.2 170.8 201.05 M178.15 201.95 L178.25 201.85 178.6 201.55 Q179.05 201.05 179.4 201.05 L180.35 201.35 180.35 201.4 179.4 204.65 177.35 208.4 177.75 207.05 177.75 206.7 177.75 206.65 177.75 206.55 178.1 205.1 178.35 204.35 178.35 203.55 178.3 203.15 178.15 201.95 M180.35 209.2 L179.65 210.95 179.35 211.05 177.2 211.65 174.6 212.05 Q170.3 212.05 169.1 211.0 168.15 208.6 167.7 205.95 L169.15 208.1 169.65 208.55 170.55 209.35 Q171.65 210.25 172.2 210.25 L173.6 210.55 173.9 210.3 Q174.05 210.15 174.15 210.15 L174.8 210.3 175.6 209.6 Q176.15 208.85 176.45 208.85 176.95 208.85 177.5 209.6 177.95 210.25 178.45 210.25 178.85 210.25 179.3 209.75 179.85 209.15 180.1 209.1 L180.35 209.2" fill="#c67fb5" fill-rule="evenodd" stroke="none"/>
    <path d="M169.75 201.85 L169.65 201.85 169.25 201.7 169.75 201.85" fill="#ded6d6" fill-rule="evenodd" stroke="none"/>
    <path d="M177.65 201.4 L177.75 201.45 177.7 201.45 177.65 201.4 M177.5 201.25 L177.3 201.05 177.45 201.15 177.5 201.25" fill="#3a7da3" fill-rule="evenodd" stroke="none"/>
    <path d="M177.1 205.45 L177.3 204.45 177.2 206.5 177.15 206.1 177.1 205.45" fill="#e59bd3" fill-rule="evenodd" stroke="none"/>
    <path d="M181.3 201.5 L181.35 201.5 181.6 201.9 181.3 201.5" fill="#519ac4" fill-rule="evenodd" stroke="none"/>
    <path d="M180.7 196.6 L180.85 196.1 180.6 195.0 Q180.3 194.2 179.1 193.55 L178.3 193.15 177.75 192.85 Q174.85 191.8 174.9 190.45 L172.15 191.85 172.0 191.9 170.7 192.55 Q169.4 193.15 168.85 194.0 167.85 195.2 167.85 196.15 167.85 196.85 168.0 197.2 L168.35 197.4 169.3 198.05 170.1 198.5 171.05 198.65 171.45 198.6 M181.45 201.1 L181.5 201.05 181.55 201.05 181.55 200.95 181.55 200.9 181.6 200.9 181.6 200.85 181.7 200.75 181.8 200.45 181.9 199.8 Q181.9 198.85 181.45 197.95 L181.35 197.75 180.75 196.9 M180.7 196.85 L180.7 196.6 Q178.7 198.55 176.15 198.65 M167.55 199.55 Q167.55 198.85 167.85 198.2 L168.15 197.6 168.15 197.55 168.0 197.2 M168.3 197.4 L168.15 197.6 M168.35 197.4 L168.3 197.4 M167.55 199.55 L167.55 199.95 M181.45 201.15 L181.45 201.1" fill="none" stroke="#8a8a8a" stroke-linecap="round" stroke-linejoin="round" stroke-opacity="0.9882353" stroke-width="1.0"/>
    <path d="M170.8 201.05 L171.75 201.7 Q172.45 202.4 173.25 202.4 L173.9 202.1 174.6 201.85 174.7 201.85 Q175.1 201.85 175.8 202.2 L176.85 202.6 Q177.5 202.6 178.0 202.1 L178.15 202.0 178.15 201.95 178.25 201.85 178.6 201.55 Q179.05 201.05 179.4 201.05 L180.35 201.35 180.35 201.4 180.55 201.4 180.95 201.35 181.45 201.1 181.5 201.1 181.55 201.05 M167.1 199.55 L167.1 199.05 M167.25 199.55 L167.55 199.55 M170.8 201.05 L170.25 201.35 Q170.0 201.65 169.65 201.65 L168.2 200.55 167.55 199.95 167.25 199.55 M167.7 205.95 L167.4 203.7 167.2 200.55 167.1 199.55 M178.1 205.1 L177.75 206.55 177.75 206.65 177.75 206.7 177.75 207.05 177.35 208.4 177.65 207.25 177.75 206.65 M178.1 205.1 L178.35 203.75 177.9 205.6 177.75 206.55 177.75 206.4 177.65 207.25 M182.15 200.85 L182.2 200.15 181.8 200.75 181.55 200.95 M182.15 200.85 L181.95 202.05 Q181.45 205.85 180.35 209.2 L179.65 210.95 179.35 211.05 177.2 211.65 174.6 212.05 Q170.3 212.05 169.1 211.0 168.15 208.6 167.7 205.95 M182.2 200.15 L182.25 199.95 182.45 199.5 M171.5 204.0 L171.45 206.2 171.25 208.5" fill="none" stroke="#b1609d" stroke-linecap="round" stroke-linejoin="round" stroke-opacity="0.9882353" stroke-width="1.0"/>
    <path d="M180.15 165.7 Q180.75 166.5 183.85 167.05 L193.2 167.8 198.9 167.6 202.7 167.05 203.0 167.05 200.75 174.0 203.0 167.05 Q205.85 166.45 206.4 165.7 L206.7 165.4 206.65 165.7 Q206.4 170.45 205.6 174.2 L205.6 174.25 200.75 174.2 200.75 174.0 198.95 174.0 198.95 174.05 194.15 174.2 186.9 174.5 180.75 174.9 180.65 174.9 180.5 174.9 Q179.65 170.4 179.85 165.7 L179.85 165.4 180.15 165.7 M197.25 173.45 L198.9 167.6 197.25 173.45 M206.4 165.7 L206.65 165.7 206.4 165.7" fill="#f7ecea" fill-rule="evenodd" stroke="none"/>
    <path d="M200.05 163.1 L200.1 163.1 200.25 163.15 202.7 163.5 203.85 163.75 204.0 163.8 204.1 163.85 Q206.55 164.45 206.55 165.35 L206.4 165.7 Q205.85 166.45 203.0 167.05 L202.7 167.05 198.9 167.6 193.2 167.8 183.85 167.05 Q180.75 166.5 180.15 165.7 L180.0 165.35 Q180.0 164.25 183.85 163.5 L193.2 162.8 199.95 163.1 200.05 163.1" fill="#ffeabb" fill-opacity="0.6313726" fill-rule="evenodd" stroke="none"/>
    <path d="M180.75 174.9 L186.9 174.5 194.15 174.2 198.95 174.05 198.95 174.0 200.75 174.0 200.75 174.2 205.6 174.25 205.6 174.5 202.25 187.6 201.3 190.5 197.85 199.8 195.05 200.5 192.2 200.6 Q190.25 200.6 188.5 199.8 L186.9 196.4 186.7 195.85 Q183.55 189.6 180.5 175.0 L180.75 174.9" fill="#fc9c61" fill-rule="evenodd" stroke="none"/>
    <path d="M180.5 174.9 L180.65 174.9 180.75 174.9 180.5 175.0 180.5 174.9" fill="#8e421e" fill-rule="evenodd" stroke="none"/>
    <path d="M183.45 210.9 L185.05 209.0 186.85 207.9 Q187.85 207.35 188.2 207.35 L188.3 207.25 190.95 206.55 191.15 206.55 191.5 206.45 192.8 206.4 194.75 206.55 195.0 206.55 197.55 207.0 200.0 208.05 Q200.95 208.5 201.9 209.45 L202.3 209.9 202.6 211.05 Q202.7 212.4 198.95 213.3 195.15 214.25 190.95 214.25 L190.85 214.25 Q188.5 214.25 186.1 213.25 183.6 212.05 183.75 210.9 L183.45 210.9" fill="#f0d6d6" fill-opacity="0.8784314" fill-rule="evenodd" stroke="none"/>
    <path d="M200.25 163.15 L203.25 151.3 M180.15 165.7 L180.0 165.35 Q180.0 164.25 183.85 163.5 L193.2 162.8 199.95 163.1 200.05 163.1 M198.9 167.6 L193.2 167.8 183.85 167.05 Q180.75 166.5 180.15 165.7 M179.85 165.4 L179.85 165.7 Q179.65 170.4 180.5 174.9 M203.0 167.05 L202.7 167.05 198.9 167.6 M180.5 175.0 L180.75 174.9 M204.1 163.85 L207.3 152.75 203.7 151.7 M204.0 163.8 L204.1 163.85 Q206.55 164.45 206.55 165.35 L206.4 165.7 Q205.85 166.45 203.0 167.05 M206.65 165.7 Q206.4 170.45 205.6 174.2 M206.65 165.7 L206.4 165.7 M190.95 214.25 Q195.15 214.25 198.95 213.3 202.7 212.4 202.6 211.05 L202.3 209.9 201.9 209.45 Q200.95 208.5 200.0 208.05 L197.55 207.0 195.0 206.55 194.75 206.55 192.8 206.4 191.5 206.45 191.15 206.55 190.95 206.55 188.3 207.25 188.2 207.35 Q187.85 207.35 186.85 207.9 L185.05 209.0 183.45 210.9 M183.75 210.9 Q183.6 212.05 186.1 213.25 188.5 214.25 190.85 214.25 M197.85 199.8 L195.0 206.55 M190.95 206.55 L189.8 203.0 189.8 202.9 188.5 199.8" fill="none" stroke="#745e4e" stroke-linecap="round" stroke-linejoin="round" stroke-opacity="0.9882353" stroke-width="1.5"/>
    <path d="M180.5 174.9 L180.5 175.0 M205.6 174.2 L205.6 174.25" fill="none" stroke="#471e02" stroke-linecap="round" stroke-linejoin="round" stroke-opacity="0.9882353" stroke-width="1.5"/>
    <path d="M200.75 174.0 L203.0 167.05 M198.9 167.6 L197.25 173.45" fill="none" stroke="#471e02" stroke-linecap="round" stroke-linejoin="round" stroke-opacity="0.4" stroke-width="1.5"/>
    <path d="M180.5 175.0 Q183.55 189.6 186.7 195.85 L186.9 196.4 188.5 199.8 Q190.25 200.6 192.2 200.6 L195.05 200.5 197.85 199.8 201.3 190.5 202.25 187.6 205.6 174.5 205.6 174.25" fill="none" stroke="#8e4f29" stroke-linecap="round" stroke-linejoin="round" stroke-opacity="0.9882353" stroke-width="1.5"/>
    <path d="M200.05 163.1 L200.1 163.1 200.25 163.15 202.7 163.5 203.85 163.75 204.0 163.8" fill="none" stroke="#af998b" stroke-linecap="round" stroke-linejoin="round" stroke-opacity="0.99215686" stroke-width="1.5"/>
    <path d="M187.55 179.65 L187.55 178.5 185.6 178.4 183.6 178.6 Q186.85 186.6 188.65 188.7 187.55 181.6 187.55 179.65" fill="#ffffff" fill-rule="evenodd" stroke="none"/>
    <path d="M184.55 176.0 L192.8 176.4 201.1 176.0 Q204.45 175.55 204.45 174.85 204.45 174.15 201.1 173.7 L192.8 173.3 184.55 173.7 Q181.1 174.15 181.1 174.85 181.1 175.55 184.55 176.0" fill="#d08252" fill-rule="evenodd" stroke="none"/>
    <path d="M184.55 176.0 L192.8 176.4 201.1 176.0 Q204.45 175.55 204.45 174.85 204.45 174.15 201.1 173.7 L192.8 173.3 184.55 173.7 Q181.1 174.15 181.1 174.85 181.1 175.55 184.55 176.0 Z" fill="none" stroke="#8e4f29" stroke-linecap="round" stroke-linejoin="round" stroke-opacity="0.9882353" stroke-width="1.5"/>
    <path d="M200.4 162.05 L198.75 168.2" fill="none" stroke="#755f4f" stroke-linecap="butt" stroke-linejoin="miter-clip" stroke-miterlimit="4.0" stroke-width="1.5"/>
    <path d="M204.6 162.0 L202.95 167.05" fill="none" stroke="#755f4f" stroke-linecap="butt" stroke-linejoin="miter-clip" stroke-miterlimit="4.0" stroke-width="1.5"/>
    <path d="M204.25 196.3 L204.2 196.6 204.0 196.55 203.7 196.45 202.5 195.75 Q201.7 195.0 201.8 191.55 201.85 188.1 205.3 187.3 L207.95 186.85 207.95 187.2 Q207.95 194.35 217.35 194.55 L217.9 194.55 217.45 194.4 219.85 194.35 222.6 194.35 226.9 193.35 226.9 193.95 226.55 195.75 224.8 196.45 221.05 197.15 219.45 197.3 216.4 197.4 216.05 197.4 210.4 197.35 207.0 197.05 205.7 196.75 205.65 196.65 205.3 196.55 204.25 196.3 M204.25 202.0 L205.25 201.9 206.45 201.85 Q206.15 202.6 206.05 204.05 L208.6 205.25 212.65 205.95 217.8 206.4 Q222.3 206.4 227.15 204.1 L227.35 206.2 227.25 207.95 Q227.15 210.75 226.55 211.95 L226.5 211.95 226.5 212.1 Q215.0 215.35 203.1 212.8 L202.4 210.65 Q201.85 208.55 201.85 207.0 201.85 205.25 202.4 203.9 202.85 202.5 203.55 202.15 L204.05 202.0 204.25 202.0" fill="#cbaf54" fill-rule="evenodd" stroke="none"/>
    <path d="M204.2 196.6 L204.25 196.3 205.3 196.55 205.65 196.65 205.7 196.75 207.0 197.05 210.4 197.35 216.05 197.4 216.4 197.4 219.45 197.3 221.3 197.15 224.5 197.05 224.4 199.4 224.35 201.6 214.0 201.6 213.8 201.6 212.9 201.65 206.45 201.85 205.25 201.9 204.25 202.0 Q203.75 199.8 204.2 196.6" fill="#ffffff" fill-rule="evenodd" stroke="none"/>
    <path d="M226.9 193.35 L222.6 194.35 219.85 194.35 217.45 194.4 217.9 194.55 217.35 194.55 Q207.95 194.35 207.95 187.2 L207.95 186.85 216.1 186.45 Q222.25 186.45 224.35 187.75 226.7 189.2 226.9 193.35 M206.45 201.85 L212.9 201.65 213.8 201.6 214.0 201.6 224.35 201.6 225.4 201.6 Q226.75 201.7 227.15 204.1 222.3 206.4 217.8 206.4 L212.65 205.95 208.6 205.25 206.05 204.05 Q206.15 202.6 206.45 201.85" fill="#ffe079" fill-rule="evenodd" stroke="none"/>
    <path d="M204.2 196.6 L204.25 196.3 M204.2 196.6 Q203.75 199.8 204.25 202.0 M224.35 201.6 L224.4 199.4 224.5 197.05" fill="none" stroke="#916a71" stroke-linecap="round" stroke-linejoin="round" stroke-width="1.5"/>
    <path d="M226.35 196.0 Q227.2 195.0 227.25 192.45 227.4 189.85 225.25 188.15 223.25 186.4 217.2 186.4 L209.05 186.75 206.45 187.2 Q203.0 188.05 202.9 191.5 202.85 194.85 203.55 195.7 L204.7 196.4 206.9 196.95 216.95 197.35 Q222.55 197.25 225.85 196.4" fill="none" stroke="#a37c42" stroke-linecap="round" stroke-linejoin="round" stroke-opacity="0.9882353" stroke-width="1.5"/>
    <path d="M204.8 213.6 L207.3 214.15 212.35 214.4 220.2 213.9 Q225.7 213.25 225.75 212.55 226.65 211.8 227.15 209.9 227.65 207.9 227.45 204.9 227.25 202.05 223.45 202.2 L214.8 202.45 208.25 202.25 206.2 202.05 204.25 202.15 Q203.15 202.25 202.85 203.95 202.5 205.6 202.6 207.45 L203.15 210.75 203.75 212.9 204.8 213.6 Z" fill="none" stroke="#a37c42" stroke-linecap="round" stroke-linejoin="round" stroke-opacity="0.9882353" stroke-width="1.5"/>
    <path d="M199.35 209.6 L194.1 215.2 169.5 216.7 169.25 211.45 199.35 209.6" fill="#8a4740" fill-rule="evenodd" stroke="none"/>
    <path d="M194.1 215.2 L199.35 209.6 242.35 206.95 240.85 212.3 194.1 215.2" fill="#a85c54" fill-rule="evenodd" stroke="none"/>
    <path d="M199.35 209.6 L169.25 211.45 169.5 216.7 194.1 215.2 240.85 212.3 242.35 206.95 199.35 209.6 Z" fill="none" stroke="#471e02" stroke-linecap="round" stroke-linejoin="round" stroke-opacity="0.9882353" stroke-width="1.5"/>
    <path d="M158.45 208.75 L157.95 208.4 158.15 207.8 158.2 207.8 158.7 207.55 158.2 207.65 158.25 207.6 158.85 207.4 159.5 207.05 160.7 206.5 161.25 206.1 161.4 206.05 169.4 211.1 169.25 211.35 169.5 216.7 168.95 216.7 158.45 208.75" fill="#7b3932" fill-rule="evenodd" stroke="none"/>
    <path d="M161.4 206.05 L169.4 211.1 M168.95 216.7 L158.45 208.75" fill="none" stroke="#471e02" stroke-linecap="round" stroke-linejoin="round" stroke-opacity="0.9882353" stroke-width="1.5"/>
    <path d="M100.25 91.85 L99.3 91.5 97.15 91.55 Q94.1 92.6 94.5 99.15 94.9 105.75 99.5 108.95 101.8 110.55 103.95 110.85" fill="none" stroke="#471e02" stroke-linecap="round" stroke-linejoin="round" stroke-width="1.5"/>
    <path d="M85.1 80.5 Q86.2 87.05 85.3 94.65 83.85 106.55 77.55 117.5 74.0 123.6 67.15 130.5 58.75 139.0 57.15 141.0 52.5 147.0 51.75 153.65 50.85 161.75 55.15 173.15 54.55 168.9 54.85 162.95 55.4 151.05 59.5 142.6 54.75 156.6 57.45 169.5 58.75 175.9 61.05 179.55 64.1 183.6 66.4 184.9 61.75 168.65 66.3 154.65 67.7 150.25 69.85 146.65 L71.75 143.9" fill="none" stroke="#b85514" stroke-linecap="round" stroke-linejoin="round" stroke-width="1.5"/>
    <path d="M83.95 152.45 L81.95 155.1 Q79.8 158.55 78.4 162.85 74.1 176.55 80.25 192.9 L73.45 192.15 Q61.4 172.2 68.65 151.75 70.95 145.15 76.35 135.9 82.75 124.85 83.95 122.25" fill="none" stroke="#b85514" stroke-linecap="round" stroke-linejoin="round" stroke-width="1.5"/>
    <path d="M81.6 156.85 L80.6 160.05 Q79.55 164.05 79.45 168.5 79.05 182.75 88.4 195.95" fill="none" stroke="#b85514" stroke-linecap="round" stroke-linejoin="round" stroke-width="1.5"/>
    <path d="M152.45 77.45 Q152.0 75.65 150.85 74.0 148.6 70.7 145.05 71.3" fill="none" stroke="#471e02" stroke-linecap="round" stroke-linejoin="round" stroke-width="1.5"/>
    <path d="M188.85 84.55 Q188.45 83.45 187.45 82.6 L182.25 82.75" fill="none" stroke="#471e02" stroke-linecap="round" stroke-linejoin="round" stroke-width="1.5"/>
    <path d="M97.75 176.05 Q98.3 177.6 100.2 178.0 102.0 178.4 102.7 177.55 L103.6 179.15 Q104.5 181.25 105.75 181.65 107.4 182.15 108.5 181.0 L109.35 179.75 110.3 182.45 Q111.65 185.0 112.95 184.25 114.6 183.5 115.45 182.25 L116.0 181.15 116.85 182.1 119.7 182.2 Q121.25 181.45 120.85 179.1 L120.15 176.9 Q121.35 175.95 121.5 173.95 121.95 166.65 115.95 159.95 114.0 157.9 111.7 156.2 L109.8 154.8 Q108.45 154.85 106.85 155.6 103.55 156.85 101.8 159.8 100.1 162.75 100.3 167.5 100.45 169.85 100.9 171.6 L98.95 173.0 Q97.2 174.7 97.75 176.05" fill="#fcfdfd" fill-rule="evenodd" stroke="none"/>
    <path d="M97.75 176.05 Q98.3 177.6 100.2 178.0 102.0 178.4 102.7 177.55 L103.6 179.15 Q104.5 181.25 105.75 181.65 107.4 182.15 108.5 181.0 L109.35 179.75 110.3 182.45 Q111.65 185.0 112.95 184.25 114.6 183.5 115.45 182.25 L116.0 181.15 116.85 182.1 119.7 182.2 Q121.25 181.45 120.85 179.1 L120.15 176.9 Q121.35 175.95 121.5 173.95 121.95 166.65 115.95 159.95 114.0 157.9 111.7 156.2 L109.8 154.8 Q108.45 154.85 106.85 155.6 103.55 156.85 101.8 159.8 100.1 162.75 100.3 167.5 100.45 169.85 100.9 171.6 L98.95 173.0 Q97.2 174.7 97.75 176.05 Z" fill="none" stroke="#95cadd" stroke-linecap="butt" stroke-linejoin="miter-clip" stroke-miterlimit="4.0" stroke-width="1.0"/>
    <path d="M128.3 69.9 Q131.95 64.0 136.4 61.4 L132.9 66.1 Q129.3 71.6 129.0 75.3 L149.3 79.65 Q151.35 76.75 153.95 73.6 159.05 67.35 161.65 66.0 L160.4 70.95 Q158.25 76.75 153.95 80.95 156.7 82.4 160.85 83.7 169.25 86.25 176.35 85.05 177.5 84.25 179.0 82.0 181.95 77.5 183.5 70.4 L184.05 75.75 Q184.4 81.65 183.75 84.55 184.5 85.2 185.85 85.8 188.65 86.95 192.0 86.65 192.0 75.8 191.25 71.2 L194.35 76.35 Q197.5 81.85 197.7 83.8 198.85 83.1 200.1 81.9 202.65 79.5 203.35 77.1 198.55 66.05 186.75 54.9 163.05 32.65 127.7 32.35 L117.5 34.15 Q105.95 37.1 98.9 42.9 L96.7 45.65 Q94.25 49.35 93.0 54.05 89.15 69.05 99.15 88.15 L101.7 93.7 Q104.35 100.15 104.8 104.6 L104.45 126.65 Q103.85 150.4 102.75 158.9 101.3 169.55 96.55 181.0 91.5 193.0 86.25 197.25 91.4 196.7 96.9 193.25 107.9 186.35 109.7 172.05 L108.7 182.9 Q107.2 194.8 104.3 200.1 106.8 197.7 109.7 193.1 115.35 183.8 116.6 172.55 117.95 161.0 117.1 144.45 L115.35 120.35 Q114.65 112.45 114.3 96.6 L114.05 82.25 125.6 75.3 Q126.55 72.85 128.3 69.9" fill="#debf74" fill-rule="evenodd" stroke="none"/>
    <path d="M114.45 70.95 L114.0 83.9 Q113.75 99.35 114.45 111.4 L116.35 130.55 Q117.55 142.85 117.7 152.2 L117.7 155.55 117.45 162.35 Q116.95 171.15 115.1 178.6 111.65 193.05 103.35 201.95 L102.2 203.05 M103.35 201.95 Q104.8 200.0 106.25 195.95 110.2 184.65 109.85 164.1 L109.7 168.55 Q109.2 174.0 107.45 178.85 101.85 194.35 86.25 197.45 90.45 193.75 94.65 185.35 99.8 175.05 101.9 162.35 103.35 154.25 103.45 145.1 104.1 94.0 106.65 85.8" fill="none" stroke="#b85514" stroke-linecap="round" stroke-linejoin="round" stroke-width="1.5"/>
    <path d="M78.55 25.95 Q78.2 30.25 78.7 34.4 73.95 30.85 72.3 34.45 71.05 37.1 71.45 44.2 71.7 49.0 75.05 55.7 76.75 59.05 78.35 61.4 74.85 65.3 76.85 70.7 78.65 75.6 84.05 79.7 88.25 82.95 94.1 85.9 L99.15 88.15 Q96.5 73.05 99.85 60.15 100.9 56.15 102.45 52.85 L103.75 50.35 Q100.35 46.65 95.25 36.65 90.95 28.05 89.75 24.15 88.65 20.3 87.4 18.45 85.65 15.75 83.25 16.25 79.2 17.25 78.55 25.95" fill="#c7eddd" fill-rule="evenodd" stroke="none"/>
    <path d="M104.45 103.85 L103.15 98.25 Q101.3 91.65 98.4 86.75" fill="none" stroke="#b85514" stroke-linecap="round" stroke-linejoin="round" stroke-width="1.5"/>
    <path d="M98.85 43.25 Q102.4 40.1 109.0 37.25 122.1 31.45 137.2 32.7 157.05 34.4 174.8 45.35 194.9 57.75 203.75 77.55 L202.4 79.95 Q200.35 82.65 196.95 84.3 L195.25 79.5 Q193.1 74.0 190.65 70.5 L191.55 76.65 Q192.35 83.6 191.8 87.1 187.0 87.35 183.65 85.7 L183.9 80.65 Q183.95 74.7 183.1 69.95 L181.55 76.45 Q179.45 83.4 176.6 85.15 L168.8 85.15 Q159.85 84.55 153.9 81.75 155.75 80.15 157.6 77.35 161.4 71.75 161.75 65.75 L156.3 71.15 Q150.65 77.2 149.4 80.35 L141.9 77.95 Q133.45 75.55 128.9 75.55 129.65 72.55 131.3 69.2 133.55 64.45 136.3 62.15 137.45 61.2 138.7 60.7 M136.3 62.15 L133.35 63.95 Q127.6 68.6 125.55 75.55 L120.75 78.5 Q115.7 81.75 114.3 83.15" fill="none" stroke="#b85514" stroke-linecap="round" stroke-linejoin="round" stroke-width="1.5"/>
    <path d="M78.3 37.0 Q77.15 37.55 76.55 38.85 74.7 42.9 79.3 52.7 83.95 62.5 88.5 68.3 90.75 71.2 92.05 72.2 L91.55 72.4 89.85 72.1 Q86.7 70.85 81.7 65.1 L81.05 66.55 Q80.5 68.4 81.2 70.65 83.5 77.85 97.4 85.8 97.1 81.5 97.2 76.55 97.35 66.75 99.2 63.65 L95.6 62.4 Q93.8 61.9 90.85 58.45 84.9 51.5 79.3 36.7 L78.3 37.0" fill="#94c0b7" fill-rule="evenodd" stroke="none"/>
    <path d="M89.0 56.5 Q86.85 53.75 84.45 49.15 79.65 40.05 78.55 30.8 77.25 20.05 82.3 16.75 L86.3 16.85 Q88.35 18.4 89.25 22.55 90.85 29.9 97.4 40.95 100.75 46.45 103.75 50.5 L102.4 53.35 Q100.9 57.1 99.8 61.2 96.3 74.55 98.5 87.65 94.4 86.15 89.85 83.55 80.6 78.4 77.8 72.95 74.95 67.5 76.35 63.8 76.75 62.65 77.55 61.8 L78.25 61.2" fill="none" stroke="#6cb8a5" stroke-linecap="round" stroke-linejoin="round" stroke-width="1.5"/>
    <path d="M136.85 15.1 Q145.95 15.15 152.35 17.8 158.7 20.45 158.7 24.2 158.65 27.95 152.25 30.55 145.85 33.1 136.75 33.05 127.7 33.0 121.35 30.3 114.9 27.65 114.95 23.95 114.95 20.25 121.4 17.65 127.8 15.05 136.85 15.1 M112.8 16.35 Q102.8 20.4 102.75 26.2 102.7 31.95 112.7 36.15 122.65 40.3 136.75 40.35 150.85 40.45 160.85 36.4 170.9 32.35 170.9 26.55 170.95 20.75 160.95 16.6 151.05 12.5 136.9 12.4 122.75 12.35 112.8 16.35" fill="#ffdd99" fill-rule="evenodd" stroke="none"/>
    <path d="M112.25 16.4 Q122.25 12.4 136.4 12.45 150.5 12.55 160.45 16.65 170.45 20.8 170.4 26.6 170.4 32.4 160.35 36.45 150.35 40.5 136.25 40.4 122.1 40.35 112.15 36.2 102.2 32.05 102.25 26.25 102.3 20.45 112.25 16.4 Z" fill="none" stroke="#e5ac62" stroke-linecap="round" stroke-linejoin="round" stroke-width="1.5"/>
    <path d="M158.2 24.25 Q158.15 28.0 151.75 30.6 145.3 33.15 136.25 33.1 127.2 33.05 120.85 30.4 114.4 27.7 114.45 24.0 114.45 20.3 120.9 17.7 127.3 15.1 136.35 15.15 145.45 15.25 151.85 17.9 158.2 20.55 158.2 24.25 Z" fill="none" stroke="#e5ac62" stroke-linecap="round" stroke-linejoin="round" stroke-width="1.5"/>
    <path d="M78.35 34.4 L77.15 33.55 Q75.7 32.7 74.55 32.7 70.7 32.65 70.85 40.9 71.0 50.0 78.55 60.95 85.25 70.55 91.35 73.8" fill="none" stroke="#6cb8a5" stroke-linecap="round" stroke-linejoin="round" stroke-width="1.5"/>
    <path d="M108.25 290.55 L108.15 293.45 Q107.15 296.25 102.6 295.95 L102.95 298.15 Q102.9 300.5 100.7 301.3 98.1 302.3 92.2 295.9 86.4 289.5 85.4 284.65" fill="none" stroke="#a4e2e7" stroke-linecap="round" stroke-linejoin="round" stroke-width="1.5"/>
    <path d="M169.7 300.15 L163.5 313.65 Q155.85 330.85 154.15 333.7 132.55 370.25 130.75 375.7" fill="none" stroke="#471e02" stroke-linecap="round" stroke-linejoin="round" stroke-width="1.5"/>
    <path d="M210.15 215.05 L209.05 215.6 207.65 216.4 Q199.1 219.6 190.8 221.2 L180.6 222.45 180.55 222.45 179.75 222.55 178.5 220.75 177.45 219.15" fill="none" stroke="#471e02" stroke-linecap="round" stroke-linejoin="round" stroke-opacity="0.9882353" stroke-width="1.5"/>
  </g>
</svg>