<?xml version="1.0" encoding="utf-8"?>
<svg viewBox="133.495 31.381 209.48 426.802" width="209.48" height="426.802" xmlns="http://www.w3.org/2000/svg" xmlns:bx="https://boxy-svg.com">
  <defs>
    <filter id="grayscale-filter-0" color-interpolation-filters="sRGB" x="-50%" y="-50%" width="200%" height="200%" bx:preset="grayscale 1 0.69">
      <feColorMatrix type="matrix" values="0.457 0.493 0.05 0 0 0.147 0.803 0.05 0 0 0.147 0.493 0.36 0 0 0 0 0 1 0"/>
    </filter>
    <filter id="brightness-filter-0" color-interpolation-filters="sRGB" x="-50%" y="-50%" width="200%" height="200%" bx:preset="brightness 1 1.75">
      <feComponentTransfer>
        <feFuncR type="linear" slope="1.75"/>
        <feFuncG type="linear" slope="1.75"/>
        <feFuncB type="linear" slope="1.75"/>
      </feComponentTransfer>
    </filter>
    <radialGradient cx="0" cy="0" gradientTransform="matrix(0.0403, 0.0, 0.0, 0.0403, -10.95, -6.0)" gradientUnits="userSpaceOnUse" id="gradient0" r="819.2" spreadMethod="pad">
      <stop offset="0" stop-color="#796931"/>
      <stop offset="1" stop-color="#332515"/>
    </radialGradient>
    <linearGradient gradientTransform="matrix(0.0139, 0.0109, -0.0166, 0.0212, 6.5, 3.9)" gradientUnits="userSpaceOnUse" id="gradient1" spreadMethod="pad" x1="-819.2" x2="819.2">
      <stop offset="0" stop-color="#695525"/>
      <stop offset="1" stop-color="#563f16"/>
    </linearGradient>
    <linearGradient gradientTransform="matrix(-0.0244, 0.0298, -0.0176, -0.0144, -10.25, 3.25)" gradientUnits="userSpaceOnUse" id="gradient2" spreadMethod="pad" x1="-819.2" x2="819.2">
      <stop offset="0" stop-color="#79612a"/>
      <stop offset="1" stop-color="#614c1f"/>
    </linearGradient>
    <linearGradient gradientTransform="matrix(0.0247, 0.0095, -0.0097, 0.0251, 0.3, 0.05)" gradientUnits="userSpaceOnUse" id="gradient3" spreadMethod="pad" x1="-819.2" x2="819.2">
      <stop offset="0" stop-color="#776029"/>
      <stop offset="1" stop-color="#644c20"/>
    </linearGradient>
    <linearGradient gradientTransform="matrix(-0.0137, 0.0237, -0.0181, -0.0104, -27.4, 2.15)" gradientUnits="userSpaceOnUse" id="gradient4" spreadMethod="pad" x1="-819.2" x2="819.2">
      <stop offset="0" stop-color="#776027"/>
      <stop offset="1" stop-color="#856a29"/>
    </linearGradient>
    <linearGradient gradientTransform="matrix(-0.0174, 0.0394, -0.0285, -0.0126, 17.45, 12.85)" gradientUnits="userSpaceOnUse" id="gradient5" spreadMethod="pad" x1="-819.2" x2="819.2">
      <stop offset="0" stop-color="#271c0e"/>
      <stop offset="1" stop-color="#3a2a13"/>
    </linearGradient>
    <linearGradient gradientTransform="matrix(-0.0063, -0.0063, 0.0279, -0.028, -28.2, 36.35)" gradientUnits="userSpaceOnUse" id="gradient6" spreadMethod="pad" x1="-819.2" x2="819.2">
      <stop offset="0" stop-color="#5f4c15"/>
      <stop offset="1" stop-color="#433612"/>
    </linearGradient>
    <linearGradient gradientTransform="matrix(-0.0048, -0.0027, 0.0197, -0.0343, -25.3, 43.35)" gradientUnits="userSpaceOnUse" id="gradient7" spreadMethod="pad" x1="-819.2" x2="819.2">
      <stop offset="0" stop-color="#5f4c15"/>
      <stop offset="1" stop-color="#433612"/>
    </linearGradient>
    <radialGradient cx="0" cy="0" gradientTransform="matrix(0.0157, -0.0009, -0.0009, -0.0157, 13.9, 11.9)" gradientUnits="userSpaceOnUse" id="gradient-1" r="819.2" spreadMethod="pad">
      <stop offset="0" stop-color="#eb84b1"/>
      <stop offset="0.1451" stop-color="#ec8cb6"/>
      <stop offset="0.3686" stop-color="#f0a2c4"/>
      <stop offset="0.6471" stop-color="#f6c7db"/>
      <stop offset="0.9608" stop-color="#fef8fb"/>
      <stop offset="1" stop-color="#ffffff"/>
    </radialGradient>
    <radialGradient cx="0" cy="0" gradientTransform="matrix(0.0157, -0.0009, -0.0009, -0.0157, 72.713455, -3.298638)" gradientUnits="userSpaceOnUse" id="gradient-2" r="819.2" spreadMethod="pad">
      <stop offset="0" stop-color="#eb84b1"/>
      <stop offset="0.1451" stop-color="#ec8cb6"/>
      <stop offset="0.3686" stop-color="#f0a2c4"/>
      <stop offset="0.6471" stop-color="#f6c7db"/>
      <stop offset="0.9608" stop-color="#fef8fb"/>
      <stop offset="1" stop-color="#ffffff"/>
    </radialGradient>
  </defs>
  <g transform="matrix(1, 0, 0, 1, -1, 0)" style="pointer-events: none;">
    <g transform="matrix(1, 0, 0, 1, 237.626266, 250.991547)" style="pointer-events: none;">
      <title>pan</title>
      <path d="M-47.55 -34.95 L-47.75 -35.5 -55.55 -46.3 -53.25 -48.2 Q-51.55 -49.3 -49.95 -49.85 L-41.55 -38.55 -41.85 -38.5 -45.3 -36.9 -46.05 -36.25 -47.15 -35.3 -47.55 -34.95" fill="#363434" fill-rule="evenodd" stroke="none" style=""/>
      <path d="M-47.55 -34.95 L-47.15 -35.3 -46.05 -36.25 -45.3 -36.9 -41.85 -38.5 -41.55 -38.55 -41.5 -38.4 -36.55 -34.65 Q-36.5 -34.5 -38.6 -32.6 -40.75 -30.65 -42.85 -30.1 L-45.0 -29.5 -47.55 -34.95" fill="#141414" fill-rule="evenodd" stroke="none" style=""/>
      <path d="M-41.55 -38.55 L-49.95 -49.85 Q-51.55 -49.3 -53.25 -48.2 L-55.55 -46.3 -47.75 -35.5 -47.55 -34.95 -45.0 -29.5 -42.85 -30.1 Q-40.75 -30.65 -38.6 -32.6 -36.5 -34.5 -36.55 -34.65 L-41.5 -38.4 -41.55 -38.55" fill="none" stroke="#000000" stroke-linecap="round" stroke-linejoin="miter-clip" stroke-miterlimit="4.0" stroke-width="1.5" style=""/>
      <path d="M-34.6 -36.95 L-34.5 -37.0 -34.65 -36.85 -34.6 -36.95 Z" fill="none" stroke="#774632" stroke-linecap="butt" stroke-linejoin="miter-clip" stroke-miterlimit="4.0" stroke-width="0.1"/>
      <path d="M-13.5 1.6 L-14.85 2.5 Q-16.3 3.4 -17.7 3.4 L-44.0 -31.35 -43.05 -32.45 Q-41.6 -33.95 -40.15 -34.7 L-13.5 1.6" fill="#deb37a" fill-rule="evenodd" stroke="none" style=""/>
      <path d="M-17.7 3.4 Q-19.15 3.5 -20.5 2.6 -22.95 1.05 -34.6 -15.15 L-44.95 -29.75 -44.0 -31.35 -17.7 3.4" fill="#ffc474" fill-rule="evenodd" stroke="none" style=""/>
      <path d="M-40.15 -34.7 L-38.8 -35.15 -37.9 -35.4 -12.0 -0.4 Q-12.45 0.7 -13.5 1.6 L-40.15 -34.7" fill="#c97947" fill-rule="evenodd" stroke="none" style=""/>
      <path d="M-37.9 -35.4 L-36.9 -35.5 Q-34.0 -32.7 -24.1 -19.7 -11.6 -3.2 -11.8 -1.25 L-12.0 -0.4 -37.9 -35.4" fill="#c9944d" fill-rule="evenodd" stroke="none" style=""/>
      <path d="M-40.15 -34.7 L-38.8 -35.15 -37.9 -35.4 -36.9 -35.5 Q-34.0 -32.7 -24.1 -19.7 -11.6 -3.2 -11.8 -1.25 L-12.0 -0.4 Q-12.45 0.7 -13.5 1.6 L-14.85 2.5 Q-16.3 3.4 -17.7 3.4 -19.15 3.5 -20.5 2.6 -22.95 1.05 -34.6 -15.15 L-44.95 -29.75 -44.0 -31.35 -43.05 -32.45 Q-41.6 -33.95 -40.15 -34.7 Z" fill="none" stroke="#774632" stroke-linecap="butt" stroke-linejoin="miter-clip" stroke-miterlimit="4.0" stroke-width="1.5" style=""/>
    </g>
    <g transform="matrix(-0.193047, -0.993579, 0.990865, -0.192519, 171.984909, 181.405212)" style="filter: url('#grayscale-filter-0') url('#brightness-filter-0'); transform-origin: 0.00534248px -0.031353px;">
      <path d="M 21.85 2.45 C 22.317 -1.35 21.8 -5.05 20.3 -8.65 L 19.4 -10.55 C 19 -11.317 18.2 -12.35 17 -13.65 L 14.7 -15.95 L 13.7 -16.8 L 12.3 -17.8 L 11.7 -18.15 L 11.35 -18.35 L 8.5 -19.7 L 6.85 -20.3 L 6.6 -20.35 L 6.2 -20.45 L 2.95 -21.15 C 2.017 -22.317 0.783 -23.417 -0.75 -24.45 C -3.283 -26.183 -6.133 -27.15 -9.3 -27.35 C -12.5 -27.583 -15.767 -26.133 -19.1 -23 L -21.1 -20.7 C -22.867 -18.1 -23.667 -15.05 -23.5 -11.55 C -23.3 -7.05 -22.533 -3.783 -21.2 -1.75 L -21 -1.5 L -21.15 0.1 C -21.217 1.867 -21.033 3.617 -20.6 5.35 L -20.5 5.85 C -20.1 7.483 -19.483 9.1 -18.65 10.7 L -17.35 12.85 L -17.15 13.2 L -16 14.8 L -15.8 15 L -14.2 16.6 L -13.1 17.55 L -11.3 18.8 C -9.9 19.667 -8.367 20.383 -6.7 20.95 C -0.4 22.35 4.85 22.083 9.05 20.15 C 8.817 21.617 9.655 22.982 9.655 24.916 C 9.655 26.149 9.029 27.892 9.129 28.892 C 2.062 31.259 -6.202 31.266 -15.002 28.866 C -20.569 25.933 -24.85 21.183 -27.95 15.25 C -31.983 7.483 -32.683 -0.633 -30.05 -9.1 C -29.283 -11.5 -28.317 -13.733 -27.15 -15.8 L -26.85 -16.3 L -26.3 -17.2 L -25.8 -17.95 C -23 -22.083 -19.233 -25.4 -14.5 -27.9 L -13.15 -28.55 C -5.85 -32.117 1.733 -32.667 9.6 -30.2 C 15.867 -28.3 20.917 -24.9 24.75 -20 L 25.3 -19.3 L 25.6 -19.5 L 26 -18.9 L 26.1 -18.05 L 26.435 -13.533 C 26.435 -10.333 25.635 -6.566 24.035 -2.233 L 22.1 2.1 L 22.15 1.8 L 21.85 2.45" fill-rule="evenodd" fill="url(#gradient0)" style="stroke-linejoin: bevel; stroke-linecap: round; fill-rule: evenodd;" stroke="none"/>
      <path d="M12.3 -17.8 L13.7 -16.8 14.7 -15.95 17.0 -13.65 Q18.8 -11.7 19.4 -10.55 L20.3 -8.65 Q22.55 -3.25 21.85 2.45 21.6 4.45 20.95 6.5 18.25 15.2 10.25 19.5 L9.05 20.15 Q2.75 23.05 -6.7 20.95 -9.2 20.1 -11.3 18.8 L-13.1 17.55 12.3 -17.8 M-20.6 5.35 Q-21.25 2.75 -21.15 0.1 L-21.0 -1.5 -21.2 -1.75 Q-20.95 -3.75 -20.3 -5.7 -17.65 -14.45 -9.65 -18.7 L-7.0 -19.9 Q-4.75 -20.8 -2.35 -21.1 L-20.6 5.35" fill-rule="evenodd" fill="url(#gradient1)" style="stroke-linejoin: bevel; stroke-linecap: round; fill-rule: evenodd;" stroke="none"/>
      <path d="M-13.1 17.55 L-14.2 16.6 -15.8 15.0 -16.0 14.8 8.5 -19.7 11.35 -18.35 11.7 -18.15 12.3 -17.8 -13.1 17.55" fill-rule="evenodd" fill="url(#gradient2)" style="stroke-linejoin: bevel; stroke-linecap: round; fill-rule: evenodd;" stroke="none"/>
      <path d="M-16.0 14.8 L-17.15 13.2 -17.35 12.85 6.2 -20.45 6.6 -20.35 6.85 -20.3 8.5 -19.7 -16.0 14.8" fill-rule="evenodd" fill="url(#gradient3)" style="stroke-linejoin: bevel; stroke-linecap: round; fill-rule: evenodd;" stroke="none"/>
      <path d="M-17.35 12.85 L-18.65 10.7 Q-19.9 8.3 -20.5 5.85 L-20.6 5.35 -2.35 -21.1 -1.85 -21.2 Q0.55 -21.5 2.95 -21.15 L6.2 -20.45 -17.35 12.85" fill-rule="evenodd" fill="url(#gradient4)" style="stroke-linejoin: bevel; stroke-linecap: round; fill-rule: evenodd;" stroke="none"/>
      <path d="M -14.95 28.55 C -6.15 30.95 1.783 30.967 8.85 28.6 C 10.583 28.033 12.331 26.425 13.965 25.558 C 22.998 20.758 28.833 13.067 31.6 0.7 C 31.467 3.567 30.95 6.467 30.05 9.4 C 27.417 17.833 22.233 24.117 14.5 28.25 L 12.95 29.05 L 8.85 30.65 L 8.8 30.4 L 2.3 31.65 L -4.9 31.3 L -9.05 30.3 L -9.2 30.9 L -9.4 30.85 C -11.367 30.217 -13.217 29.45 -14.95 28.55" fill-rule="evenodd" fill="#3c2e09" style="stroke-linejoin: bevel; stroke-linecap: round; fill-rule: evenodd;" stroke="none"/>
      <path d="M 21.85 2.45 L 22.15 1.8 L 22.1 2.1 L 23.85 -2.1 C 25.45 -6.433 26.25 -10.2 26.25 -13.4 L 26.1 -18.05 L 27.65 -15.4 L 27.9 -14.95 C 30.567 -9.883 31.8 -4.667 31.6 0.7 C 28.833 13.067 22.933 21.65 13.9 26.45 C 12.267 27.317 10.583 28.033 8.85 28.6 C 8.75 27.6 8.7 26.483 8.7 25.25 C 8.7 23.317 8.817 21.617 9.05 20.15 L 10.25 19.5 C 15.583 16.633 19.15 12.3 20.95 6.5 C 21.383 5.133 21.683 3.783 21.85 2.45" fill-rule="evenodd" fill="url(#gradient5)" style="stroke-linejoin: bevel; stroke-linecap: round; fill-rule: evenodd;" stroke="none"/>
      <path d="M-21.2 -1.75 Q-23.2 -4.8 -23.5 -11.55 -23.75 -16.8 -21.1 -20.7 L-19.1 -23.0 Q-14.1 -27.7 -9.3 -27.35 -4.55 -27.05 -0.75 -24.45 1.55 -22.9 2.95 -21.15 0.55 -21.5 -1.85 -21.2 L-2.35 -21.1 Q-4.75 -20.8 -7.0 -19.9 L-9.65 -18.7 Q-17.65 -14.45 -20.3 -5.7 -20.95 -3.75 -21.2 -1.75" fill-rule="evenodd" fill="#72602f" style="stroke-linejoin: bevel; stroke-linecap: round; fill-rule: evenodd;" stroke="none"/>
      <path d="M12.3 -17.8 L13.7 -16.8 14.7 -15.95 17.0 -13.65 Q18.8 -11.7 19.4 -10.55 L20.3 -8.65 Q22.55 -3.25 21.85 2.45" stroke-miterlimit="4.0" fill="none" style="stroke-linejoin: bevel; stroke-linecap: round; fill-rule: evenodd;" stroke-width="1.5" stroke="url(#gradient6)"/>
      <path d="M-13.1 17.55 L-14.2 16.6 -15.8 15.0 -16.0 14.8 -17.15 13.2 -17.35 12.85 -18.65 10.7 Q-19.9 8.3 -20.5 5.85 L-20.6 5.35 Q-21.25 2.75 -21.15 0.1 L-21.0 -1.5 -21.2 -1.75 Q-20.95 -3.75 -20.3 -5.7 -17.65 -14.45 -9.65 -18.7 L-7.0 -19.9 Q-4.75 -20.8 -2.35 -21.1 L-1.85 -21.2 Q0.55 -21.5 2.95 -21.15 L6.2 -20.45 6.6 -20.35 6.85 -20.3 8.5 -19.7 11.35 -18.35 11.7 -18.15 12.3 -17.8" stroke-miterlimit="4.0" fill="none" style="stroke-linejoin: bevel; stroke-linecap: round; fill-rule: evenodd;" stroke-width="1.5" stroke="#433612"/>
      <path d="M9.05 20.15 Q2.75 23.05 -6.7 20.95 M21.85 2.45 Q21.6 4.45 20.95 6.5 18.25 15.2 10.25 19.5 L9.05 20.15" stroke-miterlimit="4.0" fill="none" style="stroke-linejoin: bevel; stroke-linecap: round; fill-rule: evenodd;" stroke-width="1.5" stroke="#5f4c15"/>
      <path d="M-6.7 20.95 Q-9.2 20.1 -11.3 18.8 L-13.1 17.55" stroke-miterlimit="4.0" fill="none" style="stroke-linejoin: bevel; stroke-linecap: round; fill-rule: evenodd;" stroke-width="1.5" stroke="url(#gradient7)"/>
      <path d="M-3.55 -26.5 Q-3.3 -25.25 -4.3 -24.1 -5.25 -23.0 -6.9 -22.7 -8.5 -22.4 -9.85 -23.05 -11.2 -23.8 -11.45 -25.05 -11.65 -26.3 -10.65 -27.45 -9.65 -28.6 -8.05 -28.9 -6.4 -29.2 -5.1 -28.5 -3.75 -27.75 -3.55 -26.5" fill-rule="evenodd" fill="#aa8c3e" style="stroke-linejoin: bevel; stroke-linecap: round; fill-rule: evenodd;" stroke="none"/>
      <path d="M-12.8 -21.9 Q-13.1 -21.2 -13.85 -20.8 L-15.35 -20.6 Q-16.15 -20.65 -16.5 -21.3 -16.8 -21.9 -16.5 -22.65 L-15.45 -23.75 -13.95 -23.95 Q-13.2 -23.75 -12.85 -23.2 -12.55 -22.55 -12.8 -21.9" fill-rule="evenodd" fill="#9a7d34" style="stroke-linejoin: bevel; stroke-linecap: round; fill-rule: evenodd;" stroke="none"/>
    </g>
    <path d="M 148.726 203.792 C 142.526 197.425 139.543 189.809 139.776 180.942 C 139.976 172.075 143.309 164.609 149.776 158.542 C 156.209 152.442 163.926 149.492 172.926 149.692 C 181.859 149.925 189.426 153.225 195.626 159.592 C 201.793 165.992 204.776 173.625 204.576 182.492 C 204.309 191.325 200.959 198.792 194.526 204.892 C 188.093 210.959 180.376 213.909 171.376 213.742 C 162.443 213.509 154.893 210.192 148.726 203.792 Z" fill="none" stroke="#2c1d06" stroke-linecap="butt" stroke-linejoin="miter-clip" stroke-miterlimit="4.0" stroke-width="1.5" style=""/>
  </g>
  <g transform="matrix(1, 0, 0, 1, -224.00990295410156, 14.943177223205563)" style="pointer-events: none;">
    <g>
      <g>
        <g transform="matrix(1, 0, 0, 1, 461.005646, 235.189575)">
          <path d="M12.5 102.95 Q12.75 100.95 15.5 98.95 21.0 94.9 33.45 95.1 L32.2 96.8 Q30.55 98.75 28.45 100.2 21.6 104.85 12.5 102.95" fill="#151616" fill-rule="evenodd" stroke="none"/>
          <path d="M-22.15 102.75 Q-30.65 105.6 -40.5 101.9 L-32.9 98.95 Q-23.7 96.5 -15.5 99.15 -17.8 101.35 -22.15 102.75" fill="#151616" fill-rule="evenodd" stroke="none"/>
          <path d="M-12.25 -65.05 L-16.1 -61.65 Q-20.7 -58.2 -24.75 -57.55 L-17.15 -55.4 Q-8.15 -53.55 -1.25 -55.15" fill="none" stroke="#700d20" stroke-linecap="round" stroke-linejoin="round" stroke-width="1.5"/>
          <path d="M75.0 -183.8 L72.1 -182.6 Q70.55 -181.85 71.55 -180.05 L72.85 -178.35 Q82.25 -169.45 83.75 -172.15 84.45 -173.5 82.85 -178.6 82.2 -180.45 80.05 -181.95 L77.0 -183.7 75.0 -183.8 M105.75 -183.65 Q106.6 -182.0 104.3 -182.65 L100.45 -183.75 96.7 -183.75 94.25 -183.6 96.05 -181.55 Q97.85 -179.35 97.6 -178.1 96.35 -171.5 92.5 -168.25 89.85 -164.95 88.75 -164.1 87.1 -162.75 83.5 -164.9 L73.85 -171.05 Q68.25 -174.8 67.6 -175.0 66.25 -175.45 64.55 -178.05 62.6 -180.9 63.85 -182.3 65.7 -184.4 69.55 -186.65 L67.0 -187.75 64.45 -183.45 61.4 -178.1 Q60.85 -177.95 58.2 -179.35 52.75 -182.2 41.6 -190.0 42.45 -194.5 43.85 -199.05 46.65 -208.1 49.55 -208.3 51.85 -208.45 54.75 -207.15 58.05 -205.75 61.5 -205.6 L69.85 -205.1 Q73.2 -204.65 74.65 -203.75 76.75 -202.4 85.55 -193.5 L95.1 -189.6 Q104.85 -185.25 105.75 -183.65" fill="#e0be90" fill-rule="evenodd" stroke="none"/>
          <path d="M69.6 -192.0 Q72.9 -195.85 76.4 -193.8 80.55 -191.35 86.75 -184.7 92.95 -178.05 93.65 -175.3 94.3 -172.5 90.35 -167.55 86.25 -162.6 84.0 -163.9 L75.45 -169.65 67.6 -175.0 Q65.75 -176.3 64.7 -178.9 63.45 -181.9 65.15 -183.35 67.6 -185.55 68.55 -186.05 69.2 -186.45 69.95 -186.5 L67.0 -187.75 69.6 -192.0 M72.35 -182.9 L71.5 -182.15 Q71.45 -180.2 75.2 -176.85 78.05 -174.35 82.05 -171.9 84.5 -170.25 83.65 -174.95 L82.35 -179.95 Q80.1 -182.0 74.5 -184.6 75.0 -184.15 74.9 -183.8 74.7 -183.45 73.9 -183.45 73.3 -183.65 72.35 -182.9" fill="#846952" fill-rule="evenodd" stroke="none"/>
          <path d="M61.15 -177.95 L65.15 -184.7 Q69.5 -191.85 71.35 -193.6 73.3 -195.45 75.0 -195.05 75.9 -194.8 77.75 -193.15 L86.0 -185.15 Q93.1 -178.05 93.55 -176.4 L94.0 -174.8 Q94.2 -172.75 93.0 -170.85" fill="none" stroke="#966328" stroke-linecap="round" stroke-linejoin="round" stroke-width="1.5"/>
          <path d="M74.95 -183.2 L72.95 -182.75 Q71.05 -182.15 71.3 -181.25 71.65 -180.1 75.05 -176.9 78.7 -173.55 81.45 -172.1 84.05 -170.75 83.95 -174.35 83.85 -177.65 82.35 -179.95 81.35 -181.5 74.6 -184.85 L68.0 -187.9" fill="none" stroke="#966328" stroke-linecap="round" stroke-linejoin="round" stroke-width="1.5"/>
          <path d="M102.55 -182.9 L97.3 -183.4 94.05 -183.4 86.7 -192.45 94.65 -189.45 Q103.1 -186.0 105.7 -183.65 L105.1 -183.0 102.55 -182.9" fill="#846952" fill-rule="evenodd" stroke="none"/>
          <path d="M41.35 -190.4 Q42.15 -194.25 43.5 -198.25 46.25 -206.4 49.05 -207.65 L51.9 -207.85 55.15 -206.45 Q60.95 -204.05 70.55 -205.35 L72.1 -205.05 Q74.3 -204.15 77.75 -201.5 80.8 -199.15 88.05 -190.3 95.5 -181.2 96.8 -180.05 99.0 -178.1 97.15 -174.15 95.7 -171.1 93.2 -168.85 L89.5 -164.5 Q87.05 -162.15 84.0 -163.9 81.55 -165.4 75.15 -169.85 69.35 -173.9 68.3 -174.4 66.5 -175.3 64.85 -178.0 63.05 -180.9 64.35 -182.2 L69.2 -186.25" fill="none" stroke="#966328" stroke-linecap="round" stroke-linejoin="round" stroke-width="1.5"/>
          <path d="M86.35 -192.9 L93.75 -190.15 Q101.95 -186.85 105.75 -183.85 105.85 -183.4 105.45 -183.1 L102.3 -183.0 96.45 -183.45 93.35 -183.3" fill="none" stroke="#966328" stroke-linecap="round" stroke-linejoin="round" stroke-width="1.5"/>
          <path d="M73.15 -201.25 Q71.0 -199.75 68.15 -196.85 62.4 -191.0 58.75 -183.55" fill="none" stroke="#966328" stroke-linecap="round" stroke-linejoin="round" stroke-width="1.5"/>
          <path d="M49.65 -203.05 Q52.2 -200.65 56.55 -200.05 L63.65 -200.25 68.25 -200.9 69.65 -200.25 Q71.2 -199.05 71.8 -195.7" fill="none" stroke="#966328" stroke-linecap="round" stroke-linejoin="round" stroke-width="1.5"/>
          <path d="M66.05 -187.2 Q65.85 -189.05 65.25 -190.85 64.05 -194.45 62.1 -194.1 59.15 -193.6 55.4 -194.0 50.75 -194.5 48.7 -196.15 47.4 -196.75 46.15 -196.8 L45.2 -196.75" fill="none" stroke="#966328" stroke-linecap="round" stroke-linejoin="round" stroke-width="1.5"/>
          <path d="M 96.05 -102.6 C 98.45 -103.6 98.467 -103.567 96.1 -102.5 L 96.05 -102.6 L 93.25 -101.45 L 92.05 -100 C 91.183 -98.733 90.567 -97.4 90.2 -96 C 89.133 -91.4 90.917 -86.883 95.55 -82.45 C 94.617 -81.183 93.067 -80.4 90.9 -80.1 C 86.533 -79.467 81.703 -81.662 75.537 -86.396 C 74.703 -77.329 76.6 -70.083 82.1 -64.95 C 84.867 -62.417 87.7 -60.783 90.6 -60.05 C 78.633 -54.583 68.483 -53.067 60.15 -55.5 C 57.55 -56.233 55.283 -57.333 53.35 -58.8 L 51.25 -60.75 C 50.583 -58.683 46.7 -57.15 39.6 -56.15 L 27.15 -54.6 C 25.783 -54.067 15.817 -54.033 -2.75 -54.5 C -21.15 -54.967 -27.983 -55.883 -23.25 -57.25 C -20.783 -57.95 -18.333 -59.4 -15.9 -61.6 L -13 -64.7 C -15.433 -63.067 -18.7 -61.917 -22.8 -61.25 C -26.9 -60.617 -29.8 -60.767 -31.5 -61.7 C -26.8 -66.767 -24.017 -72.233 -23.15 -78.1 C -22.483 -82.667 -22.967 -87.9 -24.6 -93.8 C -26.9 -92.033 -29.233 -90.667 -31.6 -89.7 L -34.4 -88.75 C -33.267 -92.617 -32.517 -97.1 -32.15 -102.2 C -32.05 -103.867 -33.05 -108.617 -35.15 -116.45 C -37.217 -124.35 -38.033 -131.9 -37.6 -139.1 C -37.033 -148.333 -33.533 -156.967 -27.1 -165 C -23.933 -169 -20.8 -172.083 -17.7 -174.25 C -7.467 -183.883 6.833 -189.067 25.2 -189.8 C 32.967 -190.133 40.117 -189.517 46.65 -187.95 C 53.25 -186.35 58.133 -184.05 61.3 -181.05 C 66.7 -176.017 71.417 -168.467 75.45 -158.4 C 77.817 -152.367 81.317 -142.35 85.95 -128.35 C 91.15 -114.117 94.517 -105.533 96.05 -102.6" fill="#700d36" fill-rule="evenodd" stroke="none"/>
          <path d="M96.05 -102.6 Q99.3 -103.9 96.1 -102.5 L96.05 -102.6" fill="#700d36" fill-rule="evenodd" stroke="none"/>
          <path d="M -17.7 -174.25 L -12.4 -178.5 C -12.667 -178.3 -12.683 -177.6 -12.45 -176.4 L -12.05 -174.05 L -12.15 -170.55 L -12.25 -167 C -12.517 -165.3 -12.8 -161.3 -13.1 -155 L -13.75 -143.1 C -14.05 -139.8 -14.767 -136.133 -15.9 -132.1 C -16.867 -128.733 -17.383 -125.1 -17.45 -121.2 L -16.4 -104.45 C -15.9 -97.383 -15.95 -91.783 -16.55 -87.65 C -16.983 -84.417 -17.3 -82.45 -17.5 -81.75 C -18.033 -79.25 -18.9 -76.917 -20.1 -74.75 C -21.133 -72.883 -22.383 -70.983 -23.85 -69.05 C -26.283 -65.85 -28.833 -63.4 -31.5 -61.7 C -26.8 -66.767 -24.017 -72.233 -23.15 -78.1 C -22.483 -82.667 -22.967 -87.9 -24.6 -93.8 C -26.9 -92.033 -29.51 -89.992 -33.077 -89.292 L -38.05 -89.55 C -37.05 -89.983 -36.033 -90.867 -35 -92.2 C -33.033 -94.767 -32.083 -98.1 -32.15 -102.2 C -32.15 -103.2 -33.117 -108.167 -35.05 -117.1 C -36.817 -125.2 -37.483 -132.967 -37.05 -140.4 C -36.483 -149.6 -33.083 -158 -26.85 -165.6 C -23.75 -169.367 -20.7 -172.25 -17.7 -174.25" fill="#b93335" fill-rule="evenodd" stroke="none"/>
          <path d="M 75 -81.25 C 75.333 -73.983 78.179 -68.832 83.246 -64.632 C 85.779 -62.599 88.133 -60.683 90.6 -60.05 C 86.8 -58.283 83.217 -56.95 79.85 -56.05 C 76.083 -59.05 73.683 -62.717 72.65 -67.05 C 71.517 -71.783 72.3 -76.517 75 -81.25" fill="#b93335" fill-rule="evenodd" stroke="none"/>
          <path d="M-23.75 -93.25 L-22.85 -86.45 Q-22.3 -78.6 -24.05 -73.1 -25.2 -69.15 -28.95 -64.6 -30.8 -62.4 -32.45 -60.9 L-25.85 -61.25 Q-18.15 -62.15 -13.0 -64.7 -8.0 -67.15 -3.75 -71.1 L-0.5 -74.6" fill="none" stroke="#700d20" stroke-linecap="round" stroke-linejoin="round" stroke-width="1.5"/>
          <path d="M96.05 -102.6 Q99.3 -103.9 96.1 -102.5 L96.05 -102.6" fill="#700d36" fill-rule="evenodd" stroke="none"/>
          <path d="M-38.35 -13.05 Q-36.2 -12.4 -34.35 -10.45 -32.45 -8.5 -32.0 -6.3 -31.5 -4.15 -32.7 -2.95 -33.95 -1.85 -36.1 -2.4 -38.25 -2.95 -40.15 -4.9 -42.0 -6.85 -42.45 -9.05 -42.95 -11.3 -41.75 -12.4 -40.55 -13.6 -38.35 -13.05" fill="#353333" fill-rule="evenodd" stroke="none"/>
          <path d="M-38.25 -12.85 Q-36.1 -12.25 -34.25 -10.3 -32.35 -8.35 -31.9 -6.1 -31.35 -3.9 -32.6 -2.8 -33.85 -1.65 -35.95 -2.2 -38.15 -2.8 -40.05 -4.75 -41.9 -6.7 -42.35 -8.9 -42.85 -11.15 -41.7 -12.25 -40.45 -13.45 -38.25 -12.85 Z" fill="none" stroke="#000000" stroke-linecap="round" stroke-linejoin="round" stroke-width="1.5"/>
          <path d="M-25.7 -18.75 Q-27.8 -20.5 -28.55 -22.6 -29.3 -24.7 -28.25 -25.95 -27.15 -27.25 -24.95 -27.0 -22.7 -26.7 -20.6 -24.95 -18.5 -23.25 -17.75 -21.15 -17.05 -19.05 -18.1 -17.75 -19.15 -16.45 -21.35 -16.75 -23.6 -17.0 -25.7 -18.75" fill="#353333" fill-rule="evenodd" stroke="none"/>
          <path d="M-25.5 -18.65 Q-23.35 -16.95 -21.2 -16.6 -18.95 -16.35 -17.9 -17.65 -16.8 -18.9 -17.55 -21.05 -18.3 -23.15 -20.45 -24.9 -22.6 -26.6 -24.75 -26.9 -27.0 -27.2 -28.05 -25.9 -29.15 -24.65 -28.35 -22.5 -27.6 -20.35 -25.5 -18.65 Z" fill="none" stroke="#000000" stroke-linecap="round" stroke-linejoin="round" stroke-width="1.5"/>
          <path d="M5.35 -89.55 L10.2 -91.5 48.1 -91.4 38.75 -78.25 39.35 -77.2 Q41.35 -76.05 48.15 -75.05 51.05 -74.6 52.15 -71.6 53.25 -68.35 50.35 -65.65 44.8 -60.4 40.1 -54.55 L35.8 -49.6 -6.45 -64.8 -29.15 -47.2 -26.35 -30.95 -35.0 -28.15 -40.3 -40.8 -42.8 -50.9 -37.8 -55.3 -31.05 -61.0 Q-28.5 -62.55 5.35 -89.55" fill="#f6b994" fill-rule="evenodd" stroke="none"/>
          <path d="M9.75 -70.9 Q4.6 -70.6 -0.9 -67.05 -3.65 -65.3 -5.4 -63.55 L-29.25 -47.55 -26.5 -31.0 -31.1 -29.65 -31.1 -50.75 -13.95 -63.4 Q3.85 -76.1 7.0 -76.4 10.15 -76.7 10.25 -73.8 10.3 -72.4 9.75 -70.9" fill="#d98682" fill-rule="evenodd" stroke="none"/>
          <path d="M48.8 -91.8 L43.25 -84.45 41.2 -82.0 Q40.1 -80.55 39.55 -79.3 39.2 -78.4 39.25 -77.65 39.35 -76.75 40.15 -76.65 L45.2 -76.0 Q48.4 -75.6 50.45 -73.9 53.2 -71.75 52.15 -68.25 51.25 -65.35 48.15 -62.85 43.55 -58.95 41.95 -57.05 37.3 -51.5 36.8 -49.9" fill="none" stroke="#68291a" stroke-linecap="round" stroke-linejoin="round" stroke-width="1.5"/>
          <path d="M12.15 -89.0 Q11.45 -90.15 10.3 -90.8 7.95 -92.1 5.35 -89.55 2.6 -86.8 -12.8 -74.85 -26.1 -64.5 -32.85 -59.6 L-39.85 -54.05 Q-42.85 -51.4 -42.8 -50.9 -41.3 -43.65 -38.45 -36.45 -35.7 -29.55 -35.0 -25.8" fill="none" stroke="#68291a" stroke-linecap="round" stroke-linejoin="round" stroke-width="1.5"/>
          <path d="M3.4 -69.7 Q-24.8 -49.9 -29.15 -47.2" fill="none" stroke="#68291a" stroke-linecap="round" stroke-linejoin="round" stroke-width="1.5"/>
          <path d="M-29.15 -48.25 L-28.3 -41.15 Q-27.05 -32.0 -27.05 -28.9" fill="none" stroke="#68291a" stroke-linecap="round" stroke-linejoin="round" stroke-width="1.5"/>
          <path d="M45.1 -71.6 Q47.65 -71.8 47.05 -70.2 46.6 -69.1 44.9 -67.65 46.65 -66.9 45.8 -65.35 45.0 -63.85 43.4 -63.7 45.7 -62.45 44.75 -61.25 44.2 -60.55 41.9 -59.0 43.1 -57.55 41.7 -56.05 L38.9 -53.7 Q41.1 -53.65 40.25 -52.0 39.65 -50.65 38.25 -49.7 39.75 -49.1 38.6 -47.3 L36.55 -44.9 37.15 -44.35 Q35.65 -43.15 34.45 -44.45 33.45 -45.5 33.1 -47.3 32.7 -49.6 33.0 -52.5 33.45 -58.3 36.1 -65.05 L37.85 -70.45 Q38.9 -73.65 40.3 -75.5 42.35 -78.1 44.45 -77.5 46.5 -76.95 46.35 -74.9 46.25 -73.4 45.1 -71.6" fill="#ffffff" fill-rule="evenodd" stroke="none"/>
          <path d="M45.1 -71.6 Q47.65 -71.8 47.05 -70.2 46.6 -69.1 44.9 -67.65 46.65 -66.9 45.8 -65.35 45.0 -63.85 43.4 -63.7 45.7 -62.45 44.75 -61.25 44.2 -60.55 41.9 -59.0 43.1 -57.55 41.7 -56.05 L38.9 -53.7 Q41.1 -53.65 40.25 -52.0 39.65 -50.65 38.25 -49.7 39.75 -49.1 38.6 -47.3 L36.55 -44.9 37.15 -44.35 Q35.65 -43.15 34.45 -44.45 33.45 -45.5 33.1 -47.3 32.7 -49.6 33.0 -52.5 33.45 -58.3 36.1 -65.05 L37.85 -70.45 Q38.9 -73.65 40.3 -75.5 42.35 -78.1 44.45 -77.5 46.5 -76.95 46.35 -74.9 46.25 -73.4 45.1 -71.6 Z" fill="none" stroke="#5f5675" stroke-linecap="butt" stroke-linejoin="miter-clip" stroke-miterlimit="4.0" stroke-width="1.0"/>
          <path d="M39.8 -70.9 L36.85 -66.0 Q34.25 -61.6 31.65 -59.7 27.65 -56.8 25.65 -61.7 L26.2 -60.9 Q26.0 -63.15 26.95 -65.0 28.1 -67.25 30.15 -65.45 29.15 -68.25 30.2 -69.3 30.8 -69.95 31.75 -69.75 32.65 -69.6 33.05 -69.05 32.35 -70.4 33.6 -71.9 34.7 -73.3 35.4 -72.1 34.95 -73.4 35.75 -74.65 36.55 -76.0 37.7 -74.65 36.55 -76.35 38.45 -77.45 40.6 -78.7 41.15 -76.25 41.6 -74.2 39.8 -70.9" fill="#ffffff" fill-rule="evenodd" stroke="none"/>
          <path d="M25.65 -61.7 L26.05 -60.8 M37.95 -74.25 L37.7 -74.65" fill="none" stroke="#5f5675" stroke-linecap="butt" stroke-linejoin="miter-clip" stroke-miterlimit="4.0" stroke-width="1.0"/>
          <path d="M26.05 -60.8 Q26.0 -63.15 26.95 -65.0 28.1 -67.25 30.15 -65.45 29.15 -68.25 30.2 -69.3 30.8 -69.95 31.75 -69.75 32.65 -69.6 33.05 -69.05 32.35 -70.4 33.6 -71.9 34.7 -73.3 35.4 -72.1 34.95 -73.4 35.75 -74.65 36.55 -76.0 37.7 -74.65 36.55 -76.35 38.45 -77.45 40.6 -78.7 41.15 -76.25 41.6 -74.2 39.8 -70.9 L36.85 -66.0 Q34.25 -61.6 31.65 -59.7 28.05 -57.05 26.05 -60.8" fill="none" stroke="#5f5675" stroke-linecap="round" stroke-linejoin="miter-clip" stroke-miterlimit="4.0" stroke-width="1.0"/>
          <path d="M35.4 -72.1 L35.55 -71.6" fill="none" stroke="#5f5675" stroke-linecap="round" stroke-linejoin="miter-clip" stroke-miterlimit="4.0" stroke-width="1.0"/>
          <path d="M28.1 -71.9 L26.7 -71.05 Q28.55 -71.3 28.6 -69.9 28.65 -68.5 26.9 -68.35 28.65 -67.4 28.4 -65.9 28.1 -64.45 26.3 -63.5 L25.2 -63.05 24.65 -64.3 22.55 -69.5 Q21.15 -73.6 21.5 -77.55 21.8 -81.55 23.9 -83.5 24.2 -84.6 25.05 -84.75 25.85 -84.85 26.7 -83.95 28.9 -81.6 25.9 -80.6 28.1 -81.25 28.05 -79.9 28.05 -78.45 26.25 -78.1 28.4 -78.45 28.4 -76.65 28.35 -74.9 26.9 -74.6 27.65 -74.75 28.35 -74.3 29.15 -73.85 29.05 -73.1 29.0 -72.55 28.1 -71.9" fill="#ffffff" fill-rule="evenodd" stroke="none"/>
          <path d="M23.9 -83.5 Q24.2 -84.6 25.05 -84.75 25.85 -84.85 26.7 -83.95 28.9 -81.6 25.9 -80.6 28.1 -81.25 28.05 -79.9 28.05 -78.45 26.25 -78.1 28.4 -78.45 28.4 -76.65 28.35 -74.9 26.9 -74.6 27.65 -74.75 28.35 -74.3 29.15 -73.85 29.05 -73.1 29.0 -72.55 28.1 -71.9 L26.7 -71.05 Q28.55 -71.3 28.6 -69.9 28.65 -68.5 26.9 -68.35 28.65 -67.4 28.4 -65.9 28.1 -64.45 26.3 -63.5 L25.2 -63.05 24.65 -64.3 22.55 -69.5 Q21.15 -73.6 21.5 -77.55 21.8 -81.35 23.75 -83.25 L23.9 -83.5" fill="none" stroke="#5f5675" stroke-linecap="round" stroke-linejoin="miter-clip" stroke-miterlimit="4.0" stroke-width="1.0"/>
          <path d="M23.9 -83.5 L24.95 -84.3" fill="none" stroke="#5f5675" stroke-linecap="round" stroke-linejoin="miter-clip" stroke-miterlimit="4.0" stroke-width="1.0"/>
          <path d="M25.85 -80.55 L25.9 -80.6" fill="none" stroke="#5f5675" stroke-linecap="butt" stroke-linejoin="miter-clip" stroke-miterlimit="4.0" stroke-width="1.0"/>
          <path d="M8.85 -74.6 L10.35 -74.75 11.65 -73.85 11.3 -75.55 Q11.15 -76.55 11.55 -77.2 11.9 -78.0 12.65 -78.15 13.45 -78.4 14.0 -77.8 12.8 -79.15 13.15 -80.9 13.5 -82.9 15.45 -81.75 14.4 -82.45 14.65 -83.85 14.9 -85.4 16.4 -85.05 14.85 -86.3 16.2 -87.7 L18.7 -87.75 Q19.2 -87.25 19.35 -84.2 19.65 -80.95 18.65 -78.35 17.0 -74.2 14.9 -72.0 L12.6 -70.2 Q10.8 -69.1 10.25 -68.6 L6.6 -65.0 Q4.4 -62.75 2.75 -61.75 -7.8 -58.8 -6.5 -62.0 L-6.4 -61.55 Q-6.45 -62.9 -6.1 -63.4 -5.8 -64.0 -4.6 -64.25 -1.95 -64.55 -1.75 -63.15 L-1.9 -65.0 Q-1.85 -66.15 -0.9 -66.4 -0.35 -66.6 0.55 -66.0 L2.0 -65.05 1.85 -66.85 Q1.75 -67.9 2.55 -68.45 3.6 -69.0 5.35 -67.6 L4.85 -69.9 Q4.6 -71.25 5.4 -72.0 6.2 -72.8 7.2 -72.45 L9.0 -71.6 8.5 -73.2 Q8.35 -74.15 8.85 -74.6" fill="#ffffff" fill-rule="evenodd" stroke="none"/>
          <path d="M8.85 -74.6 L10.35 -74.75 11.65 -73.85 11.3 -75.55 Q11.15 -76.55 11.55 -77.2 11.9 -78.0 12.65 -78.15 13.45 -78.4 14.0 -77.8 12.8 -79.15 13.15 -80.9 13.5 -82.9 15.45 -81.75 14.4 -82.45 14.65 -83.85 14.9 -85.4 16.4 -85.05 14.85 -86.3 16.2 -87.7 L18.7 -87.75 Q19.2 -87.25 19.35 -84.2 19.65 -80.95 18.65 -78.35 17.0 -74.2 14.9 -72.0 L12.6 -70.2 Q10.8 -69.1 10.25 -68.6 L6.6 -65.0 Q4.4 -62.75 2.75 -61.75 -7.05 -59.0 -6.5 -61.55 L-6.4 -62.0 Q-6.4 -63.0 -6.1 -63.4 -5.8 -64.0 -4.6 -64.25 -1.95 -64.55 -1.75 -63.15 L-1.9 -65.0 Q-1.85 -66.15 -0.9 -66.4 -0.35 -66.6 0.55 -66.0 L2.0 -65.05 1.85 -66.85 Q1.75 -67.9 2.55 -68.45 3.6 -69.0 5.35 -67.6 L4.85 -69.9 Q4.6 -71.25 5.4 -72.0 6.2 -72.8 7.2 -72.45 L9.0 -71.6 8.5 -73.2 Q8.35 -74.15 8.85 -74.6 Z" fill="none" stroke="#5f5675" stroke-linecap="butt" stroke-linejoin="miter-clip" stroke-miterlimit="4.0" stroke-width="1.0"/>
          <path d="M-35.55 70.25 Q-27.1 65.05 -24.5 61.75 L-23.4 84.4 Q-22.75 108.85 -24.6 117.75 L-34.75 120.05 Q-34.95 113.7 -36.2 104.85 -38.6 87.15 -43.45 74.8 -39.75 72.9 -35.55 70.25" fill="#6f677f" fill-rule="evenodd" stroke="none"/>
          <path d="M-24.5 61.75 L-24.0 74.8 -26.85 78.25 Q-30.4 82.05 -34.3 83.95 L-32.1 97.0 Q-30.15 111.55 -31.05 118.9 L-35.0 118.5 Q-35.9 111.1 -37.6 101.45 -40.9 82.2 -44.65 70.8 L-36.8 69.15 Q-28.45 66.6 -25.95 62.2 L-24.5 61.75" fill="#564d68" fill-rule="evenodd" stroke="none"/>
          <path d="M14.55 98.7 Q8.85 81.8 1.75 70.55 L8.65 64.6 Q15.95 57.95 17.95 54.1 L23.25 76.25 Q28.5 100.15 28.3 109.25 L18.8 113.4 Q17.4 107.15 14.55 98.7" fill="#6f677f" fill-rule="evenodd" stroke="none"/>
          <path d="M20.9 66.9 L18.75 70.8 Q15.95 75.25 12.5 77.8 L17.0 90.25 Q21.7 104.15 22.25 111.6 L18.25 111.85 Q16.45 105.7 13.5 97.45 7.55 80.95 1.75 70.55 4.8 68.55 8.25 65.6 15.0 59.65 16.7 54.85 L17.95 54.1 20.9 66.9" fill="#564d68" fill-rule="evenodd" stroke="none"/>
          <path d="M-24.3 116.65 Q-22.45 103.4 -24.1 71.1" fill="none" stroke="#342a49" stroke-linecap="round" stroke-linejoin="round" stroke-width="1.5"/>
          <path d="M-44.3 71.8 L-41.6 81.4 Q-38.7 91.75 -37.75 96.0 -36.75 100.55 -35.85 108.5 -35.05 115.25 -35.0 117.9" fill="none" stroke="#342a49" stroke-linecap="round" stroke-linejoin="round" stroke-width="1.5"/>
          <path d="M-25.6 71.5 Q-27.15 74.85 -30.1 77.7 -34.25 81.85 -40.6 84.35" fill="none" stroke="#342a49" stroke-linecap="round" stroke-linejoin="round" stroke-width="1.5"/>
          <path d="M-31.6 72.5 Q-35.85 76.45 -41.85 78.9" fill="none" stroke="#342a49" stroke-linecap="round" stroke-linejoin="round" stroke-width="1.5"/>
          <path d="M-34.05 72.1 Q-31.9 73.0 -29.9 73.35 L-24.2 73.55" fill="none" stroke="#342a49" stroke-linecap="round" stroke-linejoin="round" stroke-width="1.5"/>
          <path d="M-43.8 72.85 Q-40.4 74.85 -35.9 76.2 -29.85 78.05 -24.6 77.7" fill="none" stroke="#342a49" stroke-linecap="round" stroke-linejoin="round" stroke-width="1.5"/>
          <path d="M-42.15 79.05 Q-39.1 80.55 -34.8 81.55 -29.45 82.75 -24.7 82.45" fill="none" stroke="#342a49" stroke-linecap="round" stroke-linejoin="round" stroke-width="1.5"/>
          <path d="M-40.45 84.1 Q-33.55 88.2 -23.75 87.55" fill="none" stroke="#342a49" stroke-linecap="round" stroke-linejoin="round" stroke-width="1.5"/>
          <path d="M-39.15 89.45 Q-32.65 93.35 -23.5 93.0" fill="none" stroke="#342a49" stroke-linecap="round" stroke-linejoin="round" stroke-width="1.5"/>
          <path d="M-37.8 94.95 Q-32.0 98.35 -23.7 98.35" fill="none" stroke="#342a49" stroke-linecap="round" stroke-linejoin="round" stroke-width="1.5"/>
          <path d="M-37.05 100.05 Q-31.55 103.45 -23.75 103.75" fill="none" stroke="#342a49" stroke-linecap="round" stroke-linejoin="round" stroke-width="1.5"/>
          <path d="M-36.15 105.25 Q-31.0 108.45 -24.25 109.0" fill="none" stroke="#342a49" stroke-linecap="round" stroke-linejoin="round" stroke-width="1.5"/>
          <path d="M-35.15 110.45 Q-30.5 113.45 -24.35 114.2" fill="none" stroke="#342a49" stroke-linecap="round" stroke-linejoin="round" stroke-width="1.5"/>
          <path d="M-35.2 114.95 Q-31.8 117.45 -27.75 118.65" fill="none" stroke="#342a49" stroke-linecap="round" stroke-linejoin="round" stroke-width="1.5"/>
          <path d="M-23.75 77.2 Q-25.15 80.55 -28.0 83.6 -32.35 88.2 -39.15 90.9" fill="none" stroke="#342a49" stroke-linecap="round" stroke-linejoin="round" stroke-width="1.5"/>
          <path d="M-23.7 86.5 Q-28.2 93.6 -37.7 97.4" fill="none" stroke="#342a49" stroke-linecap="round" stroke-linejoin="round" stroke-width="1.5"/>
          <path d="M-23.65 95.0 Q-28.0 100.6 -36.2 103.95" fill="none" stroke="#342a49" stroke-linecap="round" stroke-linejoin="round" stroke-width="1.5"/>
          <path d="M-23.6 103.2 Q-27.8 107.65 -34.75 110.5" fill="none" stroke="#342a49" stroke-linecap="round" stroke-linejoin="round" stroke-width="1.5"/>
          <path d="M-34.75 117.75 Q-28.2 115.05 -23.9 110.8" fill="none" stroke="#342a49" stroke-linecap="round" stroke-linejoin="round" stroke-width="1.5"/>
          <path d="M28.4 108.05 Q27.9 97.65 22.8 74.9 L17.8 54.2" fill="none" stroke="#342a49" stroke-linecap="round" stroke-linejoin="round" stroke-width="1.5"/>
          <path d="M1.75 70.55 L5.5 78.05 11.3 90.3 Q13.15 94.55 15.55 102.25 L18.1 111.3" fill="none" stroke="#342a49" stroke-linecap="round" stroke-linejoin="round" stroke-width="1.5"/>
          <path d="M19.15 61.35 L18.9 63.05 Q18.5 65.15 17.45 67.35 14.2 74.35 6.3 79.4" fill="none" stroke="#342a49" stroke-linecap="round" stroke-linejoin="round" stroke-width="1.5"/>
          <path d="M16.9 56.2 L16.7 57.85 Q16.25 60.0 15.25 62.2 12.0 69.2 4.1 74.25" fill="none" stroke="#342a49" stroke-linecap="round" stroke-linejoin="round" stroke-width="1.5"/>
          <path d="M12.85 61.65 Q16.25 61.9 19.35 61.55" fill="none" stroke="#342a49" stroke-linecap="round" stroke-linejoin="round" stroke-width="1.5"/>
          <path d="M8.5 65.75 Q14.2 67.0 20.5 65.7" fill="none" stroke="#342a49" stroke-linecap="round" stroke-linejoin="round" stroke-width="1.5"/>
          <path d="M3.9 69.6 Q11.3 72.3 20.85 69.85" fill="none" stroke="#342a49" stroke-linecap="round" stroke-linejoin="round" stroke-width="1.5"/>
          <path d="M3.4 74.6 Q6.55 75.5 11.35 75.65 16.9 75.75 21.6 74.55" fill="none" stroke="#342a49" stroke-linecap="round" stroke-linejoin="round" stroke-width="1.5"/>
          <path d="M6.45 79.05 Q14.05 81.8 23.5 79.4" fill="none" stroke="#342a49" stroke-linecap="round" stroke-linejoin="round" stroke-width="1.5"/>
          <path d="M8.75 84.15 Q15.85 86.7 24.8 84.65" fill="none" stroke="#342a49" stroke-linecap="round" stroke-linejoin="round" stroke-width="1.5"/>
          <path d="M11.1 89.25 Q17.5 91.6 25.6 90.0" fill="none" stroke="#342a49" stroke-linecap="round" stroke-linejoin="round" stroke-width="1.5"/>
          <path d="M12.8 94.15 Q19.05 96.45 26.55 95.3" fill="none" stroke="#342a49" stroke-linecap="round" stroke-linejoin="round" stroke-width="1.5"/>
          <path d="M14.65 99.05 Q20.1 101.3 27.05 100.55" fill="none" stroke="#342a49" stroke-linecap="round" stroke-linejoin="round" stroke-width="1.5"/>
          <path d="M16.65 104.05 Q21.7 106.15 27.9 105.7" fill="none" stroke="#342a49" stroke-linecap="round" stroke-linejoin="round" stroke-width="1.5"/>
          <path d="M17.35 108.4 Q20.9 110.25 25.4 110.7" fill="none" stroke="#342a49" stroke-linecap="round" stroke-linejoin="round" stroke-width="1.5"/>
          <path d="M21.6 69.2 Q20.85 72.85 18.6 76.3 15.25 81.55 9.0 85.55" fill="none" stroke="#342a49" stroke-linecap="round" stroke-linejoin="round" stroke-width="1.5"/>
          <path d="M23.35 78.35 Q20.25 86.2 11.7 91.7" fill="none" stroke="#342a49" stroke-linecap="round" stroke-linejoin="round" stroke-width="1.5"/>
          <path d="M25.05 86.7 Q21.65 93.1 14.35 97.8" fill="none" stroke="#342a49" stroke-linecap="round" stroke-linejoin="round" stroke-width="1.5"/>
          <path d="M26.6 94.75 Q23.3 99.95 17.0 103.95" fill="none" stroke="#342a49" stroke-linecap="round" stroke-linejoin="round" stroke-width="1.5"/>
          <path d="M27.65 102.25 Q24.35 107.15 18.35 111.1" fill="none" stroke="#342a49" stroke-linecap="round" stroke-linejoin="round" stroke-width="1.5"/>
          <path d="M13.1 64.95 L17.9 61.7 Q20.75 59.6 23.0 58.85 26.95 57.35 27.95 61.3 28.35 62.75 27.9 64.05 27.5 65.45 26.45 65.55 27.4 68.05 25.6 69.3 23.95 70.35 21.5 69.95 L20.6 72.55 Q19.9 73.9 18.6 74.45 L15.85 74.5 14.25 74.0 Q14.95 75.35 12.65 77.25 9.55 79.85 7.15 77.75 7.4 82.25 4.25 83.0 1.4 83.7 -1.7 81.0 L-4.45 83.75 Q-6.05 85.0 -7.95 84.8 -9.25 84.7 -11.25 82.95 -13.25 81.25 -14.25 81.1 -15.4 81.0 -17.7 82.85 -19.95 84.7 -21.5 84.55 -24.7 84.15 -27.0 79.6 L-30.25 81.6 Q-32.2 82.7 -34.0 82.45 -36.1 82.2 -37.2 80.6 -38.25 79.2 -38.2 77.1 -40.75 78.25 -42.2 78.65 L-46.25 78.55 Q-47.85 77.7 -48.35 75.45 L-48.6 71.55 Q-51.4 72.75 -54.4 70.8 -57.45 68.8 -56.6 65.75 -56.95 66.95 -61.75 63.2 -62.7 61.8 -62.55 60.35 L-61.85 57.45 -61.45 55.45 -59.7 55.25 Q-58.75 55.35 -57.4 56.2 -56.3 56.9 -55.45 57.75 -50.3 62.5 -39.1 63.55 L-20.95 64.55 -13.35 65.55 -5.65 66.05 0.0 65.7 5.6 65.5 9.4 65.75 Q11.55 65.75 13.1 64.95" fill="#ffffff" fill-rule="evenodd" stroke="none"/>
          <path d="M13.4 73.05 L14.25 74.0" fill="none" stroke="#5f5675" stroke-linecap="butt" stroke-linejoin="miter-clip" stroke-miterlimit="4.0" stroke-width="1.0"/>
          <path d="M14.25 74.0 L15.85 74.5 18.6 74.45 Q19.9 73.9 20.6 72.55 L21.5 69.95 Q23.95 70.35 25.6 69.3 27.4 68.05 26.45 65.55 27.5 65.45 27.9 64.05 28.35 62.75 27.95 61.3 26.95 57.35 23.0 58.85 20.75 59.6 17.9 61.7 L13.1 64.95 Q11.55 65.75 9.4 65.75 L5.6 65.5 0.0 65.7 -5.65 66.05 -13.35 65.55 -20.95 64.55 -39.1 63.55 Q-50.3 62.5 -55.45 57.75 -56.3 56.9 -57.4 56.2 -58.75 55.35 -59.7 55.25 L-61.45 55.45 -61.85 57.45 -62.55 60.35 Q-62.7 61.8 -61.75 63.2 -56.95 66.95 -56.6 65.75 -57.45 68.8 -54.4 70.8 -51.4 72.75 -48.6 71.55 L-48.35 75.45 Q-47.85 77.7 -46.25 78.55 L-42.2 78.65 Q-40.75 78.25 -38.2 77.1 -38.25 79.2 -37.2 80.6 -36.1 82.2 -34.0 82.45 -32.2 82.7 -30.25 81.6 L-27.0 79.6 Q-24.7 84.15 -21.5 84.55 -19.95 84.7 -17.7 82.85 -15.4 81.0 -14.25 81.1 -13.25 81.25 -11.25 82.95 -9.25 84.7 -7.95 84.8 -6.05 85.0 -4.45 83.75 L-1.7 81.0 Q1.4 83.7 4.25 83.0 7.4 82.25 7.15 77.75 9.55 79.85 12.65 77.25 14.95 75.35 14.25 74.0" fill="none" stroke="#5f5675" stroke-linecap="round" stroke-linejoin="miter-clip" stroke-miterlimit="4.0" stroke-width="1.0"/>
          <path d="M14.25 74.0 L13.1 73.6" fill="none" stroke="#5f5675" stroke-linecap="round" stroke-linejoin="miter-clip" stroke-miterlimit="4.0" stroke-width="1.0"/>
          <path d="M-48.95 -19.2 Q-42.2 -22.05 -35.0 -23.05 L-14.7 -21.45 Q6.95 -18.6 13.3 -12.4 L20.6 -5.65 Q28.65 2.6 32.95 10.2 42.95 28.3 40.55 42.7 38.1 57.55 22.85 64.9 20.4 66.1 14.6 70.2 L9.4 74.05 Q3.95 76.2 -3.85 77.85 -19.65 81.1 -32.0 78.6 -44.35 76.1 -51.0 69.7 -53.1 67.7 -54.35 65.5 L-55.2 63.75 Q-58.85 63.7 -63.35 61.7 -72.25 57.55 -75.9 47.5 -78.7 42.85 -79.65 34.65 -81.55 18.2 -72.2 0.45 -61.9 -13.7 -48.95 -19.2" fill="#151616" fill-rule="evenodd" stroke="none"/>
          <path d="M-41.25 -19.65 Q-38.25 -21.15 -36.4 -20.35 L-35.2 -20.55 -33.0 -20.25 -28.65 -19.55 -25.9 -19.15 -23.15 -18.6 -16.85 -16.05 -12.35 -14.4 Q-9.25 -13.45 -7.8 -12.7 L-1.8 -9.8 Q1.65 -8.25 4.6 -8.2 L7.95 -8.25 11.25 -8.5 13.05 -8.25 14.6 -7.6 Q15.4 -7.25 17.45 -6.8 19.25 -6.25 19.55 -5.15 19.75 -4.2 19.25 -3.05 18.8 -1.95 18.1 -1.6 20.7 -1.5 21.65 -0.1 22.4 1.0 21.95 2.65 21.5 4.15 20.4 5.05 23.3 5.15 24.45 7.45 25.2 8.85 24.75 10.05 24.35 11.05 23.05 12.3 23.7 11.7 24.85 12.05 26.0 12.4 26.35 13.1 26.95 14.0 26.8 15.8 26.75 17.55 26.2 18.5 L25.8 18.55 Q27.55 19.7 27.6 22.75 27.6 25.9 25.05 25.55 27.2 27.05 26.05 29.8 24.9 32.45 22.55 32.9 24.15 34.75 22.3 37.5 20.5 40.1 18.15 40.0 19.3 42.3 17.0 44.6 15.9 45.65 14.35 45.55 L13.2 45.25 12.1 45.15 Q11.8 45.25 11.6 45.95 L11.15 46.95 Q10.15 48.45 8.8 49.15 L5.65 49.1 4.55 48.05 Q3.95 47.7 3.35 48.45 3.05 48.85 2.85 50.05 2.7 51.1 2.2 51.5 0.95 52.5 -1.3 51.3 -3.2 50.35 -4.25 48.95 -4.4 49.7 -5.35 50.75 L-6.95 52.2 -10.6 52.05 Q-12.5 51.0 -13.1 49.15 -15.95 52.25 -19.0 52.15 -20.45 52.1 -21.45 51.2 L-23.15 49.0 Q-23.75 48.05 -24.1 48.0 -24.35 47.95 -25.4 48.6 -27.7 49.85 -28.65 50.1 -30.8 50.65 -32.55 48.75 -33.4 47.8 -34.95 44.9 -38.45 47.05 -40.65 45.95 -42.25 45.2 -42.8 43.85 L-43.25 40.85 -45.7 41.05 Q-47.35 41.2 -48.1 40.5 -49.15 39.6 -48.6 37.15 -48.05 34.55 -48.85 33.85 -49.05 33.6 -50.35 33.5 -51.6 33.4 -51.85 32.95 -52.6 31.95 -51.3 30.2 L-49.5 27.7 Q-51.25 27.05 -52.1 26.75 -53.5 26.1 -53.55 24.7 -53.6 23.7 -53.05 22.2 L-52.05 19.85 -54.45 18.8 Q-55.45 18.0 -55.25 16.45 -55.05 15.05 -54.1 14.0 L-52.15 12.1 Q-52.4 11.9 -53.2 11.45 -53.85 11.1 -54.1 10.45 -54.65 9.15 -54.1 7.65 -53.85 6.8 -52.15 5.2 -50.65 3.75 -50.55 3.05 -52.1 3.1 -52.45 2.05 -52.7 1.15 -52.15 -0.4 -51.6 -1.8 -50.45 -2.35 -49.5 -2.65 -49.35 -2.8 L-49.25 -3.85 -49.45 -4.95 -49.65 -6.2 Q-49.4 -7.6 -48.3 -8.2 -47.2 -8.8 -45.75 -8.6 -47.05 -8.8 -47.15 -10.3 -47.3 -11.7 -46.55 -12.65 -45.0 -14.7 -41.95 -15.05 -44.0 -18.2 -41.25 -19.65" fill="#ffffff" fill-rule="evenodd" stroke="none"/>
          <path d="M-36.4 -20.35 Q-38.25 -21.15 -41.25 -19.65 -44.0 -18.2 -41.95 -15.05 -45.0 -14.7 -46.55 -12.65 -47.3 -11.7 -47.15 -10.3 -47.05 -8.8 -45.75 -8.6 -47.2 -8.8 -48.3 -8.2 -49.4 -7.6 -49.65 -6.2 L-49.45 -4.95 -49.25 -3.85 -49.35 -2.8 Q-49.5 -2.65 -50.45 -2.35 -51.6 -1.8 -52.15 -0.4 -52.7 1.15 -52.45 2.05 -52.1 3.1 -50.55 3.05 -50.65 3.75 -52.15 5.2 -53.85 6.8 -54.1 7.65 -54.65 9.15 -54.1 10.45 -53.85 11.1 -53.2 11.45 -52.4 11.9 -52.15 12.1 L-54.1 14.0 Q-55.05 15.05 -55.25 16.45 -55.45 18.0 -54.45 18.8 L-52.05 19.85 -53.05 22.2 Q-53.6 23.7 -53.55 24.7 -53.5 26.1 -52.1 26.75 -51.25 27.05 -49.5 27.7 L-51.3 30.2 Q-52.6 31.95 -51.85 32.95 -51.6 33.4 -50.35 33.5 -49.05 33.6 -48.85 33.85 -48.05 34.55 -48.6 37.15 -49.15 39.6 -48.1 40.5 -47.35 41.2 -45.7 41.05 L-43.25 40.85 -42.8 43.85 Q-42.25 45.2 -40.65 45.95 -38.45 47.05 -34.95 44.9 -33.4 47.8 -32.55 48.75 -30.8 50.65 -28.65 50.1 -27.7 49.85 -25.4 48.6 -24.35 47.95 -24.1 48.0 -23.75 48.05 -23.15 49.0 L-21.45 51.2 Q-20.45 52.1 -19.0 52.15 -15.95 52.25 -13.1 49.15 -12.5 51.0 -10.6 52.05 L-6.95 52.2 -5.35 50.75 Q-4.4 49.7 -4.25 48.95 -3.2 50.35 -1.3 51.3 0.95 52.5 2.2 51.5 2.7 51.1 2.85 50.05 3.05 48.85 3.35 48.45 3.95 47.7 4.55 48.05 L5.65 49.1 8.8 49.15 Q10.15 48.45 11.15 46.95 L11.6 45.95 Q11.8 45.25 12.1 45.15 L13.2 45.25 14.35 45.55 Q15.9 45.65 17.0 44.6 19.3 42.3 18.15 40.0 20.5 40.1 22.3 37.5 24.15 34.75 22.55 32.9 24.9 32.45 26.05 29.8 27.2 27.05 25.05 25.55 27.6 25.9 27.6 22.75 27.55 19.7 25.8 18.55 L26.2 18.5 Q26.75 17.55 26.8 15.8 26.95 14.0 26.35 13.1 26.0 12.4 24.85 12.05 23.7 11.7 23.05 12.3 24.35 11.05 24.75 10.05 25.2 8.85 24.45 7.45 23.3 5.15 20.4 5.05 21.5 4.15 21.95 2.65 22.4 1.0 21.65 -0.1 20.7 -1.5 18.1 -1.6 18.8 -1.95 19.25 -3.05 19.75 -4.2 19.55 -5.15 19.25 -6.25 17.45 -6.8 15.4 -7.25 14.6 -7.6 L13.05 -8.25 11.25 -8.5 7.95 -8.25 4.6 -8.2 Q1.65 -8.25 -1.8 -9.8 L-7.8 -12.7 Q-9.25 -13.45 -12.35 -14.4 L-16.85 -16.05 -23.15 -18.6 -25.9 -19.15 -28.65 -19.55 -33.0 -20.25 -35.2 -20.55 -36.4 -20.35" fill="none" stroke="#5f5675" stroke-linecap="round" stroke-linejoin="miter-clip" stroke-miterlimit="4.0" stroke-width="1.0"/>
          <path d="M-36.4 -20.35 L-36.65 -20.0" fill="none" stroke="#5f5675" stroke-linecap="round" stroke-linejoin="miter-clip" stroke-miterlimit="4.0" stroke-width="1.0"/>
          <path d="M5.1 -66.45 Q10.95 -69.5 15.5 -79.15 L18.8 -88.15 24.4 -84.95 26.25 -61.15 Q28.55 -62.6 31.6 -65.5 37.7 -71.25 41.45 -78.1 L43.5 -77.9 Q45.3 -77.3 45.2 -76.9 43.7 -69.25 39.95 -56.85 36.25 -44.55 34.7 -42.1 33.55 -40.1 26.05 -37.8 L18.8 -35.95 Q15.35 -32.1 12.0 -24.3 8.75 -16.85 9.65 -15.9 10.45 -15.05 11.3 -13.05 L12.45 -9.9 17.75 3.1 Q21.5 12.65 22.5 17.5 24.25 25.95 21.4 31.5 17.05 39.95 10.7 43.35 4.55 46.6 -8.2 47.5 -38.55 49.8 -47.95 27.65 -50.7 21.8 -49.6 11.95 -47.35 -7.85 -28.05 -28.15 L-6.45 -61.3 Q-4.25 -61.55 5.1 -66.45" fill="#5d536e" fill-rule="evenodd" stroke="none"/>
          <path d="M9.5 -49.15 Q14.7 -47.55 18.35 -44.95 21.65 -42.6 22.35 -42.45 27.95 -41.25 31.65 -41.5 33.5 -41.6 34.2 -42.0 35.75 -40.2 27.85 -38.2 L19.65 -36.5 10.95 -39.3 Q1.75 -41.9 -1.2 -41.0 -4.1 -40.1 -9.35 -31.5 L-14.0 -23.1 -12.05 -19.5 Q-9.55 -15.7 -6.9 -15.25 -18.65 -14.55 -23.3 -15.25 -25.45 -15.8 -29.25 -14.65 -36.85 -12.35 -45.15 -4.0 -43.4 -8.7 -40.15 -14.2 -33.65 -25.2 -25.95 -29.05 L-7.05 -60.7 -3.75 -61.5 Q0.15 -62.75 3.15 -65.2 5.05 -65.5 7.9 -67.9 11.1 -70.5 12.6 -71.05 7.7 -68.2 6.05 -59.65 4.25 -50.8 9.5 -49.15" fill="#5c3b5b" fill-rule="evenodd" stroke="none"/>
          <path d="M3.6 -65.45 Q7.85 -68.1 11.15 -71.6 14.0 -74.75 16.35 -82.1 18.15 -88.65 18.4 -88.6 L24.4 -84.95 25.8 -61.15 Q28.1 -62.6 31.2 -65.5 37.3 -71.25 41.05 -78.1 L43.05 -77.9 Q44.85 -77.3 44.8 -76.9 43.05 -68.25 39.95 -56.95 36.4 -44.5 34.65 -41.65 33.25 -39.35 26.45 -37.8 19.05 -36.1 17.95 -35.2 15.9 -33.5 12.15 -25.1 8.4 -16.75 9.25 -15.9 10.05 -15.05 10.85 -13.05 L12.05 -9.9 17.3 3.1 Q21.05 12.65 22.05 17.5 23.8 25.95 21.0 31.5 16.65 40.0 10.25 43.35 4.15 46.6 -8.65 47.5 -39.2 49.8 -48.4 27.65 -51.15 21.8 -50.0 11.95 -47.75 -7.85 -28.45 -28.15 L-7.45 -60.85 -0.05 -63.5 Q1.45 -64.1 3.6 -65.45 Z" fill="none" stroke="#342a49" stroke-linecap="round" stroke-linejoin="round" stroke-width="1.5"/>
          <path d="M21.15 66.2 Q23.25 63.55 24.4 59.55 26.8 51.6 22.45 45.25" fill="none" stroke="#000000" stroke-linecap="round" stroke-linejoin="round" stroke-width="1.5"/>
          <path d="M-49.9 35.65 L-51.8 38.25 Q-54.0 41.65 -55.3 45.25 -59.45 57.0 -53.4 67.0" fill="none" stroke="#000000" stroke-linecap="round" stroke-linejoin="round" stroke-width="1.5"/>
          <path d="M11.8 -14.1 L20.25 -5.4 Q29.8 5.4 35.15 15.75 52.35 48.85 21.6 65.45 10.75 74.7 -1.7 77.6 -15.25 80.65 -33.55 77.1 -43.2 75.3 -50.6 69.4 L-56.05 63.85 Q-60.2 63.4 -65.05 60.55 -74.65 54.8 -77.8 42.7 -81.65 30.2 -78.5 15.8 -72.2 -12.9 -37.2 -22.2" fill="none" stroke="#000000" stroke-linecap="round" stroke-linejoin="round" stroke-width="1.5"/>
          <path d="M-32.1 -31.05 L-32.0 -31.45 Q-31.9 -31.65 -32.15 -31.7 -33.75 -29.4 -35.8 -22.2 -33.0 -27.45 -29.35 -32.0 -32.2 -23.5 -32.95 -19.3 -31.7 -20.8 -29.45 -25.2 -27.35 -29.3 -25.7 -31.05 -26.15 -29.1 -27.5 -25.25 -28.7 -21.9 -29.15 -19.35 -27.4 -20.9 -25.55 -23.6 L-22.2 -28.4 -23.4 -23.25 Q-24.15 -20.15 -25.1 -18.35 -23.55 -19.3 -21.55 -23.1 -19.55 -27.05 -18.1 -28.15 -18.5 -26.05 -20.35 -21.5 L-22.85 -14.95 Q-21.7 -16.25 -19.2 -20.15 L-15.7 -25.35 Q-15.9 -23.35 -16.75 -20.35 L-18.05 -15.55 Q-16.8 -16.95 -15.05 -20.55 -13.35 -24.05 -12.1 -25.6 -11.95 -23.45 -12.95 -20.05 L-14.45 -14.55 Q-13.05 -15.7 -11.45 -18.7 -9.65 -22.1 -8.7 -23.15 -8.0 -21.6 -8.35 -18.8 -8.75 -15.7 -8.45 -14.5 -7.25 -15.65 -6.35 -18.2 L-4.7 -22.2 Q-4.0 -20.9 -4.1 -17.9 -4.2 -14.45 -3.95 -13.3 -2.9 -14.45 -1.95 -17.65 -1.0 -20.8 0.05 -22.0 0.35 -20.6 0.05 -16.9 -0.2 -13.55 0.4 -11.85 1.35 -13.5 2.0 -16.55 L3.2 -21.55 Q3.7 -19.9 3.7 -16.85 L3.75 -12.1 Q4.9 -13.25 5.7 -15.95 6.7 -19.55 7.05 -20.2 7.8 -19.1 7.8 -15.45 L7.8 -10.3 Q8.5 -11.5 9.1 -15.5 L10.05 -21.15 10.6 -14.65 Q11.1 -10.35 11.65 -8.15 L14.15 -21.95 Q14.7 -20.45 15.15 -15.7 L15.8 -9.25" fill="none" stroke="#000000" stroke-linecap="round" stroke-linejoin="round" stroke-width="3.0"/>
          <path d="M-7.2 -7.3 L7.5 -7.4 Q6.15 -3.5 5.55 -3.05 L1.6 -2.8 -3.15 -2.75 Q-4.2 -2.6 -5.8 -4.95 L-7.2 -7.3" fill="#a5a5a5" fill-rule="evenodd" stroke="none"/>
          <path d="M-0.25 -26.15 L3.4 -25.6 Q8.85 -23.8 10.5 -17.0 11.2 -11.4 9.9 -9.25 8.8 -7.4 5.75 -7.15 L-5.0 -7.3 Q-9.05 -6.85 -10.3 -9.0 L-10.8 -11.2 Q-11.5 -19.9 -6.65 -23.85 -5.15 -25.1 -3.3 -25.7 L-1.75 -26.05 -0.25 -26.15" fill="#a5a5a5" fill-rule="evenodd" stroke="none"/>
          <path d="M-1.35 -25.75 Q4.85 -26.7 8.4 -21.7 11.1 -17.85 10.85 -13.55 10.7 -10.8 9.9 -9.45 9.4 -8.55 8.35 -7.95 7.7 -7.55 6.7 -5.4 L5.6 -3.25 Q4.75 -2.85 -0.95 -3.25 -2.4 -3.35 -0.45 -4.85 L1.75 -6.35 Q4.6 -7.15 4.9 -7.55 6.15 -8.95 6.15 -14.3 6.2 -19.4 2.4 -23.05 L-1.35 -25.75" fill="#808081" fill-rule="evenodd" stroke="none"/>
          <path d="M-7.05 -7.5 L-5.7 -5.15 Q-4.1 -2.8 -3.05 -2.9 L1.65 -2.95 5.6 -3.25 Q6.25 -3.6 7.6 -7.5" fill="none" stroke="#3f3f3f" stroke-linecap="round" stroke-linejoin="round" stroke-width="1.5"/>
          <path d="M-4.95 -7.45 Q-8.95 -7.05 -10.25 -9.15 L-10.7 -11.35 Q-11.4 -20.05 -6.55 -23.95 -5.1 -25.2 -3.2 -25.8 L-1.65 -26.2 -0.1 -26.3 3.45 -25.75 Q8.9 -23.95 10.6 -17.2 11.25 -11.5 9.95 -9.35 8.9 -7.55 5.85 -7.3" fill="none" stroke="#3f3f3f" stroke-linecap="round" stroke-linejoin="round" stroke-width="1.5"/>
          <path d="M-9.15 -16.0 Q-8.25 -17.55 -6.8 -18.15 -5.2 -18.75 -3.8 -17.7 -2.25 -16.5 -1.35 -14.0 -0.45 -11.4 -1.25 -10.0 -2.0 -8.6 -4.1 -8.6 -6.05 -8.6 -7.55 -9.8 -9.05 -10.9 -9.55 -12.75 -10.0 -14.6 -9.15 -16.0" fill="#000000" fill-rule="evenodd" stroke="none"/>
          <path d="M9.45 -16.4 Q10.25 -14.95 9.8 -13.15 9.3 -11.35 7.8 -10.3 6.2 -9.15 4.25 -9.15 2.25 -9.25 1.45 -10.65 0.65 -12.05 1.65 -14.65 2.6 -17.2 4.2 -18.25 5.6 -19.25 7.15 -18.6 8.55 -18.0 9.45 -16.4" fill="#000000" fill-rule="evenodd" stroke="none"/>
          <path d="M-0.7 -7.4 Q-0.3 -8.0 0.2 -7.65 L0.6 -7.05 Q0.8 -6.6 0.6 -6.35 0.5 -6.15 0.15 -6.15 L-0.4 -6.35 Q-0.95 -6.75 -0.7 -7.4" fill="#000000" fill-rule="evenodd" stroke="none"/>
          <path d="M2.4 -7.45 Q2.75 -6.8 2.1 -6.45 L1.05 -6.5 1.1 -7.15 1.5 -7.7 Q2.05 -8.15 2.4 -7.45" fill="#000000" fill-rule="evenodd" stroke="none"/>
          <path d="M-7.85 -18.75 Q-8.4 -18.95 -8.2 -19.55 L-7.7 -20.55 -6.75 -21.55 -5.5 -21.7 Q-4.75 -21.3 -4.45 -20.3 -4.1 -19.25 -5.05 -19.5 L-7.1 -19.25 -7.85 -18.75" fill="#ffffff" fill-rule="evenodd" stroke="none"/>
          <path d="M8.1 -18.85 Q7.15 -20.05 5.3 -19.7 4.35 -19.5 4.75 -20.55 5.1 -21.55 5.8 -21.9 6.4 -22.15 7.05 -21.65 L7.95 -20.65 8.45 -19.65 Q8.65 -19.1 8.1 -18.85" fill="#c1c1c1" fill-rule="evenodd" stroke="none"/>
          <path d="M-31.2 -30.8 L-32.05 -29.4 Q-32.4 -28.4 -32.7 -28.0" fill="none" stroke="#696969" stroke-linecap="round" stroke-linejoin="round" stroke-width="2.0"/>
          <path d="M-27.7 -30.1 Q-27.8 -29.5 -28.35 -28.65 L-29.2 -27.2" fill="none" stroke="#696969" stroke-linecap="round" stroke-linejoin="round" stroke-width="2.0"/>
          <path d="M-23.75 -28.85 L-24.5 -27.6 -24.75 -26.1" fill="none" stroke="#696969" stroke-linecap="round" stroke-linejoin="round" stroke-width="2.0"/>
          <path d="M-20.95 -27.45 L-21.55 -25.15" fill="none" stroke="#696969" stroke-linecap="round" stroke-linejoin="round" stroke-width="2.0"/>
          <path d="M-17.5 -26.55 Q-17.3 -26.05 -17.5 -25.4 L-17.8 -24.3" fill="none" stroke="#696969" stroke-linecap="round" stroke-linejoin="round" stroke-width="2.0"/>
          <path d="M-13.4 -25.1 L-14.2 -24.1 -14.45 -23.0" fill="none" stroke="#696969" stroke-linecap="round" stroke-linejoin="round" stroke-width="2.0"/>
          <path d="M13.6 -20.2 Q14.1 -19.85 14.35 -18.65 L14.55 -16.8" fill="none" stroke="#696969" stroke-linecap="round" stroke-linejoin="round" stroke-width="2.0"/>
          <path d="M-7.85 190.65 Q-6.05 192.85 -6.05 195.85 -6.05 198.2 -5.7 200.25 -5.9 201.55 -9.15 203.9 -15.3 208.3 -25.3 207.8 -29.15 207.6 -31.3 205.95 -33.35 204.4 -34.25 201.35 -35.05 198.4 -35.0 197.25 -35.0 196.05 -33.95 194.15 -33.05 192.6 -21.3 190.65 L-9.7 189.1 -7.85 190.65" fill="#b59679" fill-rule="evenodd" stroke="none"/>
          <path d="M35.75 187.75 Q36.4 186.7 57.45 191.4 L78.35 196.4 78.65 198.2 Q78.8 200.2 78.05 201.45 77.25 202.85 70.75 204.35 64.35 205.8 60.55 205.55 56.75 205.35 52.1 203.6 47.3 201.75 45.45 199.75 L41.85 195.75 Q39.95 193.85 39.05 193.85 37.45 193.85 36.0 192.2 34.25 190.1 35.75 187.75" fill="#b59679" fill-rule="evenodd" stroke="none"/>
          <path d="M16.1 119.8 L10.9 104.1 15.1 103.5 Q20.1 102.7 24.3 101.3 28.45 99.9 30.8 97.8 L32.25 95.95 Q33.65 98.55 39.75 128.15 45.65 156.95 46.6 157.65 48.0 158.65 52.25 164.55 57.05 171.35 58.85 173.25 61.0 175.5 65.5 177.7 70.7 180.15 73.35 182.45 76.5 185.05 77.5 195.25 77.75 197.05 75.9 198.1 73.65 199.35 66.1 201.15 59.45 202.7 53.0 198.45 L45.75 192.45 40.1 189.1 36.55 187.2 Q36.3 185.25 35.15 182.7 34.4 180.95 33.35 174.7 32.35 168.85 32.35 166.55 L32.4 162.45 Q32.3 160.2 31.25 158.75 30.2 157.35 30.2 155.4 L30.4 153.7 Q27.1 145.8 23.8 139.95 21.7 136.3 16.1 119.8" fill="#606060" fill-rule="evenodd" stroke="none"/>
          <path d="M-42.05 113.6 L-43.15 102.1 -38.1 103.5 Q-32.45 104.9 -29.45 104.9 -26.5 104.9 -21.95 102.4 L-18.05 99.9 Q-17.75 101.15 -18.9 118.55 -20.0 136.4 -19.7 139.5 -19.3 144.05 -18.25 147.25 -17.2 150.7 -15.8 151.45 -14.7 152.15 -15.05 154.6 L-15.8 158.95 Q-15.8 161.4 -14.9 166.55 -13.9 172.2 -12.8 174.9 -8.75 184.25 -8.2 187.95 -6.5 198.45 -15.5 201.1 -24.65 203.8 -29.55 200.35 -31.9 198.7 -33.95 194.15 -34.8 192.25 -34.0 188.55 L-32.55 182.7 Q-32.2 180.65 -33.2 175.05 L-34.5 168.2 Q-34.7 166.8 -33.9 164.2 L-33.1 161.75 Q-33.95 158.15 -34.8 157.35 -35.3 156.85 -34.85 153.55 L-34.25 150.35 Q-38.15 137.8 -39.85 130.55 -40.85 126.05 -42.05 113.6" fill="#606060" fill-rule="evenodd" stroke="none"/>
          <path d="M-38.8 104.1 Q-33.5 105.8 -28.65 104.65 L-30.75 111.7 Q-32.95 120.15 -33.1 126.95 -33.35 134.95 -31.95 142.45 -30.55 149.8 -28.65 151.45 -27.05 152.85 -28.5 154.85 -29.25 155.85 -30.3 156.5 L-28.05 160.35 -29.15 161.2 Q-30.35 162.35 -30.85 163.75 -31.5 165.35 -30.55 172.75 -29.65 179.9 -28.35 184.9 -27.35 188.75 -23.85 190.45 L-18.3 193.05 Q-15.95 195.0 -17.25 198.1 -18.55 201.3 -22.25 201.95 -25.55 202.5 -29.15 200.3 -32.0 198.55 -33.4 196.4 -34.35 194.8 -34.35 192.9 L-33.65 186.3 Q-33.1 182.1 -33.55 176.6 -33.9 172.6 -34.5 169.9 -34.85 168.45 -34.3 166.5 -33.5 163.8 -33.4 162.9 -33.2 161.25 -34.15 159.8 L-35.35 157.65 -35.2 151.85 Q-35.05 146.7 -35.9 144.25 -37.1 140.7 -39.7 128.1 -42.45 114.8 -42.85 109.9 L-43.2 103.4 -43.15 102.1 -38.8 104.1" fill="#3f3f3f" fill-rule="evenodd" stroke="none"/>
          <path d="M22.9 101.85 L22.95 107.1 Q23.3 113.65 24.85 120.25 26.5 127.25 32.15 139.55 37.05 150.3 38.75 152.3 39.8 153.55 38.45 154.9 L36.3 156.8 Q35.9 157.3 38.2 157.55 40.95 157.95 41.55 159.05 42.3 160.25 41.25 161.6 L39.3 163.75 Q38.7 164.5 42.9 168.25 48.55 173.35 50.25 175.5 52.9 178.9 56.65 180.85 59.3 182.15 66.35 184.4 70.55 185.75 72.0 191.7 73.6 197.75 69.7 200.6 66.35 203.05 59.8 201.6 57.85 201.2 51.6 198.9 50.05 198.35 47.9 196.0 45.45 193.45 43.5 192.45 39.85 190.6 36.55 187.5 35.45 186.35 33.55 179.2 31.6 171.8 31.8 168.75 31.9 167.25 32.85 163.55 33.45 161.3 32.65 160.7 31.2 159.55 30.3 158.25 29.0 156.5 29.55 155.4 30.25 154.05 28.5 149.45 26.65 144.45 23.0 138.45 19.6 132.7 14.8 119.35 10.25 107.05 10.0 104.1 L14.55 104.25 Q19.75 103.95 22.9 101.85" fill="#3f3f3f" fill-rule="evenodd" stroke="none"/>
          <path d="M24.3 101.0 Q15.0 104.9 10.0 102.95 9.3 102.7 14.45 116.85 19.7 131.45 23.4 139.35 L28.35 149.8 Q30.45 154.4 30.15 155.1 29.55 156.25 32.1 161.0 L32.2 163.8 32.1 168.5 Q31.8 171.0 36.0 187.2 L41.35 190.2 Q46.75 193.25 48.25 195.55 50.3 198.7 57.4 200.4 64.9 202.25 70.85 200.3 76.55 198.4 77.35 196.6 77.75 195.75 77.0 190.8 76.35 186.3 73.7 183.0 70.8 179.25 65.8 177.7 61.4 176.3 56.25 169.9 L50.25 161.25 47.9 159.1 Q46.8 158.3 45.45 154.0 44.8 151.8 39.2 126.0 33.95 101.6 31.7 95.85 L30.7 97.25 Q28.85 99.1 24.3 101.0 Z" fill="none" stroke="#000000" stroke-linecap="round" stroke-linejoin="round" stroke-width="1.5"/>
          <path d="M-42.15 112.95 Q-40.5 125.15 -39.0 132.5 L-35.85 145.35 Q-34.6 150.1 -34.8 152.6 -35.0 155.6 -34.8 156.95 L-33.95 159.25 Q-32.95 160.9 -33.95 164.85 -34.3 166.3 -34.05 168.7 L-33.1 176.3 Q-32.55 181.0 -33.0 185.6 L-33.95 192.2 Q-34.45 195.6 -31.5 198.9 -27.95 202.9 -21.95 202.5 -4.55 201.35 -9.15 186.3 -15.8 164.35 -15.8 158.15 L-15.6 153.2 Q-15.6 151.6 -16.65 150.35 -19.85 146.65 -19.15 130.0 L-18.1 111.3 Q-17.65 102.3 -18.3 99.05 L-21.25 101.5 Q-25.05 104.05 -29.75 104.35 -34.45 104.7 -39.45 103.45 L-43.4 102.1 -42.15 112.95 Z" fill="none" stroke="#000000" stroke-linecap="round" stroke-linejoin="round" stroke-width="1.5"/>
          <path d="M31.35 95.8 L27.9 95.25" fill="none" stroke="#000000" stroke-linecap="round" stroke-linejoin="round" stroke-width="1.5"/>
          <path d="M10.0 102.95 L10.95 101.1 Q12.2 99.15 13.75 98.65" fill="none" stroke="#000000" stroke-linecap="round" stroke-linejoin="round" stroke-width="1.5"/>
          <path d="M-18.3 99.05 L-22.35 98.7" fill="none" stroke="#000000" stroke-linecap="round" stroke-linejoin="round" stroke-width="1.5"/>
          <path d="M-43.4 102.1 L-42.4 101.25 Q-41.0 100.2 -38.95 99.75" fill="none" stroke="#000000" stroke-linecap="round" stroke-linejoin="round" stroke-width="1.5"/>
          <path d="M78.15 195.55 L78.4 196.1 78.65 199.2 Q78.65 201.5 76.0 202.7 74.05 203.6 67.5 205.0 61.9 206.25 56.25 205.05 50.95 204.05 47.45 201.45 45.45 199.95 42.85 196.85 40.8 194.5 39.05 193.85 36.7 193.1 35.85 191.05 35.1 189.15 36.0 187.2" fill="none" stroke="#000000" stroke-linecap="round" stroke-linejoin="round" stroke-width="1.5"/>
          <path d="M-7.45 190.2 L-6.45 194.3 Q-5.55 198.8 -6.05 200.55 -6.75 202.75 -9.65 204.75 -12.9 206.85 -17.75 207.8 L-27.15 208.05 Q-29.65 207.4 -32.25 205.3 -34.25 203.7 -34.75 199.4 -35.2 195.45 -34.25 193.3" fill="none" stroke="#000000" stroke-linecap="round" stroke-linejoin="round" stroke-width="1.5"/>
          <path d="M71.45 -154.35 L75.15 -147.85 Q79.2 -139.8 80.75 -132.0 85.65 -107.25 63.6 -94.9 53.95 -90.85 43.35 -88.35 22.15 -83.4 17.9 -91.55 8.45 -109.75 6.6 -116.45 2.0 -132.95 12.25 -141.95 22.15 -150.65 35.3 -157.8 41.85 -161.45 46.4 -163.3 L49.3 -163.5 56.05 -162.95 Q66.65 -161.25 71.45 -154.35" fill="#f6b994" fill-rule="evenodd" stroke="none"/>
          <path d="M45.65 -165.6 Q59.65 -160.9 72.2 -155.6 71.65 -151.45 65.5 -147.7 53.35 -140.2 25.7 -142.2 L24.2 -138.45 Q22.55 -133.75 21.7 -128.75 19.15 -112.9 26.1 -100.75 31.75 -90.7 47.45 -91.05 L53.45 -91.4 Q36.4 -86.8 31.9 -85.75 27.85 -82.5 21.0 -83.0 7.35 -83.95 -6.3 -102.65 -8.0 -102.0 -10.3 -103.0 -14.85 -104.95 -17.55 -113.25 -18.6 -119.85 -15.45 -121.95 -14.5 -122.65 -13.25 -122.75 L-12.15 -122.75 Q-13.15 -127.8 -13.8 -134.25 -15.05 -147.1 -13.3 -154.25 -11.55 -161.1 10.35 -171.5 17.65 -174.9 45.65 -165.6" fill="#d98682" fill-rule="evenodd" stroke="none"/>
          <path d="M27.7 -82.5 L29.15 -86.75 43.75 -81.7 42.2 -77.45 27.7 -82.5" fill="#151616" fill-rule="evenodd" stroke="none"/>
          <path d="M27.7 -82.5 L42.2 -77.45 43.75 -81.7 29.15 -86.75 27.7 -82.5 Z" fill="none" stroke="#000000" stroke-linecap="butt" stroke-linejoin="miter-clip" stroke-miterlimit="4.0" stroke-width="1.0"/>
          <path d="M31.65 -114.95 L36.05 -116.75 Q41.25 -118.6 44.95 -118.85 L45.8 -115.35 Q45.7 -111.65 40.7 -110.3 38.0 -109.6 34.55 -112.25 L31.65 -114.95" fill="#f6b994" fill-rule="evenodd" stroke="none"/>
          <path d="M43.8 -105.5 Q53.3 -103.9 66.8 -111.05 65.6 -105.75 64.4 -104.5 63.5 -103.55 59.55 -101.45 54.4 -98.65 50.0 -97.6 36.55 -94.4 36.95 -108.6 L38.6 -107.35 Q40.8 -106.05 43.8 -105.5" fill="#ffffff" fill-rule="evenodd" stroke="none"/>
          <path d="M 50.1 -192.55 C 54.133 -191.15 57.95 -189.283 61.55 -186.95 C 72.983 -179.35 79.883 -168.183 82.25 -153.45 L 87.4 -142.4 C 91 -134.233 93.283 -128.15 94.25 -124.15 C 96.75 -113.583 97.504 -105.533 95.637 -100 C 93.937 -94.8 90.2 -92.6 85.3 -93.4 C 81.367 -94.033 77.95 -95.85 75.05 -98.85 L 71.85 -103.15 L 74.296 -101.977 C 76.096 -101.91 77.6 -102.418 79.1 -102.918 C 83.8 -104.485 85.983 -109.233 85.65 -116 C 85.317 -122.7 82.95 -131.3 78.55 -141.8 L 72.2 -155.6 C 68.8 -153.1 64.467 -150.85 59.2 -148.85 C 48.667 -144.85 38.8 -144.083 29.6 -146.55 C 20.433 -149.017 12.45 -152.717 5.65 -157.65 C 3.517 -159.183 1.633 -160.75 0 -162.35 L -1.8 -164.3 L -1.4 -161.8 C -0.933 -159.733 -0.2 -157.767 0.8 -155.9 C 3.967 -149.9 9.133 -145.883 16.3 -143.85 C 13.967 -142.283 11.183 -141.533 7.95 -141.6 C 1.45 -141.633 -4.15 -145.55 -8.85 -153.35 L -9.05 -149.6 C -8.983 -146.333 -8.022 -142.591 -7.422 -138.791 C -5.455 -126.691 -1.483 -114.433 5.75 -101.6 C 11.883 -90.4 18.333 -85.25 25.1 -86.15 C 28.467 -86.583 31.2 -88.15 33.3 -90.85 L 33.2 -89.5 C 32.967 -88.3 32.55 -87.033 31.95 -85.7 C 29.95 -81.467 26.183 -77.3 20.65 -73.2 C 15.183 -69.133 9.467 -71.767 3.5 -81.1 C -0.367 -87.2 -7.851 -110.111 -11.418 -120.944 L -16.15 -129.6 C -19.317 -138.867 -20.417 -145.517 -19.45 -149.55 C -18.483 -153.483 -17.817 -157.633 -17.45 -162 C -16.683 -170.7 -17.817 -176.05 -20.85 -178.05 C -17.05 -182.05 -11.45 -185.7 -4.05 -189 C 10.75 -195.667 27.15 -197.3 45.15 -193.9 L 50.1 -192.55" fill="#b93335" fill-rule="evenodd" stroke="none"/>
        </g>
      </g>
    </g>
    <g transform="matrix(1, 0, 0, 1, 461.748535, 235.456039)">
      <path d="M71.1 -155.3 L75.1 -147.95 Q79.4 -138.95 80.8 -130.6 85.35 -103.85 59.55 -93.5 46.95 -88.55 31.75 -86.35" fill="none" stroke="#471e02" stroke-linecap="round" stroke-linejoin="round" stroke-width="1.5"/>
      <path d="M31.8 -139.55 Q28.7 -141.6 24.5 -142.6 16.25 -144.55 10.95 -139.55" fill="none" stroke="#471e02" stroke-linecap="round" stroke-linejoin="round" stroke-width="1.5"/>
      <path d="M56.5 -141.9 Q57.5 -145.65 59.2 -149.25 62.55 -156.4 66.05 -155.7" fill="none" stroke="#471e02" stroke-linecap="round" stroke-linejoin="round" stroke-width="1.5"/>
      <path d="M43.35 -105.75 Q52.7 -103.75 67.1 -111.05 66.35 -107.8 64.95 -105.4 64.3 -104.2 60.0 -101.75 55.0 -98.9 50.4 -97.85 36.85 -94.7 36.9 -109.2 L38.35 -107.85 Q40.45 -106.4 43.35 -105.75 Z" fill="none" stroke="#471e02" stroke-linecap="round" stroke-linejoin="round" stroke-width="1.5"/>
      <path d="M-9.9 -154.8 L-8.15 -151.9 Q-5.8 -148.45 -3.0 -146.05 6.0 -138.35 16.3 -143.35 12.7 -144.1 8.55 -147.05 0.25 -153.0 -2.4 -164.25 L3.4 -158.9 Q10.9 -152.8 19.45 -149.3 46.75 -138.25 74.2 -157.75" fill="none" stroke="#700d20" stroke-linecap="round" stroke-linejoin="round" stroke-width="1.5"/>
      <path d="M-9.35 -152.8 L-9.65 -151.2 Q-9.85 -148.85 -9.35 -145.2 -7.85 -133.55 -0.2 -113.05 9.95 -85.85 24.0 -86.15 30.75 -86.25 33.2 -90.1 31.95 -85.75 29.0 -81.25 23.1 -72.3 14.55 -71.8 5.5 -71.25 -4.65 -97.25 -8.45 -107.05 -11.15 -117.6 -13.65 -127.35 -13.8 -131.95" fill="none" stroke="#700d20" stroke-linecap="round" stroke-linejoin="round" stroke-width="1.5"/>
      <path d="M-12.85 -122.85 L-13.95 -122.75 Q-15.25 -122.55 -16.2 -121.75 -19.15 -119.35 -17.35 -112.8 -15.5 -106.25 -10.8 -103.55 -8.45 -102.2 -6.45 -102.15" fill="none" stroke="#471e02" stroke-linecap="round" stroke-linejoin="round" stroke-width="1.5"/>
      <path d="M-20.8 -178.2 Q-15.6 -183.3 -5.85 -188.0 13.65 -197.3 36.45 -195.0 60.3 -192.65 72.5 -176.7 80.4 -166.45 82.45 -152.4" fill="none" stroke="#700d20" stroke-linecap="round" stroke-linejoin="round" stroke-width="1.5"/>
      <path d="M88.55 -93.95 L88.8 -92.2 Q89.35 -90.0 90.45 -88.1 91.8 -85.8 93.25 -84.05 94.85 -82.2 95.65 -82.2 94.8 -81.55 93.0 -81.1 89.55 -80.2 85.2 -81.1 80.95 -82.0 77.25 -84.65 L74.35 -87.2 75.25 -79.7 Q76.65 -71.55 79.0 -68.45 83.9 -62.15 90.6 -60.6 86.1 -58.45 79.95 -56.85 67.75 -53.6 60.0 -56.1 56.4 -57.3 52.9 -59.2 L50.2 -60.85" fill="none" stroke="#72260f" stroke-linecap="round" stroke-linejoin="round" stroke-width="1.5"/>
      <path d="M76.1 -147.4 L80.55 -134.7 Q85.0 -120.65 85.05 -114.1 85.2 -106.9 79.6 -103.6 74.5 -100.6 71.55 -103.3 L72.6 -101.2 Q74.0 -98.75 75.75 -96.9 81.65 -91.1 89.7 -94.15 99.2 -97.65 95.15 -118.1 91.3 -137.75 78.25 -159.1" fill="none" stroke="#700d20" stroke-linecap="round" stroke-linejoin="round" stroke-width="1.5"/>
      <path d="M10.05 -112.35 L10.7 -113.65 Q11.6 -114.95 13.3 -115.35" fill="none" stroke="#471e02" stroke-linecap="round" stroke-linejoin="round" stroke-width="1.5"/>
      <path d="M14.35 -110.05 L14.55 -111.55 Q14.95 -113.05 15.8 -113.25" fill="none" stroke="#471e02" stroke-linecap="round" stroke-linejoin="round" stroke-width="1.5"/>
      <g transform="matrix(1, 0, 0, 1, 0.532, -123.109001)" style="mix-blend-mode: multiply;">
        <title>blush</title>
        <path d="M 26.8 11.15 C 27 14.717 25.917 17.817 23.55 20.45 C 21.183 23.117 18.217 24.567 14.65 24.8 C 11.083 25 7.983 23.917 5.35 21.55 C 2.683 19.183 1.25 16.217 1.05 12.65 C 0.817 9.117 1.883 6.017 4.25 3.35 C 6.617 0.683 9.583 -0.75 13.15 -0.95 C 16.683 -1.183 19.783 -0.117 22.45 2.25 C 25.117 4.617 26.567 7.583 26.8 11.15" fill="url(#gradient-1)" fill-rule="evenodd" stroke="none">
          <title>L</title>
        </path>
        <path d="M 85.613 -4.049 C 85.813 -0.482 84.73 2.618 82.363 5.251 C 79.996 7.918 77.03 9.368 73.463 9.601 C 69.896 9.801 66.796 8.718 64.163 6.351 C 61.496 3.984 60.063 1.018 59.863 -2.549 C 59.63 -6.082 60.696 -9.182 63.063 -11.849 C 65.43 -14.516 68.396 -15.949 71.963 -16.149 C 75.496 -16.382 78.596 -15.316 81.263 -12.949 C 83.93 -10.582 85.38 -7.616 85.613 -4.049" fill="url(#gradient-2)" fill-rule="evenodd" stroke="none">
          <title>R</title>
        </path>
      </g>
      <path d="M38.25 -127.55 L38.95 -125.65 Q39.65 -123.3 38.95 -121.2 36.8 -114.45 22.55 -112.7 13.5 -112.4 10.0 -120.75 8.95 -123.35 8.55 -126.55 L8.4 -129.2 20.65 -128.2 38.25 -127.55" fill="#ffffff" fill-rule="evenodd" stroke="none" style="">
        <title>EyewhiteR</title>
      </path>
      <path d="M39.05 -124.15 Q39.05 -122.1 38.45 -120.8 37.75 -119.15 35.65 -117.75 33.55 -116.3 31.85 -116.45 29.8 -116.6 28.3 -118.3 26.75 -119.95 26.75 -122.05 26.75 -125.5 30.4 -127.75 34.1 -129.95 37.25 -128.45 39.05 -127.65 39.05 -124.15" fill="#000000" fill-rule="evenodd" stroke="none"/>
      <path d="M37.65 -128.25 Q32.75 -128.1 26.65 -128.1 L8.3 -129.1 8.4 -126.45 Q8.75 -123.3 9.8 -120.75 13.2 -112.5 22.8 -112.9 27.75 -113.25 32.2 -115.35 36.3 -117.4 38.8 -120.4" fill="none" stroke="#471e02" stroke-linecap="round" stroke-linejoin="round" stroke-width="1.5" style="">
        <title>eyewhiteL</title>
      </path>
      <path d="M57.55 -133.0 Q64.65 -136.75 71.9 -143.3 74.1 -141.15 74.3 -134.8 74.6 -127.05 68.55 -124.95 62.7 -122.85 59.6 -127.75 58.6 -129.25 57.95 -131.25 L57.55 -133.0" fill="#ffffff" fill-rule="evenodd" stroke="none" style="">
        <title>Path</title>
      </path>
      <path d="M72.5 -140.5 Q72.95 -140.3 73.65 -138.7 L74.5 -136.05 Q74.75 -133.55 73.15 -130.0 L72.2 -127.8 Q71.55 -126.75 70.25 -127.0 68.3 -127.5 66.7 -130.1 L66.2 -131.35 Q65.35 -133.9 67.35 -137.45 68.15 -138.7 70.55 -140.1 71.95 -140.9 72.5 -140.5" fill="#000000" fill-rule="evenodd" stroke="none"/>
      <path d="M57.55 -133.5 L63.35 -136.75 Q69.55 -140.6 71.95 -143.6 L72.95 -141.4 Q74.05 -138.7 74.3 -136.2 75.25 -128.1 67.95 -124.55 64.9 -122.95 61.3 -125.45 L58.4 -128.25" fill="none" stroke="#471e02" stroke-linecap="round" stroke-linejoin="round" stroke-width="1.5">
        <title>Path</title>
      </path>
      <path d="M72.2 -127.45 L73.6 -127.4 Q75.1 -127.2 75.45 -126.45" fill="none" stroke="#471e02" stroke-linecap="round" stroke-linejoin="round" stroke-width="1.5"/>
      <path d="M-56.45 -147.25 L-56.2 -151.0 Q-63.45 -148.6 -64.4 -148.45 -65.05 -148.4 -65.3 -145.4 L-65.55 -142.35 -59.05 -142.7 Q-57.15 -143.3 -56.45 -147.25 M-32.35 -189.45 L-27.85 -185.25 Q-23.05 -180.6 -21.1 -178.2 -19.3 -175.9 -18.9 -173.9 L-18.05 -169.1 Q-17.3 -166.3 -19.2 -163.75 -20.15 -162.45 -21.25 -161.8 L-24.7 -159.2 Q-28.4 -156.2 -29.4 -154.0 -31.0 -150.65 -32.05 -149.15 -33.65 -147.0 -35.3 -147.2 -36.8 -147.3 -39.05 -151.45 L-40.95 -155.6 -41.7 -152.4 -43.25 -144.2 Q-43.9 -139.9 -47.45 -136.65 -50.1 -134.25 -52.15 -133.75 L-64.6 -134.95 -69.05 -134.65 -73.7 -134.3 Q-75.7 -134.6 -75.3 -139.95 L-74.5 -145.35 Q-71.55 -152.4 -71.3 -154.85 -71.1 -156.8 -69.65 -158.25 -68.05 -159.85 -66.0 -159.65 -63.05 -159.5 -57.35 -160.5 -57.8 -170.6 -59.1 -173.6 -59.9 -175.5 -58.55 -176.9 L-57.1 -177.95 Q-51.25 -179.45 -46.25 -184.1 -43.6 -186.6 -40.4 -190.65 -38.75 -192.45 -35.4 -191.15 -33.65 -190.45 -32.35 -189.45" fill="#e0be90" fill-rule="evenodd" stroke="none"/>
      <path d="M-34.15 -162.8 L-40.3 -162.4 -38.75 -170.2 Q-37.15 -178.15 -36.4 -179.35 -35.3 -181.05 -31.65 -178.6 -27.0 -175.55 -20.5 -166.65 L-19.55 -165.5 Q-19.05 -164.05 -21.2 -162.7 -23.65 -161.0 -25.75 -158.9 -27.85 -156.75 -28.65 -155.15 -30.05 -152.15 -32.0 -149.65 -34.85 -145.95 -36.4 -147.25 -37.95 -148.45 -39.7 -152.15 L-41.2 -155.65 -32.0 -159.95 Q-31.65 -160.75 -31.7 -161.5 -31.95 -163.05 -34.15 -162.8" fill="#846952" fill-rule="evenodd" stroke="none"/>
      <path d="M-57.25 -143.7 Q-56.3 -144.65 -56.4 -150.95 L-59.55 -150.05 Q-62.95 -148.95 -64.2 -148.3 -65.45 -147.7 -65.75 -145.1 L-65.9 -142.7 -60.35 -142.4 Q-58.15 -142.8 -57.25 -143.7 M-66.2 -155.15 L-60.35 -155.95 -50.4 -157.65 -37.35 -158.9 Q-37.15 -157.6 -41.7 -155.65 L-46.25 -153.95 -47.2 -149.8 Q-48.25 -145.15 -48.3 -142.55 -48.35 -139.65 -51.55 -137.65 -54.3 -135.9 -55.85 -136.15 L-61.6 -135.65 -69.55 -135.2 Q-72.2 -135.35 -72.2 -135.75 -71.85 -137.1 -72.35 -139.15 -73.0 -142.15 -70.3 -148.75 -67.65 -155.15 -66.2 -155.15" fill="#846952" fill-rule="evenodd" stroke="none"/>
      <path d="M-56.5 -150.95 Q-56.05 -144.9 -57.4 -143.4 -58.05 -143.0 -59.4 -142.65 -62.0 -141.95 -65.7 -142.65" fill="none" stroke="#966328" stroke-linecap="round" stroke-linejoin="round" stroke-width="1.5"/>
      <path d="M-41.1 -154.95 L-40.0 -152.7 Q-38.65 -150.05 -37.2 -147.95 -35.8 -145.85 -33.1 -147.95 -31.75 -149.05 -30.7 -150.5 -28.75 -156.3 -24.5 -159.65 L-18.85 -164.2 Q-17.2 -166.4 -18.2 -171.25 L-19.55 -175.75 Q-28.35 -186.5 -31.8 -189.05 -37.85 -193.5 -41.2 -189.45 -43.35 -186.85 -48.05 -183.2 -53.25 -179.2 -56.5 -178.0 -59.6 -176.8 -59.85 -175.65 L-59.15 -171.95 Q-57.85 -164.65 -57.4 -160.15" fill="none" stroke="#966328" stroke-linecap="round" stroke-linejoin="round" stroke-width="1.5"/>
      <path d="M-34.7 -158.5 L-40.95 -156.4 -42.05 -150.6 -42.85 -146.45 Q-43.75 -140.95 -47.0 -137.1 -50.15 -133.4 -52.95 -133.9 L-62.5 -134.7 -72.0 -134.3 Q-74.35 -133.6 -75.35 -137.15 -76.3 -140.3 -75.4 -142.7 -74.65 -144.55 -73.55 -148.25 -72.6 -151.55 -72.2 -153.3 -71.7 -155.65 -70.4 -157.2 -68.45 -159.55 -65.05 -159.45 L-48.9 -161.0 -33.8 -162.75 Q-31.1 -162.8 -31.75 -160.95 -32.4 -159.2 -34.7 -158.5 M-65.55 -141.05 L-65.7 -143.7 Q-65.65 -146.6 -64.6 -147.9 -62.7 -149.1 -49.5 -153.55 L-40.95 -156.4" fill="none" stroke="#966328" stroke-linecap="round" stroke-linejoin="round" stroke-width="1.5"/>
      <path d="M-20.3 -166.0 Q-22.6 -169.95 -27.55 -174.95 -31.65 -179.05 -33.45 -179.9 -35.7 -180.95 -36.6 -178.6 L-38.2 -172.4 -40.2 -162.45" fill="none" stroke="#966328" stroke-linecap="round" stroke-linejoin="round" stroke-width="1.5"/>
      <path d="M-45.9 -154.2 Q-48.4 -139.1 -49.8 -138.05 -51.7 -136.65 -53.9 -136.1 L-55.75 -135.85" fill="none" stroke="#966328" stroke-linecap="round" stroke-linejoin="round" stroke-width="1.5"/>
      <path d="M-33.0 -187.95 Q-34.25 -188.9 -35.7 -189.4 -38.6 -190.4 -39.75 -188.3 -40.4 -187.15 -41.85 -178.65 L-44.65 -161.2" fill="none" stroke="#966328" stroke-linecap="round" stroke-linejoin="round" stroke-width="1.5"/>
      <path d="M-39.6 -173.15 Q-39.9 -174.35 -40.6 -175.35 -42.15 -177.35 -44.5 -176.6 -45.5 -176.25 -48.8 -172.1 -51.7 -168.45 -56.5 -168.0" fill="none" stroke="#966328" stroke-linecap="round" stroke-linejoin="round" stroke-width="1.5"/>
      <path d="M-35.5 -183.85 Q-35.8 -185.45 -36.85 -186.65 -38.95 -189.15 -42.6 -187.4" fill="none" stroke="#966328" stroke-linecap="round" stroke-linejoin="round" stroke-width="1.5"/>
      <path d="M74.3 -130.35 L75.7 -130.45 Q77.25 -130.3 77.85 -129.55" fill="none" stroke="#471e02" stroke-linecap="round" stroke-linejoin="round" stroke-width="1.5"/>
      <path d="M38.65 -102.65 L41.55 -101.65 Q45.25 -100.8 49.45 -101.75" fill="none" stroke="#471e02" stroke-linecap="round" stroke-linejoin="round" stroke-width="1.5"/>
      <path d="M42.85 -104.1 L42.95 -102.25 Q43.2 -100.15 43.8 -98.85" fill="none" stroke="#471e02" stroke-linecap="round" stroke-linejoin="round" stroke-width="1.5"/>
      <path d="M-37.65 -146.05 L-37.55 -134.5 Q-36.9 -120.8 -34.1 -110.05 -32.0 -101.9 -33.2 -96.4 -34.35 -91.05 -38.05 -90.0 L-35.35 -89.25 Q-32.05 -88.85 -28.8 -90.7 -23.8 -93.6 -21.55 -97.7 -20.0 -100.75 -19.7 -104.85" fill="none" stroke="#700d20" stroke-linecap="round" stroke-linejoin="round" stroke-width="1.5"/>
      <path d="M-21.05 6.0 Q-6.9 7.85 0.1 7.5 L13.6 6.75 13.0 15.25 Q11.6 24.65 7.7 29.35 3.9 34.05 -2.85 35.6 -10.0 37.15 -18.55 34.8 -33.4 30.75 -34.55 15.8 -34.95 11.05 -34.45 7.15 L-33.9 4.1 -21.05 6.0" fill="#ffffff" fill-rule="evenodd" stroke="none"/>
      <path d="M-31.15 4.55 L-33.35 4.2 M-26.65 5.2 L-28.9 4.9 M-22.2 5.9 L-24.45 5.55 M-17.2 6.5 L-19.45 6.25 M-33.9 4.1 L-34.35 6.35 M-34.6 8.6 L-34.75 10.9 M-12.85 6.95 L-15.0 6.75 M10.0 7.0 L7.7 7.15 M5.5 7.25 L3.2 7.35 M0.9 7.5 L0.1 7.5 -1.6 7.6 M-3.85 7.6 L-6.1 7.5 M-8.35 7.35 L-10.6 7.2 M13.5 7.75 L13.6 6.75 12.3 6.85 M13.15 12.25 L13.4 10.0 M12.65 17.05 L13.0 15.25 13.05 14.45 M11.65 21.45 L12.25 19.25 M7.7 29.35 L9.0 27.5 M4.4 32.5 L6.15 31.05 M0.5 34.55 L2.5 33.7 M-3.6 35.7 L-2.85 35.6 -1.6 35.25 M-8.0 36.15 L-5.85 36.05 M-12.5 35.95 L-10.25 36.15 M-34.75 13.05 L-34.55 15.35 M-34.4 17.5 L-34.0 19.7 M-33.4 21.85 L-32.5 24.0 M-31.5 25.95 L-30.15 27.85 M-28.55 29.55 L-26.8 31.0 M-24.9 32.2 L-22.9 33.25 M-20.6 34.2 L-18.55 34.8 M-17.0 35.2 L-14.75 35.65 M10.05 25.6 L10.9 23.55" fill="none" stroke="#5f5675" stroke-linecap="round" stroke-linejoin="round" stroke-width="1.0"/>
      <path d="M-30.85 7.0 L-19.8 8.65 Q-7.45 10.25 -1.35 10.05 L10.35 9.45 9.85 16.5 Q8.65 24.3 5.35 28.2 2.0 32.05 -3.8 33.3 -10.0 34.65 -17.45 32.6 -30.35 29.2 -31.35 16.8 -31.7 12.85 -31.3 9.55 L-30.85 7.0" fill="#f4bae9" fill-rule="evenodd" stroke="none"/>
      <path d="M-30.85 7.0 L-19.8 8.65 Q-7.45 10.25 -1.35 10.05 L10.35 9.45 9.85 16.5 Q8.65 24.3 5.35 28.2 2.0 32.05 -3.8 33.3 -10.0 34.65 -17.45 32.6 -30.35 29.2 -31.35 16.8 -31.7 12.85 -31.3 9.55 L-30.85 7.0 Z" fill="none" stroke="#5f5675" stroke-linecap="butt" stroke-linejoin="miter-clip" stroke-miterlimit="4.0" stroke-width="1.0"/>
    </g>
  </g>
</svg>